Toren-Rotalic.ufo
<glyph name="exclam" format="1">
  <advance width="256"/>
  <unicode hex="0021"/>
  <outline>
    <contour>
      <point x="198" y="180" type="line"/>
      <point x="341" y="624" type="line"/>
      <point x="342" y="626"/>
      <point x="342" y="628"/>
      <point x="343" y="631" type="curve"/>
      <point x="351" y="662"/>
      <point x="333" y="691"/>
      <point x="302" y="699" type="curve" smooth="yes"/>
      <point x="271" y="706"/>
      <point x="242" y="689"/>
      <point x="234" y="658" type="curve"/>
      <point x="234" y="655"/>
      <point x="233" y="653"/>
      <point x="233" y="650" type="curve"/>
      <point x="151" y="192" type="line"/>
    </contour>
    <contour>
      <point x="202" y="31" type="curve" smooth="yes"/>
      <point x="210" y="66"/>
      <point x="190" y="100"/>
      <point x="155" y="109" type="curve" smooth="yes"/>
      <point x="120" y="117"/>
      <point x="86" y="97"/>
      <point x="78" y="62" type="curve" smooth="yes"/>
      <point x="69" y="27"/>
      <point x="89" y="-7"/>
      <point x="124" y="-16" type="curve" smooth="yes"/>
      <point x="159" y="-24"/>
      <point x="193" y="-4"/>
    </contour>
  </outline>
</glyph>
<glyph name="quotedbl" format="1">
  <advance width="400"/>
  <unicode hex="0022"/>
  <outline>
    <contour>
      <point x="235" y="437" type="line"/>
      <point x="314" y="631" type="line" smooth="yes"/>
      <point x="319" y="642"/>
      <point x="321" y="650"/>
      <point x="322" y="654" type="curve" smooth="yes"/>
      <point x="329" y="681"/>
      <point x="324" y="711"/>
      <point x="289" y="720" type="curve" smooth="yes"/>
      <point x="254" y="729"/>
      <point x="235" y="704"/>
      <point x="229" y="677" type="curve" smooth="yes"/>
      <point x="228" y="673"/>
      <point x="226" y="666"/>
      <point x="225" y="653" type="curve" smooth="yes"/>
      <point x="204" y="444" type="line"/>
    </contour>
    <contour>
      <point x="405" y="394" type="line"/>
      <point x="485" y="589" type="line" smooth="yes"/>
      <point x="490" y="600"/>
      <point x="492" y="607"/>
      <point x="493" y="611" type="curve" smooth="yes"/>
      <point x="499" y="639"/>
      <point x="495" y="669"/>
      <point x="460" y="677" type="curve" smooth="yes"/>
      <point x="425" y="686"/>
      <point x="406" y="662"/>
      <point x="399" y="635" type="curve" smooth="yes"/>
      <point x="398" y="631"/>
      <point x="397" y="623"/>
      <point x="396" y="611" type="curve" smooth="yes"/>
      <point x="374" y="402" type="line"/>
    </contour>
  </outline>
</glyph>
<glyph name="numbersign" format="1">
  <advance width="576"/>
  <unicode hex="0023"/>
  <outline>
    <contour>
      <point x="406" y="234" type="line"/>
      <point x="251" y="273" type="line"/>
      <point x="340" y="449" type="line"/>
      <point x="495" y="410" type="line"/>
    </contour>
    <contour>
      <point x="536" y="136" type="line"/>
      <point x="567" y="194" type="line"/>
      <point x="468" y="219" type="line"/>
      <point x="557" y="395" type="line"/>
      <point x="645" y="373" type="line"/>
      <point x="676" y="431" type="line"/>
      <point x="587" y="453" type="line"/>
      <point x="676" y="629" type="line"/>
      <point x="614" y="644" type="line"/>
      <point x="525" y="469" type="line"/>
      <point x="370" y="507" type="line"/>
      <point x="458" y="683" type="line"/>
      <point x="396" y="699" type="line"/>
      <point x="307" y="523" type="line"/>
      <point x="210" y="547" type="line"/>
      <point x="179" y="489" type="line"/>
      <point x="278" y="464" type="line"/>
      <point x="189" y="289" type="line"/>
      <point x="102" y="310" type="line"/>
      <point x="71" y="252" type="line"/>
      <point x="159" y="230" type="line"/>
      <point x="71" y="54" type="line"/>
      <point x="133" y="39" type="line"/>
      <point x="222" y="214" type="line"/>
      <point x="377" y="176" type="line"/>
      <point x="288" y="0" type="line"/>
      <point x="350" y="-15" type="line"/>
      <point x="439" y="160" type="line"/>
    </contour>
  </outline>
</glyph>
<glyph name="dollar" format="1">
  <advance width="528"/>
  <unicode hex="0024"/>
  <outline>
    <contour>
      <point x="345" y="425" type="line"/>
      <point x="274" y="471"/>
      <point x="235" y="504"/>
      <point x="249" y="560" type="curve" smooth="yes"/>
      <point x="263" y="615"/>
      <point x="328" y="652"/>
      <point x="399" y="642" type="curve"/>
    </contour>
    <contour>
      <point x="363" y="299" type="line"/>
      <point x="434" y="253"/>
      <point x="481" y="218"/>
      <point x="462" y="142" type="curve" smooth="yes"/>
      <point x="446" y="75"/>
      <point x="378" y="29"/>
      <point x="299" y="41" type="curve"/>
    </contour>
    <contour>
      <point x="541" y="152" type="curve" smooth="yes"/>
      <point x="568" y="262"/>
      <point x="512" y="318"/>
      <point x="388" y="398" type="curve"/>
      <point x="446" y="630" type="line"/>
      <point x="498" y="613"/>
      <point x="525" y="580"/>
      <point x="529" y="557" type="curve"/>
      <point x="507" y="554"/>
      <point x="489" y="538"/>
      <point x="483" y="514" type="curve" smooth="yes"/>
      <point x="475" y="483"/>
      <point x="493" y="454"/>
      <point x="524" y="446" type="curve" smooth="yes"/>
      <point x="555" y="439"/>
      <point x="584" y="456"/>
      <point x="592" y="487" type="curve" smooth="yes"/>
      <point x="606" y="547"/>
      <point x="563" y="643"/>
      <point x="457" y="677" type="curve"/>
      <point x="485" y="786" type="line"/>
      <point x="438" y="798" type="line"/>
      <point x="411" y="688" type="line"/>
      <point x="303" y="708"/>
      <point x="205" y="649"/>
      <point x="183" y="558" type="curve" smooth="yes"/>
      <point x="157" y="455"/>
      <point x="210" y="396"/>
      <point x="321" y="326" type="curve"/>
      <point x="252" y="53" type="line"/>
      <point x="195" y="72"/>
      <point x="160" y="110"/>
      <point x="148" y="144" type="curve"/>
      <point x="167" y="149"/>
      <point x="181" y="164"/>
      <point x="186" y="184" type="curve" smooth="yes"/>
      <point x="194" y="215"/>
      <point x="177" y="244"/>
      <point x="145" y="252" type="curve" smooth="yes"/>
      <point x="114" y="260"/>
      <point x="85" y="242"/>
      <point x="78" y="211" type="curve" smooth="yes"/>
      <point x="63" y="152"/>
      <point x="119" y="44"/>
      <point x="241" y="6" type="curve"/>
      <point x="210" y="-118" type="line"/>
      <point x="256" y="-130" type="line"/>
      <point x="287" y="-5" type="line"/>
      <point x="411" y="-28"/>
      <point x="515" y="47"/>
    </contour>
  </outline>
</glyph>
<glyph name="percent" format="1">
  <advance width="608"/>
  <unicode hex="0025"/>
  <outline>
    <contour>
      <point x="174" y="601" type="curve" smooth="yes"/>
      <point x="152" y="514"/>
      <point x="179" y="431"/>
      <point x="254" y="412" type="curve" smooth="yes"/>
      <point x="330" y="393"/>
      <point x="392" y="454"/>
      <point x="414" y="541" type="curve" smooth="yes"/>
      <point x="434" y="621"/>
      <point x="407" y="704"/>
      <point x="332" y="723" type="curve" smooth="yes"/>
      <point x="256" y="742"/>
      <point x="193" y="681"/>
    </contour>
    <contour>
      <point x="325" y="696" type="curve" smooth="yes"/>
      <point x="377" y="683"/>
      <point x="373" y="618"/>
      <point x="358" y="555" type="curve" smooth="yes"/>
      <point x="341" y="486"/>
      <point x="313" y="426"/>
      <point x="261" y="439" type="curve" smooth="yes"/>
      <point x="209" y="453"/>
      <point x="212" y="518"/>
      <point x="230" y="587" type="curve" smooth="yes"/>
      <point x="245" y="649"/>
      <point x="273" y="709"/>
    </contour>
    <contour>
      <point x="614" y="648" type="line"/>
      <point x="102" y="50" type="line"/>
      <point x="164" y="35" type="line"/>
      <point x="676" y="633" type="line"/>
    </contour>
    <contour>
      <point x="366" y="149" type="curve" smooth="yes"/>
      <point x="344" y="62"/>
      <point x="371" y="-21"/>
      <point x="447" y="-40" type="curve" smooth="yes"/>
      <point x="522" y="-59"/>
      <point x="585" y="2"/>
      <point x="607" y="89" type="curve" smooth="yes"/>
      <point x="626" y="169"/>
      <point x="600" y="252"/>
      <point x="524" y="271" type="curve" smooth="yes"/>
      <point x="448" y="290"/>
      <point x="386" y="229"/>
    </contour>
    <contour>
      <point x="517" y="244" type="curve" smooth="yes"/>
      <point x="570" y="231"/>
      <point x="566" y="166"/>
      <point x="550" y="103" type="curve" smooth="yes"/>
      <point x="533" y="34"/>
      <point x="506" y="-26"/>
      <point x="453" y="-13" type="curve" smooth="yes"/>
      <point x="401" y="1"/>
      <point x="405" y="66"/>
      <point x="422" y="135" type="curve" smooth="yes"/>
      <point x="438" y="198"/>
      <point x="465" y="257"/>
    </contour>
  </outline>
</glyph>
<glyph name="ampersand" format="1">
  <advance width="576"/>
  <unicode hex="0026"/>
  <outline>
    <contour>
      <point x="536" y="-62" type="line"/>
      <point x="542" y="-39" type="line"/>
      <point x="488" y="8" type="line"/>
      <point x="467" y="100" type="line"/>
      <point x="505" y="144" type="line" smooth="yes"/>
      <point x="540" y="184"/>
      <point x="575" y="258"/>
      <point x="592" y="328" type="curve" smooth="yes"/>
      <point x="600" y="359"/>
      <point x="583" y="388"/>
      <point x="552" y="396" type="curve" smooth="yes"/>
      <point x="521" y="404"/>
      <point x="491" y="386"/>
      <point x="484" y="355" type="curve" smooth="yes"/>
      <point x="476" y="324"/>
      <point x="493" y="295"/>
      <point x="525" y="287" type="curve"/>
      <point x="517" y="257"/>
      <point x="487" y="201"/>
      <point x="454" y="161" type="curve"/>
      <point x="396" y="418" type="line"/>
      <point x="442" y="446"/>
      <point x="519" y="495"/>
      <point x="536" y="565" type="curve" smooth="yes"/>
      <point x="553" y="635"/>
      <point x="524" y="683"/>
      <point x="447" y="702" type="curve" smooth="yes"/>
      <point x="369" y="722"/>
      <point x="301" y="681"/>
      <point x="282" y="603" type="curve" smooth="yes"/>
      <point x="272" y="562"/>
      <point x="285" y="495"/>
      <point x="300" y="436" type="curve"/>
      <point x="295" y="433" type="line" smooth="yes"/>
      <point x="183" y="366"/>
      <point x="105" y="326"/>
      <point x="82" y="233" type="curve" smooth="yes"/>
      <point x="55" y="124"/>
      <point x="129" y="23"/>
      <point x="230" y="-2" type="curve" smooth="yes"/>
      <point x="304" y="-21"/>
      <point x="362" y="10"/>
      <point x="394" y="35" type="curve"/>
      <point x="408" y="-30" type="line"/>
    </contour>
    <contour>
      <point x="384" y="475" type="curve"/>
      <point x="370" y="536"/>
      <point x="365" y="574"/>
      <point x="375" y="613" type="curve" smooth="yes"/>
      <point x="382" y="640"/>
      <point x="404" y="664"/>
      <point x="435" y="656" type="curve" smooth="yes"/>
      <point x="466" y="648"/>
      <point x="475" y="617"/>
      <point x="468" y="590" type="curve" smooth="yes"/>
      <point x="458" y="551"/>
      <point x="437" y="507"/>
    </contour>
    <contour>
      <point x="263" y="64" type="curve" smooth="yes"/>
      <point x="193" y="81"/>
      <point x="156" y="165"/>
      <point x="171" y="227" type="curve" smooth="yes"/>
      <point x="187" y="289"/>
      <point x="228" y="328"/>
      <point x="312" y="379" type="curve" smooth="yes"/>
      <point x="315" y="381" type="line"/>
      <point x="320" y="363"/>
      <point x="324" y="348"/>
      <point x="327" y="337" type="curve" smooth="yes"/>
      <point x="380" y="96" type="line"/>
      <point x="346" y="70"/>
      <point x="295" y="56"/>
    </contour>
  </outline>
</glyph>
<glyph name="quotesingle" format="1">
  <advance width="160"/>
  <unicode hex="0027"/>
  <outline>
    <contour>
      <point x="200" y="415" type="line"/>
      <point x="279" y="610" type="line" smooth="yes"/>
      <point x="284" y="621"/>
      <point x="286" y="629"/>
      <point x="287" y="633" type="curve" smooth="yes"/>
      <point x="294" y="660"/>
      <point x="289" y="690"/>
      <point x="254" y="699" type="curve" smooth="yes"/>
      <point x="219" y="707"/>
      <point x="201" y="683"/>
      <point x="194" y="656" type="curve" smooth="yes"/>
      <point x="193" y="652"/>
      <point x="191" y="644"/>
      <point x="190" y="632" type="curve" smooth="yes"/>
      <point x="169" y="423" type="line"/>
    </contour>
  </outline>
</glyph>
<glyph name="parenleft" format="1">
  <advance width="272"/>
  <unicode hex="0028"/>
  <outline>
    <contour>
      <point x="194" y="332" type="curve" smooth="yes"/>
      <point x="225" y="456"/>
      <point x="289" y="613"/>
      <point x="444" y="706" type="curve"/>
      <point x="427" y="736" type="line"/>
      <point x="240" y="650"/>
      <point x="151" y="491"/>
      <point x="116" y="351" type="curve" smooth="yes"/>
      <point x="82" y="211"/>
      <point x="86" y="29"/>
      <point x="210" y="-134" type="curve"/>
      <point x="239" y="-116" type="line"/>
      <point x="146" y="39"/>
      <point x="163" y="208"/>
    </contour>
  </outline>
</glyph>
<glyph name="parenright" format="1">
  <advance width="272"/>
  <unicode hex="0029"/>
  <outline>
    <contour>
      <point x="241" y="320" type="curve" smooth="yes"/>
      <point x="210" y="196"/>
      <point x="146" y="39"/>
      <point x="-9" y="-54" type="curve"/>
      <point x="8" y="-84" type="line"/>
      <point x="194" y="2"/>
      <point x="283" y="161"/>
      <point x="318" y="301" type="curve" smooth="yes"/>
      <point x="353" y="441"/>
      <point x="349" y="623"/>
      <point x="225" y="786" type="curve"/>
      <point x="196" y="768" type="line"/>
      <point x="289" y="613"/>
      <point x="272" y="444"/>
    </contour>
  </outline>
</glyph>
<glyph name="asterisk" format="1">
  <advance width="400"/>
  <unicode hex="002A"/>
  <outline>
    <contour>
      <point x="403" y="366" type="curve"/>
      <point x="427" y="374"/>
      <point x="443" y="405"/>
      <point x="419" y="440" type="curve" smooth="yes"/>
      <point x="363" y="517" type="line"/>
      <point x="457" y="501" type="line" smooth="yes"/>
      <point x="498" y="493"/>
      <point x="520" y="522"/>
      <point x="516" y="548" type="curve"/>
      <point x="514" y="575"/>
      <point x="492" y="601"/>
      <point x="449" y="587" type="curve" smooth="yes"/>
      <point x="362" y="559" type="line"/>
      <point x="405" y="641" type="line" smooth="yes"/>
      <point x="425" y="680"/>
      <point x="403" y="708"/>
      <point x="378" y="714" type="curve" smooth="yes"/>
      <point x="353" y="720"/>
      <point x="320" y="706"/>
      <point x="320" y="663" type="curve" smooth="yes"/>
      <point x="320" y="570" type="line"/>
      <point x="255" y="635" type="line" smooth="yes"/>
      <point x="224" y="668"/>
      <point x="192" y="655"/>
      <point x="178" y="632" type="curve"/>
      <point x="163" y="611"/>
      <point x="168" y="575"/>
      <point x="208" y="563" type="curve" smooth="yes"/>
      <point x="296" y="534" type="line"/>
      <point x="212" y="496" type="line" smooth="yes"/>
      <point x="173" y="479"/>
      <point x="173" y="444"/>
      <point x="188" y="423" type="curve" smooth="yes"/>
      <point x="205" y="401"/>
      <point x="239" y="394"/>
      <point x="265" y="427" type="curve" smooth="yes"/>
      <point x="325" y="502" type="line"/>
      <point x="337" y="409" type="line"/>
      <point x="345" y="366"/>
      <point x="379" y="355"/>
    </contour>
  </outline>
</glyph>
<glyph name="plus" format="1">
  <advance width="512"/>
  <unicode hex="002B"/>
  <outline>
    <contour>
      <point x="353" y="256" type="line"/>
      <point x="403" y="458" type="line"/>
      <point x="341" y="473" type="line"/>
      <point x="291" y="272" type="line"/>
      <point x="104" y="318" type="line"/>
      <point x="89" y="256" type="line"/>
      <point x="275" y="210" type="line"/>
      <point x="225" y="8" type="line"/>
      <point x="287" y="-8" type="line"/>
      <point x="337" y="194" type="line"/>
      <point x="524" y="148" type="line"/>
      <point x="539" y="210" type="line"/>
    </contour>
  </outline>
</glyph>
<glyph name="comma" format="1">
  <advance width="232"/>
  <unicode hex="002C"/>
  <outline>
    <contour>
      <point x="23" y="-158" type="line"/>
      <point x="97" y="-127"/>
      <point x="151" y="-75"/>
      <point x="170" y="3" type="curve" smooth="yes"/>
      <point x="185" y="62"/>
      <point x="165" y="100"/>
      <point x="129" y="112" type="curve"/>
      <point x="124" y="114"/>
      <point x="124" y="114"/>
      <point x="124" y="114" type="curve"/>
      <point x="89" y="122"/>
      <point x="55" y="102"/>
      <point x="46" y="67" type="curve" smooth="yes"/>
      <point x="37" y="32"/>
      <point x="58" y="-2"/>
      <point x="93" y="-11" type="curve"/>
      <point x="95" y="-11"/>
      <point x="98" y="-12"/>
      <point x="100" y="-12" type="curve"/>
      <point x="84" y="-70"/>
      <point x="52" y="-101"/>
      <point x="5" y="-129" type="curve"/>
    </contour>
  </outline>
</glyph>
<glyph name="hyphen" format="1">
  <advance width="288"/>
  <unicode hex="002D"/>
  <outline>
    <contour>
      <point x="338" y="248" type="line"/>
      <point x="89" y="310" type="line"/>
      <point x="74" y="248" type="line"/>
      <point x="322" y="186" type="line"/>
    </contour>
  </outline>
</glyph>
<glyph name="period" format="1">
  <advance width="256"/>
  <unicode hex="002E"/>
  <outline>
    <contour>
      <point x="202" y="31" type="curve" smooth="yes"/>
      <point x="210" y="66"/>
      <point x="190" y="100"/>
      <point x="155" y="109" type="curve" smooth="yes"/>
      <point x="120" y="117"/>
      <point x="86" y="97"/>
      <point x="78" y="62" type="curve" smooth="yes"/>
      <point x="69" y="27"/>
      <point x="89" y="-7"/>
      <point x="124" y="-16" type="curve" smooth="yes"/>
      <point x="159" y="-24"/>
      <point x="193" y="-4"/>
    </contour>
  </outline>
</glyph>
<glyph name="slash" format="1">
  <advance width="416"/>
  <unicode hex="002F"/>
  <outline>
    <contour>
      <point x="534" y="710" type="line"/>
      <point x="-9" y="-12" type="line"/>
      <point x="53" y="-27" type="line"/>
      <point x="596" y="695" type="line"/>
    </contour>
  </outline>
</glyph>
<glyph name="zero" format="1">
  <advance width="560"/>
  <unicode hex="0030"/>
  <outline>
    <contour>
      <point x="125" y="402" type="curve" smooth="yes"/>
      <point x="70" y="184"/>
      <point x="136" y="19"/>
      <point x="276" y="-16" type="curve" smooth="yes"/>
      <point x="416" y="-50"/>
      <point x="552" y="64"/>
      <point x="606" y="282" type="curve" smooth="yes"/>
      <point x="660" y="499"/>
      <point x="594" y="664"/>
      <point x="454" y="699" type="curve" smooth="yes"/>
      <point x="314" y="733"/>
      <point x="179" y="619"/>
    </contour>
    <contour>
      <point x="218" y="378" type="curve" smooth="yes"/>
      <point x="264" y="565"/>
      <point x="349" y="675"/>
      <point x="443" y="652" type="curve" smooth="yes"/>
      <point x="476" y="644"/>
      <point x="500" y="621"/>
      <point x="516" y="586" type="curve"/>
      <point x="204" y="128" type="line"/>
      <point x="188" y="190"/>
      <point x="192" y="277"/>
    </contour>
    <contour>
      <point x="288" y="31" type="curve" smooth="yes"/>
      <point x="260" y="38"/>
      <point x="238" y="56"/>
      <point x="222" y="82" type="curve"/>
      <point x="531" y="535" type="line"/>
      <point x="541" y="475"/>
      <point x="535" y="396"/>
      <point x="513" y="305" type="curve" smooth="yes"/>
      <point x="466" y="118"/>
      <point x="381" y="8"/>
    </contour>
  </outline>
</glyph>
<glyph name="one" format="1">
  <advance width="560"/>
  <unicode hex="0031"/>
  <outline>
    <contour>
      <point x="459" y="-45" type="line"/>
      <point x="464" y="-21" type="line"/>
      <point x="346" y="33" type="line"/>
      <point x="505" y="670" type="line"/>
      <point x="450" y="683" type="line"/>
      <point x="412" y="627"/>
      <point x="346" y="627"/>
      <point x="299" y="638" type="curve" smooth="yes"/>
      <point x="268" y="646" type="line"/>
      <point x="256" y="600" type="line"/>
      <point x="388" y="567" type="line"/>
      <point x="261" y="54" type="line"/>
      <point x="131" y="62" type="line"/>
      <point x="125" y="39" type="line"/>
    </contour>
  </outline>
</glyph>
<glyph name="two" format="1">
  <advance width="560"/>
  <unicode hex="0032"/>
  <outline>
    <contour>
      <point x="39" y="60" type="line"/>
      <point x="459" y="-45" type="line"/>
      <point x="528" y="103" type="line"/>
      <point x="497" y="111" type="line"/>
      <point x="439" y="43" type="line"/>
      <point x="206" y="101" type="line"/>
      <point x="381" y="206" type="line" smooth="yes"/>
      <point x="521" y="290"/>
      <point x="571" y="340"/>
      <point x="594" y="433" type="curve" smooth="yes"/>
      <point x="621" y="542"/>
      <point x="578" y="668"/>
      <point x="446" y="701" type="curve" smooth="yes"/>
      <point x="338" y="728"/>
      <point x="225" y="673"/>
      <point x="187" y="518" type="curve"/>
      <point x="225" y="508" type="line"/>
      <point x="268" y="613"/>
      <point x="336" y="654"/>
      <point x="398" y="638" type="curve" smooth="yes"/>
      <point x="491" y="615"/>
      <point x="520" y="534"/>
      <point x="501" y="456" type="curve" smooth="yes"/>
      <point x="482" y="378"/>
      <point x="423" y="311"/>
      <point x="278" y="223" type="curve" smooth="yes"/>
      <point x="45" y="83" type="line"/>
    </contour>
  </outline>
</glyph>
<glyph name="three" format="1">
  <advance width="560"/>
  <unicode hex="0033"/>
  <outline>
    <contour>
      <point x="540" y="150" type="curve" smooth="yes"/>
      <point x="564" y="245"/>
      <point x="533" y="379"/>
      <point x="338" y="431" type="curve"/>
      <point x="639" y="611" type="line"/>
      <point x="644" y="635" type="line"/>
      <point x="272" y="728" type="line"/>
      <point x="202" y="580" type="line"/>
      <point x="233" y="572" type="line"/>
      <point x="291" y="640" type="line"/>
      <point x="478" y="594" type="line"/>
      <point x="216" y="437" type="line"/>
      <point x="204" y="390" type="line"/>
      <point x="297" y="367" type="line" smooth="yes"/>
      <point x="429" y="334"/>
      <point x="467" y="254"/>
      <point x="447" y="173" type="curve" smooth="yes"/>
      <point x="426" y="91"/>
      <point x="351" y="36"/>
      <point x="254" y="60" type="curve" smooth="yes"/>
      <point x="188" y="77"/>
      <point x="136" y="151"/>
      <point x="144" y="248" type="curve"/>
      <point x="105" y="258" type="line"/>
      <point x="70" y="118"/>
      <point x="156" y="14"/>
      <point x="268" y="-14" type="curve" smooth="yes"/>
      <point x="404" y="-47"/>
      <point x="512" y="37"/>
    </contour>
  </outline>
</glyph>
<glyph name="four" format="1">
  <advance width="560"/>
  <unicode hex="0034"/>
  <outline>
    <contour>
      <point x="454" y="534" type="line"/>
      <point x="377" y="223" type="line"/>
      <point x="222" y="262" type="line"/>
    </contour>
    <contour>
      <point x="476" y="-24" type="line"/>
      <point x="420" y="15" type="line"/>
      <point x="455" y="154" type="line"/>
      <point x="548" y="131" type="line"/>
      <point x="559" y="178" type="line"/>
      <point x="466" y="201" type="line"/>
      <point x="578" y="651" type="line"/>
      <point x="497" y="671" type="line"/>
      <point x="160" y="277" type="line"/>
      <point x="148" y="231" type="line"/>
      <point x="365" y="177" type="line"/>
      <point x="330" y="37" type="line"/>
      <point x="263" y="29" type="line"/>
      <point x="257" y="6" type="line"/>
      <point x="470" y="-47" type="line"/>
    </contour>
  </outline>
</glyph>
<glyph name="five" format="1">
  <advance width="560"/>
  <unicode hex="0035"/>
  <outline>
    <contour>
      <point x="540" y="150" type="curve" smooth="yes"/>
      <point x="567" y="258"/>
      <point x="540" y="415"/>
      <point x="338" y="466" type="curve" smooth="yes"/>
      <point x="273" y="482" type="line"/>
      <point x="338" y="629" type="line"/>
      <point x="524" y="582" type="line"/>
      <point x="544" y="495" type="line"/>
      <point x="575" y="487" type="line"/>
      <point x="582" y="650" type="line"/>
      <point x="311" y="718" type="line"/>
      <point x="200" y="473" type="line"/>
      <point x="189" y="427" type="line"/>
      <point x="305" y="398" type="line" smooth="yes"/>
      <point x="437" y="365"/>
      <point x="466" y="267"/>
      <point x="443" y="174" type="curve" smooth="yes"/>
      <point x="424" y="96"/>
      <point x="348" y="41"/>
      <point x="255" y="64" type="curve" smooth="yes"/>
      <point x="193" y="79"/>
      <point x="136" y="151"/>
      <point x="148" y="264" type="curve"/>
      <point x="109" y="273" type="line"/>
      <point x="70" y="118"/>
      <point x="160" y="14"/>
      <point x="268" y="-14" type="curve" smooth="yes"/>
      <point x="400" y="-46"/>
      <point x="513" y="41"/>
    </contour>
  </outline>
</glyph>
<glyph name="six" format="1">
  <advance width="560"/>
  <unicode hex="0036"/>
  <outline>
    <contour>
      <point x="571" y="142" type="curve" smooth="yes"/>
      <point x="602" y="266"/>
      <point x="532" y="382"/>
      <point x="392" y="417" type="curve" smooth="yes"/>
      <point x="351" y="428"/>
      <point x="307" y="422"/>
      <point x="269" y="410" type="curve"/>
      <point x="318" y="511"/>
      <point x="420" y="603"/>
      <point x="588" y="608" type="curve"/>
      <point x="598" y="646" type="line"/>
      <point x="435" y="687"/>
      <point x="179" y="553"/>
      <point x="113" y="289" type="curve" smooth="yes"/>
      <point x="74" y="134"/>
      <point x="144" y="17"/>
      <point x="284" y="-17" type="curve" smooth="yes"/>
      <point x="424" y="-52"/>
      <point x="540" y="18"/>
    </contour>
    <contour>
      <point x="381" y="371" type="curve" smooth="yes"/>
      <point x="458" y="351"/>
      <point x="505" y="274"/>
      <point x="478" y="165" type="curve" smooth="yes"/>
      <point x="451" y="56"/>
      <point x="373" y="10"/>
      <point x="296" y="29" type="curve" smooth="yes"/>
      <point x="218" y="48"/>
      <point x="171" y="126"/>
      <point x="198" y="235" type="curve" smooth="yes"/>
      <point x="222" y="328"/>
      <point x="288" y="394"/>
    </contour>
  </outline>
</glyph>
<glyph name="seven" format="1">
  <advance width="560"/>
  <unicode hex="0037"/>
  <outline>
    <contour>
      <point x="675" y="627" type="line"/>
      <point x="303" y="720" type="line"/>
      <point x="233" y="572" type="line"/>
      <point x="264" y="565" type="line"/>
      <point x="322" y="633" type="line"/>
      <point x="563" y="573" type="line"/>
      <point x="148" y="33" type="line"/>
      <point x="226" y="14" type="line"/>
      <point x="670" y="604" type="line"/>
    </contour>
  </outline>
</glyph>
<glyph name="eight" format="1">
  <advance width="560"/>
  <unicode hex="0038"/>
  <outline>
    <contour>
      <point x="540" y="117" type="curve" smooth="yes"/>
      <point x="552" y="163"/>
      <point x="552" y="196"/>
      <point x="493" y="293" type="curve" smooth="yes"/>
      <point x="442" y="378" type="line"/>
      <point x="515" y="410"/>
      <point x="571" y="439"/>
      <point x="592" y="524" type="curve" smooth="yes"/>
      <point x="602" y="563"/>
      <point x="586" y="666"/>
      <point x="470" y="695" type="curve" smooth="yes"/>
      <point x="353" y="724"/>
      <point x="280" y="660"/>
      <point x="260" y="582" type="curve" smooth="yes"/>
      <point x="247" y="528"/>
      <point x="272" y="464"/>
      <point x="301" y="415" type="curve" smooth="yes"/>
      <point x="329" y="369" type="line"/>
      <point x="224" y="314"/>
      <point x="156" y="262"/>
      <point x="136" y="184" type="curve" smooth="yes"/>
      <point x="113" y="91"/>
      <point x="183" y="8"/>
      <point x="284" y="-17" type="curve" smooth="yes"/>
      <point x="424" y="-52"/>
      <point x="513" y="8"/>
    </contour>
    <contour>
      <point x="388" y="468" type="line" smooth="yes"/>
      <point x="365" y="506"/>
      <point x="346" y="561"/>
      <point x="351" y="584" type="curve" smooth="yes"/>
      <point x="363" y="631"/>
      <point x="412" y="660"/>
      <point x="458" y="648" type="curve" smooth="yes"/>
      <point x="505" y="637"/>
      <point x="534" y="588"/>
      <point x="522" y="541" type="curve" smooth="yes"/>
      <point x="507" y="479"/>
      <point x="473" y="453"/>
      <point x="417" y="419" type="curve"/>
    </contour>
    <contour>
      <point x="296" y="29" type="curve" smooth="yes"/>
      <point x="226" y="47"/>
      <point x="204" y="126"/>
      <point x="218" y="180" type="curve" smooth="yes"/>
      <point x="227" y="216"/>
      <point x="260" y="266"/>
      <point x="354" y="327" type="curve"/>
      <point x="406" y="241" type="line" smooth="yes"/>
      <point x="428" y="204"/>
      <point x="445" y="165"/>
      <point x="435" y="126" type="curve" smooth="yes"/>
      <point x="422" y="72"/>
      <point x="365" y="12"/>
    </contour>
  </outline>
</glyph>
<glyph name="nine" format="1">
  <advance width="560"/>
  <unicode hex="0039"/>
  <outline>
    <contour>
      <point x="645" y="371" type="curve" smooth="yes"/>
      <point x="683" y="526"/>
      <point x="613" y="642"/>
      <point x="474" y="677" type="curve" smooth="yes"/>
      <point x="334" y="712"/>
      <point x="218" y="642"/>
      <point x="187" y="518" type="curve" smooth="yes"/>
      <point x="156" y="394"/>
      <point x="225" y="277"/>
      <point x="365" y="243" type="curve" smooth="yes"/>
      <point x="407" y="232"/>
      <point x="451" y="238"/>
      <point x="488" y="249" type="curve"/>
      <point x="439" y="149"/>
      <point x="337" y="57"/>
      <point x="169" y="52" type="curve"/>
      <point x="160" y="14" type="line"/>
      <point x="323" y="-27"/>
      <point x="579" y="107"/>
    </contour>
    <contour>
      <point x="377" y="289" type="curve" smooth="yes"/>
      <point x="299" y="309"/>
      <point x="253" y="386"/>
      <point x="280" y="495" type="curve" smooth="yes"/>
      <point x="307" y="603"/>
      <point x="384" y="650"/>
      <point x="462" y="631" type="curve" smooth="yes"/>
      <point x="540" y="611"/>
      <point x="586" y="534"/>
      <point x="559" y="425" type="curve" smooth="yes"/>
      <point x="536" y="332"/>
      <point x="470" y="266"/>
    </contour>
  </outline>
</glyph>
<glyph name="colon" format="1">
  <advance width="256"/>
  <unicode hex="003A"/>
  <outline>
    <contour>
      <point x="295" y="404" type="curve" smooth="yes"/>
      <point x="303" y="439"/>
      <point x="283" y="473"/>
      <point x="248" y="481" type="curve" smooth="yes"/>
      <point x="213" y="490"/>
      <point x="179" y="470"/>
      <point x="170" y="435" type="curve" smooth="yes"/>
      <point x="162" y="400"/>
      <point x="182" y="366"/>
      <point x="217" y="357" type="curve" smooth="yes"/>
      <point x="252" y="348"/>
      <point x="286" y="369"/>
    </contour>
    <contour>
      <point x="202" y="31" type="curve" smooth="yes"/>
      <point x="210" y="66"/>
      <point x="190" y="100"/>
      <point x="155" y="109" type="curve" smooth="yes"/>
      <point x="120" y="117"/>
      <point x="86" y="97"/>
      <point x="78" y="62" type="curve" smooth="yes"/>
      <point x="69" y="27"/>
      <point x="89" y="-7"/>
      <point x="124" y="-16" type="curve" smooth="yes"/>
      <point x="159" y="-24"/>
      <point x="193" y="-4"/>
    </contour>
  </outline>
</glyph>
<glyph name="semicolon" format="1">
  <advance width="264"/>
  <unicode hex="003B"/>
  <outline>
    <contour>
      <point x="295" y="405" type="curve" smooth="yes"/>
      <point x="303" y="440"/>
      <point x="283" y="474"/>
      <point x="248" y="482" type="curve" smooth="yes"/>
      <point x="213" y="491"/>
      <point x="179" y="471"/>
      <point x="171" y="436" type="curve" smooth="yes"/>
      <point x="162" y="401"/>
      <point x="182" y="367"/>
      <point x="217" y="358" type="curve" smooth="yes"/>
      <point x="252" y="349"/>
      <point x="286" y="370"/>
    </contour>
    <contour>
      <point x="54" y="-162" type="line"/>
      <point x="128" y="-131"/>
      <point x="182" y="-79"/>
      <point x="202" y="-1" type="curve" smooth="yes"/>
      <point x="217" y="58"/>
      <point x="196" y="96"/>
      <point x="161" y="108" type="curve"/>
      <point x="161" y="108"/>
      <point x="160" y="108"/>
      <point x="160" y="108" type="curve"/>
      <point x="155" y="110"/>
      <point x="155" y="110"/>
      <point x="155" y="110" type="curve"/>
      <point x="120" y="118"/>
      <point x="86" y="98"/>
      <point x="78" y="63" type="curve" smooth="yes"/>
      <point x="69" y="28"/>
      <point x="89" y="-6"/>
      <point x="124" y="-15" type="curve"/>
      <point x="127" y="-15"/>
      <point x="129" y="-16"/>
      <point x="132" y="-16" type="curve"/>
      <point x="116" y="-73"/>
      <point x="84" y="-105"/>
      <point x="37" y="-133" type="curve"/>
    </contour>
  </outline>
</glyph>
<glyph name="less" format="1">
  <advance width="480"/>
  <unicode hex="003C"/>
  <outline>
    <contour>
      <point x="457" y="12" type="line"/>
      <point x="158" y="268" type="line"/>
      <point x="542" y="353" type="line"/>
      <point x="558" y="415" type="line"/>
      <point x="104" y="314" type="line"/>
      <point x="88" y="252" type="line"/>
      <point x="442" y="-50" type="line"/>
    </contour>
  </outline>
</glyph>
<glyph name="equal" format="1">
  <advance width="544"/>
  <unicode hex="003D"/>
  <outline>
    <contour>
      <point x="578" y="237" type="line"/>
      <point x="594" y="299" type="line"/>
      <point x="128" y="415" type="line"/>
      <point x="113" y="353" type="line"/>
    </contour>
    <contour>
      <point x="532" y="51" type="line"/>
      <point x="547" y="113" type="line"/>
      <point x="82" y="229" type="line"/>
      <point x="66" y="167" type="line"/>
    </contour>
  </outline>
</glyph>
<glyph name="greater" format="1">
  <advance width="480"/>
  <unicode hex="003E"/>
  <outline>
    <contour>
      <point x="54" y="112" type="line"/>
      <point x="38" y="50" type="line"/>
      <point x="492" y="152" type="line"/>
      <point x="508" y="214" type="line"/>
      <point x="154" y="516" type="line"/>
      <point x="139" y="454" type="line"/>
      <point x="438" y="198" type="line"/>
    </contour>
  </outline>
</glyph>
<glyph name="question" format="1">
  <advance width="440"/>
  <unicode hex="003F"/>
  <outline>
    <contour>
      <point x="270" y="185" type="line"/>
      <point x="325" y="403"/>
      <point x="497" y="335"/>
      <point x="538" y="498" type="curve" smooth="yes"/>
      <point x="565" y="607"/>
      <point x="499" y="672"/>
      <point x="390" y="700" type="curve" smooth="yes"/>
      <point x="274" y="729"/>
      <point x="189" y="651"/>
      <point x="171" y="581" type="curve" smooth="yes"/>
      <point x="163" y="550"/>
      <point x="181" y="521"/>
      <point x="212" y="513" type="curve" smooth="yes"/>
      <point x="243" y="505"/>
      <point x="272" y="523"/>
      <point x="280" y="554" type="curve" smooth="yes"/>
      <point x="285" y="576"/>
      <point x="278" y="597"/>
      <point x="262" y="611" type="curve"/>
      <point x="277" y="644"/>
      <point x="322" y="667"/>
      <point x="379" y="653" type="curve" smooth="yes"/>
      <point x="441" y="638"/>
      <point x="460" y="583"/>
      <point x="445" y="521" type="curve" smooth="yes"/>
      <point x="414" y="397"/>
      <point x="286" y="445"/>
      <point x="224" y="197" type="curve"/>
    </contour>
    <contour>
      <point x="274" y="36" type="curve" smooth="yes"/>
      <point x="283" y="71"/>
      <point x="263" y="105"/>
      <point x="228" y="114" type="curve" smooth="yes"/>
      <point x="193" y="122"/>
      <point x="159" y="102"/>
      <point x="150" y="67" type="curve" smooth="yes"/>
      <point x="141" y="32"/>
      <point x="162" y="-2"/>
      <point x="197" y="-11" type="curve" smooth="yes"/>
      <point x="232" y="-19"/>
      <point x="266" y="1"/>
    </contour>
  </outline>
</glyph>
<glyph name="at" format="1">
  <advance width="672"/>
  <unicode hex="0040"/>
  <outline>
    <contour>
      <point x="579" y="14" type="curve"/>
      <point x="561" y="43" type="line"/>
      <point x="487" y="12"/>
      <point x="421" y="12"/>
      <point x="359" y="27" type="curve" smooth="yes"/>
      <point x="235" y="58"/>
      <point x="132" y="174"/>
      <point x="181" y="369" type="curve" smooth="yes"/>
      <point x="223" y="539"/>
      <point x="374" y="683"/>
      <point x="545" y="640" type="curve" smooth="yes"/>
      <point x="700" y="602"/>
      <point x="712" y="450"/>
      <point x="685" y="342" type="curve" smooth="yes"/>
      <point x="652" y="210"/>
      <point x="577" y="138"/>
      <point x="526" y="150" type="curve" smooth="yes"/>
      <point x="497" y="158"/>
      <point x="495" y="191"/>
      <point x="510" y="220" type="curve" smooth="yes"/>
      <point x="627" y="439" type="line"/>
      <point x="565" y="454" type="line"/>
      <point x="537" y="402" type="line"/>
      <point x="540" y="448"/>
      <point x="518" y="464"/>
      <point x="477" y="474" type="curve" smooth="yes"/>
      <point x="395" y="494"/>
      <point x="286" y="429"/>
      <point x="258" y="316" type="curve" smooth="yes"/>
      <point x="237" y="231"/>
      <point x="263" y="171"/>
      <point x="325" y="155" type="curve" smooth="yes"/>
      <point x="359" y="147"/>
      <point x="408" y="161"/>
      <point x="446" y="215" type="curve"/>
      <point x="429" y="146"/>
      <point x="464" y="116"/>
      <point x="495" y="109" type="curve" smooth="yes"/>
      <point x="604" y="82"/>
      <point x="697" y="190"/>
      <point x="732" y="330" type="curve" smooth="yes"/>
      <point x="766" y="470"/>
      <point x="747" y="640"/>
      <point x="557" y="687" type="curve" smooth="yes"/>
      <point x="324" y="745"/>
      <point x="158" y="543"/>
      <point x="118" y="384" type="curve" smooth="yes"/>
      <point x="68" y="182"/>
      <point x="161" y="27"/>
      <point x="348" y="-19" type="curve" smooth="yes"/>
      <point x="408" y="-34"/>
      <point x="480" y="-36"/>
    </contour>
    <contour>
      <point x="479" y="442" type="curve" smooth="yes"/>
      <point x="506" y="436"/>
      <point x="520" y="422"/>
      <point x="509" y="379" type="curve" smooth="yes"/>
      <point x="482" y="273"/>
      <point x="396" y="171"/>
      <point x="347" y="183" type="curve" smooth="yes"/>
      <point x="319" y="190"/>
      <point x="310" y="219"/>
      <point x="321" y="261" type="curve" smooth="yes"/>
      <point x="342" y="347"/>
      <point x="419" y="457"/>
    </contour>
  </outline>
</glyph>
<glyph name="A" format="1">
  <advance width="628"/>
  <unicode hex="0041"/>
  <outline>
    <contour>
      <point x="634" y="-80" type="line"/>
      <point x="640" y="-57" type="line"/>
      <point x="584" y="-18" type="line"/>
      <point x="498" y="680" type="line"/>
      <point x="467" y="687" type="line"/>
      <point x="404" y="650" type="line"/>
      <point x="412" y="588" type="line"/>
      <point x="68" y="111" type="line"/>
      <point x="0" y="103" type="line"/>
      <point x="-6" y="80" type="line"/>
      <point x="172" y="35" type="line"/>
      <point x="178" y="59" type="line"/>
      <point x="122" y="97" type="line"/>
      <point x="221" y="238" type="line"/>
      <point x="465" y="177" type="line"/>
      <point x="487" y="6" type="line"/>
      <point x="419" y="-1" type="line"/>
      <point x="413" y="-25" type="line"/>
    </contour>
    <contour>
      <point x="458" y="228" type="line"/>
      <point x="251" y="280" type="line"/>
      <point x="421" y="519" type="line"/>
    </contour>
  </outline>
</glyph>
<glyph name="B" format="1">
  <advance width="620"/>
  <unicode hex="0042"/>
  <outline>
    <contour>
      <point x="615" y="122" type="curve" smooth="yes"/>
      <point x="639" y="221"/>
      <point x="593" y="291"/>
      <point x="518" y="329" type="curve"/>
      <point x="583" y="336"/>
      <point x="636" y="373"/>
      <point x="655" y="450" type="curve" smooth="yes"/>
      <point x="684" y="566"/>
      <point x="606" y="652"/>
      <point x="498" y="679" type="curve" smooth="yes"/>
      <point x="211" y="750" type="line"/>
      <point x="205" y="727" type="line"/>
      <point x="261" y="688" type="line"/>
      <point x="114" y="98" type="line"/>
      <point x="46" y="91" type="line"/>
      <point x="40" y="67" type="line"/>
      <point x="366" y="-14" type="line" smooth="yes"/>
      <point x="475" y="-41"/>
      <point x="584" y="-2"/>
    </contour>
    <contour>
      <point x="350" y="666" type="line"/>
      <point x="459" y="639" type="line" smooth="yes"/>
      <point x="529" y="622"/>
      <point x="579" y="559"/>
      <point x="558" y="474" type="curve" smooth="yes"/>
      <point x="537" y="389"/>
      <point x="463" y="358"/>
      <point x="393" y="375" type="curve" smooth="yes"/>
      <point x="285" y="402" type="line"/>
    </contour>
    <contour>
      <point x="351" y="39" type="curve" smooth="yes"/>
      <point x="203" y="76" type="line"/>
      <point x="273" y="356" type="line"/>
      <point x="420" y="319" type="line" smooth="yes"/>
      <point x="490" y="301"/>
      <point x="541" y="239"/>
      <point x="518" y="146" type="curve" smooth="yes"/>
      <point x="494" y="53"/>
      <point x="421" y="22"/>
    </contour>
  </outline>
</glyph>
<glyph name="C" format="1">
  <advance width="678"/>
  <unicode hex="0043"/>
  <outline>
    <contour>
      <point x="697" y="142" type="curve"/>
      <point x="666" y="149" type="line"/>
      <point x="577" y="23"/>
      <point x="476" y="15"/>
      <point x="390" y="37" type="curve" smooth="yes"/>
      <point x="274" y="66"/>
      <point x="185" y="187"/>
      <point x="235" y="389" type="curve" smooth="yes"/>
      <point x="283" y="583"/>
      <point x="424" y="667"/>
      <point x="540" y="638" type="curve" smooth="yes"/>
      <point x="630" y="616"/>
      <point x="697" y="506"/>
      <point x="689" y="424" type="curve"/>
      <point x="720" y="416" type="line"/>
      <point x="770" y="618" type="line"/>
      <point x="747" y="624" type="line"/>
      <point x="688" y="588" type="line"/>
      <point x="656" y="638"/>
      <point x="608" y="675"/>
      <point x="553" y="689" type="curve" smooth="yes"/>
      <point x="374" y="733"/>
      <point x="196" y="646"/>
      <point x="138" y="413" type="curve" smooth="yes"/>
      <point x="80" y="180"/>
      <point x="196" y="19"/>
      <point x="344" y="-18" type="curve" smooth="yes"/>
      <point x="491" y="-54"/>
      <point x="616" y="-16"/>
    </contour>
  </outline>
</glyph>
<glyph name="D" format="1">
  <advance width="684"/>
  <unicode hex="0044"/>
  <outline>
    <contour>
      <point x="491" y="688" type="curve" smooth="yes"/>
      <point x="212" y="758" type="line"/>
      <point x="206" y="735" type="line"/>
      <point x="262" y="696" type="line"/>
      <point x="115" y="106" type="line"/>
      <point x="47" y="98" type="line"/>
      <point x="41" y="75" type="line"/>
      <point x="321" y="5" type="line" smooth="yes"/>
      <point x="476" y="-33"/>
      <point x="658" y="37"/>
      <point x="716" y="269" type="curve" smooth="yes"/>
      <point x="774" y="502"/>
      <point x="646" y="650"/>
    </contour>
    <contour>
      <point x="479" y="642" type="line" smooth="yes"/>
      <point x="573" y="619"/>
      <point x="673" y="511"/>
      <point x="619" y="294" type="curve" smooth="yes"/>
      <point x="565" y="76"/>
      <point x="425" y="29"/>
      <point x="332" y="52" type="curve" smooth="yes"/>
      <point x="204" y="84" type="line"/>
      <point x="351" y="674" type="line"/>
    </contour>
  </outline>
</glyph>
<glyph name="E" format="1">
  <advance width="600"/>
  <unicode hex="0045"/>
  <outline>
    <contour>
      <point x="619" y="137" type="line"/>
      <point x="595" y="157" type="line"/>
      <point x="467" y="8" type="line"/>
      <point x="203" y="74" type="line"/>
      <point x="276" y="369" type="line"/>
      <point x="443" y="327" type="line"/>
      <point x="455" y="242" type="line"/>
      <point x="478" y="236" type="line"/>
      <point x="529" y="438" type="line"/>
      <point x="505" y="443" type="line"/>
      <point x="455" y="374" type="line"/>
      <point x="288" y="415" type="line"/>
      <point x="350" y="664" type="line"/>
      <point x="598" y="602" type="line"/>
      <point x="633" y="445" type="line"/>
      <point x="664" y="451" type="line"/>
      <point x="672" y="633" type="line"/>
      <point x="210" y="748" type="line"/>
      <point x="204" y="725" type="line"/>
      <point x="261" y="686" type="line"/>
      <point x="114" y="96" type="line"/>
      <point x="46" y="88" type="line"/>
      <point x="40" y="65" type="line"/>
      <point x="525" y="-56" type="line"/>
    </contour>
  </outline>
</glyph>
<glyph name="F" format="1">
  <advance width="568"/>
  <unicode hex="0046"/>
  <outline>
    <contour>
      <point x="259" y="31" type="line"/>
      <point x="202" y="70" type="line"/>
      <point x="276" y="365" type="line"/>
      <point x="443" y="323" type="line"/>
      <point x="455" y="238" type="line"/>
      <point x="478" y="232" type="line"/>
      <point x="528" y="434" type="line"/>
      <point x="505" y="440" type="line"/>
      <point x="455" y="370" type="line"/>
      <point x="288" y="411" type="line"/>
      <point x="350" y="660" type="line"/>
      <point x="598" y="598" type="line"/>
      <point x="633" y="441" type="line"/>
      <point x="664" y="447" type="line"/>
      <point x="672" y="629" type="line"/>
      <point x="210" y="744" type="line"/>
      <point x="204" y="721" type="line"/>
      <point x="260" y="682" type="line"/>
      <point x="113" y="92" type="line"/>
      <point x="45" y="84" type="line"/>
      <point x="39" y="61" type="line"/>
      <point x="253" y="8" type="line"/>
    </contour>
  </outline>
</glyph>
<glyph name="G" format="1">
  <advance width="692"/>
  <unicode hex="0047"/>
  <outline>
    <contour>
      <point x="670" y="233" type="line"/>
      <point x="738" y="240" type="line"/>
      <point x="744" y="264" type="line"/>
      <point x="530" y="317" type="line"/>
      <point x="524" y="294" type="line"/>
      <point x="581" y="255" type="line"/>
      <point x="530" y="53" type="line"/>
      <point x="486" y="21"/>
      <point x="440" y="18"/>
      <point x="389" y="31" type="curve" smooth="yes"/>
      <point x="272" y="60"/>
      <point x="185" y="189"/>
      <point x="235" y="390" type="curve" smooth="yes"/>
      <point x="284" y="584"/>
      <point x="424" y="669"/>
      <point x="541" y="640" type="curve" smooth="yes"/>
      <point x="630" y="618"/>
      <point x="697" y="508"/>
      <point x="689" y="426" type="curve"/>
      <point x="720" y="418" type="line"/>
      <point x="771" y="620" type="line"/>
      <point x="747" y="626" type="line"/>
      <point x="688" y="590" type="line"/>
      <point x="656" y="639"/>
      <point x="608" y="677"/>
      <point x="553" y="690" type="curve" smooth="yes"/>
      <point x="375" y="735"/>
      <point x="196" y="647"/>
      <point x="138" y="415" type="curve" smooth="yes"/>
      <point x="80" y="182"/>
      <point x="197" y="21"/>
      <point x="344" y="-16" type="curve" smooth="yes"/>
      <point x="422" y="-36"/>
      <point x="481" y="-30"/>
      <point x="531" y="2" type="curve"/>
      <point x="565" y="-55" type="line"/>
      <point x="596" y="-62" type="line"/>
    </contour>
  </outline>
</glyph>
<glyph name="H" format="1">
  <advance width="672"/>
  <unicode hex="0048"/>
  <outline>
    <contour>
      <point x="631" y="-74" type="line"/>
      <point x="637" y="-50" type="line"/>
      <point x="580" y="-11" type="line"/>
      <point x="728" y="578" type="line"/>
      <point x="795" y="586" type="line"/>
      <point x="801" y="610" type="line"/>
      <point x="588" y="663" type="line"/>
      <point x="582" y="639" type="line"/>
      <point x="638" y="601" type="line"/>
      <point x="576" y="352" type="line"/>
      <point x="289" y="424" type="line"/>
      <point x="351" y="672" type="line"/>
      <point x="419" y="680" type="line"/>
      <point x="425" y="703" type="line"/>
      <point x="211" y="757" type="line"/>
      <point x="206" y="733" type="line"/>
      <point x="262" y="695" type="line"/>
      <point x="115" y="105" type="line"/>
      <point x="47" y="97" type="line"/>
      <point x="41" y="74" type="line"/>
      <point x="254" y="20" type="line"/>
      <point x="260" y="44" type="line"/>
      <point x="204" y="82" type="line"/>
      <point x="278" y="377" type="line"/>
      <point x="565" y="306" type="line"/>
      <point x="491" y="11" type="line"/>
      <point x="423" y="3" type="line"/>
      <point x="418" y="-20" type="line"/>
    </contour>
  </outline>
</glyph>
<glyph name="I" format="1">
  <advance width="284"/>
  <unicode hex="0049"/>
  <outline>
    <contour>
      <point x="255" y="-3" type="line"/>
      <point x="198" y="35" type="line"/>
      <point x="345" y="625" type="line"/>
      <point x="413" y="633" type="line"/>
      <point x="419" y="656" type="line"/>
      <point x="206" y="710" type="line"/>
      <point x="200" y="686" type="line"/>
      <point x="256" y="648" type="line"/>
      <point x="109" y="58" type="line"/>
      <point x="41" y="50" type="line"/>
      <point x="35" y="27" type="line"/>
      <point x="249" y="-27" type="line"/>
    </contour>
  </outline>
</glyph>
<glyph name="J" format="1">
  <advance width="440"/>
  <unicode hex="004A"/>
  <outline>
    <contour>
      <point x="395" y="154" type="curve" smooth="yes"/>
      <point x="507" y="605" type="line"/>
      <point x="577" y="620" type="line"/>
      <point x="580" y="636" type="line"/>
      <point x="367" y="689" type="line"/>
      <point x="363" y="673" type="line"/>
      <point x="418" y="627" type="line"/>
      <point x="298" y="146" type="line" smooth="yes"/>
      <point x="274" y="52"/>
      <point x="207" y="36"/>
      <point x="162" y="48" type="curve" smooth="yes"/>
      <point x="139" y="53"/>
      <point x="125" y="57"/>
      <point x="114" y="66" type="curve"/>
      <point x="123" y="73"/>
      <point x="130" y="83"/>
      <point x="133" y="96" type="curve" smooth="yes"/>
      <point x="140" y="127"/>
      <point x="123" y="156"/>
      <point x="92" y="164" type="curve" smooth="yes"/>
      <point x="61" y="172"/>
      <point x="32" y="154"/>
      <point x="24" y="123" type="curve"/>
      <point x="24" y="121"/>
      <point x="23" y="120"/>
      <point x="23" y="118" type="curve"/>
      <point x="23" y="121"/>
      <point x="23" y="119"/>
      <point x="23" y="117" type="curve" smooth="yes"/>
      <point x="23" y="116"/>
      <point x="22" y="114"/>
      <point x="22" y="113" type="curve"/>
      <point x="22" y="113"/>
      <point x="22" y="112"/>
      <point x="22" y="112" type="curve"/>
      <point x="19" y="62"/>
      <point x="78" y="19"/>
      <point x="158" y="-1" type="curve" smooth="yes"/>
      <point x="290" y="-34"/>
      <point x="367" y="46"/>
    </contour>
  </outline>
</glyph>
<glyph name="K" format="1">
  <advance width="576"/>
  <unicode hex="004B"/>
  <outline>
    <contour>
      <point x="567" y="-70" type="line"/>
      <point x="571" y="-54" type="line"/>
      <point x="517" y="-8" type="line"/>
      <point x="370" y="415" type="line"/>
      <point x="695" y="608" type="line"/>
      <point x="699" y="623" type="line"/>
      <point x="551" y="660" type="line"/>
      <point x="548" y="644" type="line"/>
      <point x="602" y="598" type="line"/>
      <point x="287" y="408" type="line"/>
      <point x="350" y="661" type="line"/>
      <point x="420" y="676" type="line"/>
      <point x="423" y="692" type="line"/>
      <point x="210" y="745" type="line"/>
      <point x="206" y="729" type="line"/>
      <point x="260" y="683" type="line"/>
      <point x="113" y="93" type="line"/>
      <point x="43" y="77" type="line"/>
      <point x="40" y="62" type="line"/>
      <point x="253" y="9" type="line"/>
      <point x="257" y="24" type="line"/>
      <point x="203" y="71" type="line"/>
      <point x="282" y="391" type="line"/>
      <point x="428" y="-35" type="line"/>
    </contour>
  </outline>
</glyph>
<glyph name="L" format="1">
  <advance width="544"/>
  <unicode hex="004C"/>
  <outline>
    <contour>
      <point x="587" y="138" type="line"/>
      <point x="563" y="158" type="line"/>
      <point x="435" y="9" type="line"/>
      <point x="202" y="67" type="line"/>
      <point x="349" y="657" type="line"/>
      <point x="417" y="665" type="line"/>
      <point x="423" y="688" type="line"/>
      <point x="209" y="741" type="line"/>
      <point x="204" y="718" type="line"/>
      <point x="260" y="679" type="line"/>
      <point x="113" y="89" type="line"/>
      <point x="45" y="81" type="line"/>
      <point x="39" y="58" type="line"/>
      <point x="493" y="-55" type="line"/>
    </contour>
  </outline>
</glyph>
<glyph name="M" format="1">
  <advance width="832"/>
  <unicode hex="004D"/>
  <outline>
    <contour>
      <point x="789" y="-93" type="line"/>
      <point x="792" y="-77" type="line"/>
      <point x="738" y="-31" type="line"/>
      <point x="885" y="559" type="line"/>
      <point x="955" y="575" type="line"/>
      <point x="959" y="590" type="line"/>
      <point x="889" y="608" type="line"/>
      <point x="835" y="621" type="line"/>
      <point x="440" y="121" type="line"/>
      <point x="338" y="745" type="line"/>
      <point x="276" y="761" type="line"/>
      <point x="214" y="776" type="line"/>
      <point x="210" y="760" type="line"/>
      <point x="262" y="706" type="line"/>
      <point x="117" y="124" type="line"/>
      <point x="47" y="108" type="line"/>
      <point x="43" y="93" type="line"/>
      <point x="222" y="48" type="line"/>
      <point x="226" y="64" type="line"/>
      <point x="171" y="110" type="line"/>
      <point x="283" y="556" type="line"/>
      <point x="373" y="11" type="line"/>
      <point x="408" y="2" type="line"/>
      <point x="760" y="437" type="line"/>
      <point x="649" y="-9" type="line"/>
      <point x="579" y="-24" type="line"/>
      <point x="575" y="-40" type="line"/>
    </contour>
  </outline>
</glyph>
<glyph name="N" format="1">
  <advance width="664"/>
  <unicode hex="004E"/>
  <outline>
    <contour>
      <point x="569" y="-59" type="line"/>
      <point x="726" y="570" type="line"/>
      <point x="795" y="585" type="line"/>
      <point x="801" y="609" type="line"/>
      <point x="615" y="655" type="line"/>
      <point x="609" y="632" type="line"/>
      <point x="663" y="585" type="line"/>
      <point x="548" y="124" type="line"/>
      <point x="351" y="721" type="line"/>
      <point x="304" y="732" type="line"/>
      <point x="211" y="756" type="line"/>
      <point x="205" y="732" type="line"/>
      <point x="260" y="686" type="line"/>
      <point x="117" y="111" type="line"/>
      <point x="47" y="96" type="line"/>
      <point x="41" y="73" type="line"/>
      <point x="227" y="26" type="line"/>
      <point x="233" y="49" type="line"/>
      <point x="179" y="96" type="line"/>
      <point x="303" y="593" type="line"/>
      <point x="507" y="-44" type="line"/>
    </contour>
  </outline>
</glyph>
<glyph name="O" format="1">
  <advance width="728"/>
  <unicode hex="004F"/>
  <outline>
    <contour>
      <point x="139" y="419" type="curve" smooth="yes"/>
      <point x="81" y="186"/>
      <point x="189" y="27"/>
      <point x="360" y="-16" type="curve" smooth="yes"/>
      <point x="535" y="-59"/>
      <point x="702" y="31"/>
      <point x="760" y="264" type="curve" smooth="yes"/>
      <point x="818" y="497"/>
      <point x="713" y="655"/>
      <point x="538" y="699" type="curve" smooth="yes"/>
      <point x="367" y="741"/>
      <point x="197" y="652"/>
    </contour>
    <contour>
      <point x="526" y="648" type="curve" smooth="yes"/>
      <point x="638" y="620"/>
      <point x="717" y="506"/>
      <point x="663" y="288" type="curve" smooth="yes"/>
      <point x="608" y="71"/>
      <point x="485" y="7"/>
      <point x="373" y="35" type="curve" smooth="yes"/>
      <point x="264" y="62"/>
      <point x="182" y="177"/>
      <point x="236" y="395" type="curve" smooth="yes"/>
      <point x="290" y="612"/>
      <point x="417" y="675"/>
    </contour>
  </outline>
</glyph>
<glyph name="P" format="1">
  <advance width="544"/>
  <unicode hex="0050"/>
  <outline>
    <contour>
      <point x="384" y="368" type="curve" smooth="yes"/>
      <point x="283" y="393" type="line"/>
      <point x="349" y="657" type="line"/>
      <point x="450" y="632" type="line" smooth="yes"/>
      <point x="520" y="614"/>
      <point x="570" y="552"/>
      <point x="549" y="467" type="curve" smooth="yes"/>
      <point x="528" y="381"/>
      <point x="454" y="350"/>
    </contour>
    <contour>
      <point x="243" y="32" type="line"/>
      <point x="202" y="67" type="line"/>
      <point x="272" y="346" type="line"/>
      <point x="400" y="314" type="line" smooth="yes"/>
      <point x="509" y="287"/>
      <point x="617" y="326"/>
      <point x="646" y="443" type="curve" smooth="yes"/>
      <point x="675" y="559"/>
      <point x="598" y="644"/>
      <point x="489" y="671" type="curve" smooth="yes"/>
      <point x="209" y="741" type="line"/>
      <point x="204" y="718" type="line"/>
      <point x="260" y="679" type="line"/>
      <point x="113" y="89" type="line"/>
      <point x="45" y="81" type="line"/>
      <point x="39" y="58" type="line"/>
      <point x="237" y="9" type="line"/>
    </contour>
  </outline>
</glyph>
<glyph name="Q" format="1">
  <advance width="736"/>
  <unicode hex="0051"/>
  <outline>
    <contour>
      <point x="706" y="-101" type="curve"/>
      <point x="694" y="-81" type="line"/>
      <point x="657" y="-97"/>
      <point x="640" y="-101"/>
      <point x="624" y="-97" type="curve" smooth="yes"/>
      <point x="599" y="-91"/>
      <point x="580" y="-67"/>
      <point x="564" y="-41" type="curve" smooth="yes"/>
      <point x="546" y="-10" type="line"/>
      <point x="645" y="25"/>
      <point x="727" y="115"/>
      <point x="764" y="264" type="curve" smooth="yes"/>
      <point x="822" y="497"/>
      <point x="717" y="655"/>
      <point x="542" y="699" type="curve" smooth="yes"/>
      <point x="371" y="741"/>
      <point x="201" y="652"/>
      <point x="143" y="419" type="curve" smooth="yes"/>
      <point x="85" y="186"/>
      <point x="193" y="27"/>
      <point x="364" y="-16" type="curve" smooth="yes"/>
      <point x="397" y="-24"/>
      <point x="431" y="-27"/>
      <point x="463" y="-26" type="curve"/>
      <point x="490" y="-72" type="line" smooth="yes"/>
      <point x="514" y="-111"/>
      <point x="537" y="-133"/>
      <point x="572" y="-142" type="curve" smooth="yes"/>
      <point x="624" y="-155"/>
      <point x="667" y="-124"/>
    </contour>
    <contour>
      <point x="459" y="134" type="line" smooth="yes"/>
      <point x="436" y="173"/>
      <point x="397" y="199"/>
      <point x="362" y="208" type="curve" smooth="yes"/>
      <point x="307" y="221"/>
      <point x="265" y="191"/>
      <point x="236" y="172" type="curve"/>
      <point x="218" y="228"/>
      <point x="217" y="302"/>
      <point x="240" y="395" type="curve" smooth="yes"/>
      <point x="294" y="612"/>
      <point x="421" y="675"/>
      <point x="530" y="648" type="curve" smooth="yes"/>
      <point x="642" y="620"/>
      <point x="721" y="506"/>
      <point x="667" y="288" type="curve" smooth="yes"/>
      <point x="634" y="157"/>
      <point x="576" y="82"/>
      <point x="510" y="49" type="curve"/>
    </contour>
    <contour>
      <point x="377" y="35" type="curve" smooth="yes"/>
      <point x="320" y="49"/>
      <point x="271" y="87"/>
      <point x="244" y="150" type="curve"/>
      <point x="256" y="155"/>
      <point x="288" y="168"/>
      <point x="325" y="159" type="curve" smooth="yes"/>
      <point x="349" y="153"/>
      <point x="369" y="130"/>
      <point x="385" y="103" type="curve" smooth="yes"/>
      <point x="430" y="29" type="line"/>
      <point x="412" y="28"/>
      <point x="394" y="31"/>
    </contour>
  </outline>
</glyph>
<glyph name="R" format="1">
  <advance width="624"/>
  <unicode hex="0052"/>
  <outline>
    <contour>
      <point x="401" y="374" type="curve" smooth="yes"/>
      <point x="285" y="403" type="line"/>
      <point x="350" y="667" type="line"/>
      <point x="467" y="637" type="line" smooth="yes"/>
      <point x="537" y="620"/>
      <point x="587" y="558"/>
      <point x="566" y="473" type="curve" smooth="yes"/>
      <point x="545" y="387"/>
      <point x="471" y="356"/>
    </contour>
    <contour>
      <point x="605" y="-48" type="line"/>
      <point x="549" y="-10" type="line"/>
      <point x="470" y="312" type="line"/>
      <point x="559" y="308"/>
      <point x="639" y="351"/>
      <point x="663" y="448" type="curve" smooth="yes"/>
      <point x="692" y="565"/>
      <point x="614" y="650"/>
      <point x="506" y="677" type="curve" smooth="yes"/>
      <point x="211" y="751" type="line"/>
      <point x="205" y="728" type="line"/>
      <point x="261" y="689" type="line"/>
      <point x="114" y="99" type="line"/>
      <point x="46" y="91" type="line"/>
      <point x="40" y="68" type="line"/>
      <point x="254" y="15" type="line"/>
      <point x="260" y="38" type="line"/>
      <point x="203" y="77" type="line"/>
      <point x="273" y="356" type="line"/>
      <point x="382" y="329" type="line"/>
      <point x="463" y="-38" type="line"/>
      <point x="599" y="-72" type="line"/>
    </contour>
  </outline>
</glyph>
<glyph name="S" format="1">
  <advance width="488"/>
  <unicode hex="0053"/>
  <outline>
    <contour>
      <point x="510" y="123" type="curve" smooth="yes"/>
      <point x="537" y="232"/>
      <point x="455" y="302"/>
      <point x="362" y="391" type="curve" smooth="yes"/>
      <point x="269" y="480"/>
      <point x="229" y="519"/>
      <point x="246" y="585" type="curve" smooth="yes"/>
      <point x="257" y="632"/>
      <point x="316" y="670"/>
      <point x="394" y="651" type="curve" smooth="yes"/>
      <point x="487" y="628"/>
      <point x="512" y="529"/>
      <point x="508" y="445" type="curve"/>
      <point x="539" y="438" type="line"/>
      <point x="589" y="640" type="line"/>
      <point x="566" y="645" type="line"/>
      <point x="512" y="613" type="line"/>
      <point x="487" y="652"/>
      <point x="448" y="683"/>
      <point x="397" y="696" type="curve" smooth="yes"/>
      <point x="265" y="729"/>
      <point x="183" y="665"/>
      <point x="158" y="566" type="curve" smooth="yes"/>
      <point x="135" y="472"/>
      <point x="214" y="401"/>
      <point x="322" y="298" type="curve" smooth="yes"/>
      <point x="416" y="209"/>
      <point x="420" y="162"/>
      <point x="409" y="116" type="curve" smooth="yes"/>
      <point x="393" y="53"/>
      <point x="352" y="19"/>
      <point x="266" y="40" type="curve" smooth="yes"/>
      <point x="158" y="67"/>
      <point x="108" y="199"/>
      <point x="124" y="294" type="curve"/>
      <point x="92" y="302" type="line"/>
      <point x="31" y="53" type="line"/>
      <point x="54" y="47" type="line"/>
      <point x="127" y="92" type="line"/>
      <point x="159" y="41"/>
      <point x="207" y="1"/>
      <point x="269" y="-15" type="curve" smooth="yes"/>
      <point x="393" y="-46"/>
      <point x="483" y="15"/>
    </contour>
  </outline>
</glyph>
<glyph name="T" format="1">
  <advance width="608"/>
  <unicode hex="0054"/>
  <outline>
    <contour>
      <point x="417" y="-3" type="line"/>
      <point x="360" y="35" type="line"/>
      <point x="507" y="625" type="line"/>
      <point x="649" y="590" type="line"/>
      <point x="688" y="448" type="line"/>
      <point x="723" y="456" type="line"/>
      <point x="715" y="623" type="line"/>
      <point x="234" y="743" type="line"/>
      <point x="148" y="599" type="line"/>
      <point x="176" y="576" type="line"/>
      <point x="276" y="683" type="line"/>
      <point x="418" y="648" type="line"/>
      <point x="271" y="58" type="line"/>
      <point x="203" y="50" type="line"/>
      <point x="197" y="27" type="line"/>
      <point x="411" y="-27" type="line"/>
    </contour>
  </outline>
</glyph>
<glyph name="U" format="1">
  <advance width="576"/>
  <unicode hex="0055"/>
  <outline>
    <contour>
      <point x="433" y="153" type="line" smooth="yes"/>
      <point x="414" y="76"/>
      <point x="299" y="34"/>
      <point x="252" y="46" type="curve" smooth="yes"/>
      <point x="206" y="58"/>
      <point x="123" y="148"/>
      <point x="142" y="226" type="curve" smooth="yes"/>
      <point x="257" y="684" type="line"/>
      <point x="324" y="692" type="line"/>
      <point x="330" y="715" type="line"/>
      <point x="117" y="768" type="line"/>
      <point x="111" y="745" type="line"/>
      <point x="167" y="706" type="line"/>
      <point x="59" y="271" type="line" smooth="yes"/>
      <point x="28" y="147"/>
      <point x="131" y="23"/>
      <point x="224" y="-1" type="curve" smooth="yes"/>
      <point x="317" y="-24"/>
      <point x="463" y="39"/>
      <point x="494" y="163" type="curve" smooth="yes"/>
      <point x="602" y="598" type="line"/>
      <point x="670" y="606" type="line"/>
      <point x="676" y="629" type="line"/>
      <point x="497" y="673" type="line"/>
      <point x="491" y="650" type="line"/>
      <point x="548" y="611" type="line"/>
    </contour>
  </outline>
</glyph>
<glyph name="V" format="1">
  <advance width="608"/>
  <unicode hex="0056"/>
  <outline>
    <contour>
      <point x="335" y="-8" type="line"/>
      <point x="711" y="575" type="line"/>
      <point x="779" y="582" type="line"/>
      <point x="785" y="606" type="line"/>
      <point x="606" y="650" type="line"/>
      <point x="600" y="627" type="line"/>
      <point x="657" y="588" type="line"/>
      <point x="380" y="154" type="line"/>
      <point x="311" y="674" type="line"/>
      <point x="379" y="682" type="line"/>
      <point x="385" y="705" type="line"/>
      <point x="164" y="761" type="line"/>
      <point x="158" y="737" type="line"/>
      <point x="214" y="698" type="line"/>
      <point x="304" y="0" type="line"/>
      <point x="327" y="-6" type="line"/>
    </contour>
  </outline>
</glyph>
<glyph name="W" format="1">
  <advance width="960"/>
  <unicode hex="0057"/>
  <outline>
    <contour>
      <point x="682" y="-50" type="line"/>
      <point x="1058" y="532" type="line"/>
      <point x="1126" y="540" type="line"/>
      <point x="1132" y="563" type="line"/>
      <point x="953" y="608" type="line"/>
      <point x="947" y="584" type="line"/>
      <point x="1004" y="546" type="line"/>
      <point x="727" y="111" type="line"/>
      <point x="658" y="632" type="line"/>
      <point x="726" y="639" type="line"/>
      <point x="732" y="663" type="line"/>
      <point x="511" y="718" type="line"/>
      <point x="505" y="695" type="line"/>
      <point x="561" y="656" type="line"/>
      <point x="581" y="503" type="line"/>
      <point x="385" y="196" type="line"/>
      <point x="317" y="717" type="line"/>
      <point x="384" y="725" type="line"/>
      <point x="390" y="748" type="line"/>
      <point x="169" y="803" type="line"/>
      <point x="163" y="780" type="line"/>
      <point x="220" y="741" type="line"/>
      <point x="309" y="43" type="line"/>
      <point x="325" y="39" type="line"/>
      <point x="340" y="35" type="line"/>
      <point x="591" y="423" type="line"/>
      <point x="651" y="-43" type="line"/>
      <point x="674" y="-48" type="line"/>
    </contour>
  </outline>
</glyph>
<glyph name="X" format="1">
  <advance width="608"/>
  <unicode hex="0058"/>
  <outline>
    <contour>
      <point x="614" y="-77" type="line"/>
      <point x="620" y="-54" type="line"/>
      <point x="564" y="-15" type="line"/>
      <point x="430" y="368" type="line"/>
      <point x="665" y="586" type="line"/>
      <point x="732" y="594" type="line"/>
      <point x="738" y="617" type="line"/>
      <point x="560" y="662" type="line"/>
      <point x="554" y="639" type="line"/>
      <point x="610" y="600" type="line"/>
      <point x="413" y="417" type="line"/>
      <point x="325" y="671" type="line"/>
      <point x="393" y="679" type="line"/>
      <point x="399" y="702" type="line"/>
      <point x="164" y="761" type="line"/>
      <point x="158" y="737" type="line"/>
      <point x="214" y="698" type="line"/>
      <point x="335" y="355" type="line"/>
      <point x="67" y="109" type="line"/>
      <point x="-1" y="101" type="line"/>
      <point x="-6" y="77" type="line"/>
      <point x="172" y="33" type="line"/>
      <point x="178" y="56" type="line"/>
      <point x="122" y="95" type="line"/>
      <point x="352" y="307" type="line"/>
      <point x="455" y="12" type="line"/>
      <point x="387" y="4" type="line"/>
      <point x="382" y="-19" type="line"/>
    </contour>
  </outline>
</glyph>
<glyph name="Y" format="1">
  <advance width="544"/>
  <unicode hex="0059"/>
  <outline>
    <contour>
      <point x="379" y="-27" type="line"/>
      <point x="385" y="-3" type="line"/>
      <point x="328" y="35" type="line"/>
      <point x="386" y="268" type="line"/>
      <point x="648" y="582" type="line"/>
      <point x="716" y="590" type="line"/>
      <point x="722" y="613" type="line"/>
      <point x="543" y="658" type="line"/>
      <point x="537" y="635" type="line"/>
      <point x="594" y="596" type="line"/>
      <point x="378" y="344" type="line"/>
      <point x="307" y="667" type="line"/>
      <point x="374" y="675" type="line"/>
      <point x="380" y="699" type="line"/>
      <point x="163" y="753" type="line"/>
      <point x="157" y="729" type="line"/>
      <point x="213" y="691" type="line"/>
      <point x="297" y="291" type="line"/>
      <point x="239" y="58" type="line"/>
      <point x="171" y="50" type="line"/>
      <point x="165" y="27" type="line"/>
    </contour>
  </outline>
</glyph>
<glyph name="Z" format="1">
  <advance width="528"/>
  <unicode hex="005A"/>
  <outline>
    <contour>
      <point x="477" y="-53" type="line"/>
      <point x="571" y="140" type="line"/>
      <point x="547" y="160" type="line"/>
      <point x="419" y="11" type="line"/>
      <point x="146" y="79" type="line"/>
      <point x="671" y="608" type="line"/>
      <point x="675" y="623" type="line"/>
      <point x="225" y="735" type="line"/>
      <point x="147" y="571" type="line"/>
      <point x="171" y="551" type="line"/>
      <point x="275" y="673" type="line"/>
      <point x="537" y="608" type="line"/>
      <point x="12" y="79" type="line"/>
      <point x="8" y="64" type="line"/>
    </contour>
  </outline>
</glyph>
<glyph name="backslash" format="1">
  <advance width="416"/>
  <unicode hex="005C"/>
  <outline>
    <contour>
      <point x="254" y="780" type="line"/>
      <point x="192" y="796" type="line"/>
      <point x="332" y="-97" type="line"/>
      <point x="394" y="-112" type="line"/>
    </contour>
  </outline>
</glyph>
<glyph name="bracketright" format="1">
  <advance width="272"/>
  <unicode hex="005D"/>
  <outline>
    <contour>
      <point x="345" y="673" type="line"/>
      <point x="175" y="-10" type="line"/>
      <point x="20" y="29" type="line"/>
      <point x="12" y="-2" type="line"/>
      <point x="229" y="-56" type="line"/>
      <point x="415" y="689" type="line"/>
      <point x="198" y="743" type="line"/>
      <point x="190" y="712" type="line"/>
    </contour>
  </outline>
</glyph>
<glyph name="asciicircum" format="1">
  <advance width="416"/>
  <unicode hex="005E"/>
  <outline>
    <contour>
      <point x="231" y="489" type="line"/>
      <point x="355" y="590" type="line"/>
      <point x="417" y="443" type="line"/>
      <point x="464" y="431" type="line"/>
      <point x="402" y="644" type="line"/>
      <point x="340" y="660" type="line"/>
      <point x="184" y="501" type="line"/>
    </contour>
  </outline>
</glyph>
<glyph name="underscore" format="1">
  <advance width="544"/>
  <unicode hex="005F"/>
  <outline>
    <contour>
      <point x="536" y="0" type="line"/>
      <point x="39" y="124" type="line"/>
      <point x="24" y="62" type="line"/>
      <point x="520" y="-62" type="line"/>
    </contour>
  </outline>
</glyph>
<glyph name="grave" format="1">
  <advance width="608"/>
  <unicode hex="0060"/>
  <outline>
    <contour>
      <point x="502" y="495" type="line"/>
      <point x="533" y="520" type="line"/>
      <point x="428" y="695" type="line" smooth="yes"/>
      <point x="420" y="707"/>
      <point x="408" y="716"/>
      <point x="393" y="720" type="curve" smooth="yes"/>
      <point x="362" y="728"/>
      <point x="333" y="710"/>
      <point x="325" y="679" type="curve" smooth="yes"/>
      <point x="319" y="657"/>
      <point x="326" y="636"/>
      <point x="342" y="623" type="curve"/>
      <point x="343" y="623"/>
      <point x="344" y="622"/>
      <point x="344" y="621" type="curve"/>
    </contour>
  </outline>
</glyph>
<glyph name="a" format="1">
  <advance width="444"/>
  <unicode hex="0061"/>
  <outline>
    <contour>
      <point x="422" y="-50" type="line"/>
      <point x="428" y="-27" type="line"/>
      <point x="404" y="12" type="line"/>
      <point x="468" y="268" type="line" smooth="yes"/>
      <point x="495" y="377"/>
      <point x="476" y="448"/>
      <point x="344" y="481" type="curve" smooth="yes"/>
      <point x="249" y="504"/>
      <point x="158" y="464"/>
      <point x="139" y="404" type="curve"/>
      <point x="139" y="401"/>
      <point x="139" y="403"/>
      <point x="139" y="404" type="curve"/>
      <point x="139" y="403"/>
      <point x="139" y="401"/>
      <point x="138" y="400" type="curve"/>
      <point x="131" y="369"/>
      <point x="148" y="340"/>
      <point x="179" y="332" type="curve" smooth="yes"/>
      <point x="210" y="325"/>
      <point x="239" y="342"/>
      <point x="247" y="373" type="curve" smooth="yes"/>
      <point x="252" y="392"/>
      <point x="247" y="411"/>
      <point x="235" y="424" type="curve"/>
      <point x="254" y="440"/>
      <point x="292" y="444"/>
      <point x="332" y="434" type="curve" smooth="yes"/>
      <point x="402" y="417"/>
      <point x="406" y="366"/>
      <point x="394" y="320" type="curve" smooth="yes"/>
      <point x="379" y="258" type="line"/>
      <point x="340" y="267" type="line" smooth="yes"/>
      <point x="197" y="303"/>
      <point x="92" y="263"/>
      <point x="69" y="170" type="curve" smooth="yes"/>
      <point x="51" y="100"/>
      <point x="84" y="18"/>
      <point x="193" y="-9" type="curve" smooth="yes"/>
      <point x="232" y="-19"/>
      <point x="275" y="-11"/>
      <point x="333" y="24" type="curve"/>
      <point x="321" y="-25" type="line"/>
    </contour>
    <contour>
      <point x="214" y="41" type="curve" smooth="yes"/>
      <point x="152" y="57"/>
      <point x="154" y="116"/>
      <point x="162" y="147" type="curve" smooth="yes"/>
      <point x="177" y="209"/>
      <point x="224" y="247"/>
      <point x="329" y="221" type="curve" smooth="yes"/>
      <point x="367" y="211" type="line"/>
      <point x="333" y="71" type="line"/>
      <point x="289" y="45"/>
      <point x="241" y="34"/>
    </contour>
  </outline>
</glyph>
<glyph name="b" format="1">
  <advance width="528"/>
  <unicode hex="0062"/>
  <outline>
    <contour>
      <point x="547" y="177" type="curve" smooth="yes"/>
      <point x="580" y="309"/>
      <point x="547" y="441"/>
      <point x="407" y="475" type="curve" smooth="yes"/>
      <point x="368" y="485"/>
      <point x="326" y="479"/>
      <point x="282" y="453" type="curve" smooth="yes"/>
      <point x="272" y="447" type="line"/>
      <point x="337" y="707" type="line"/>
      <point x="194" y="743" type="line"/>
      <point x="188" y="720" type="line"/>
      <point x="242" y="673" type="line"/>
      <point x="93" y="76" type="line"/>
      <point x="179" y="21" type="line" smooth="yes"/>
      <point x="200" y="8"/>
      <point x="252" y="-14"/>
      <point x="283" y="-21" type="curve" smooth="yes"/>
      <point x="423" y="-56"/>
      <point x="514" y="45"/>
    </contour>
    <contour>
      <point x="295" y="25" type="curve" smooth="yes"/>
      <point x="248" y="37"/>
      <point x="208" y="72"/>
      <point x="193" y="96" type="curve" smooth="yes"/>
      <point x="187" y="106" type="line"/>
      <point x="261" y="401" type="line"/>
      <point x="271" y="406" type="line"/>
      <point x="314" y="433"/>
      <point x="349" y="440"/>
      <point x="396" y="429" type="curve" smooth="yes"/>
      <point x="473" y="410"/>
      <point x="471" y="303"/>
      <point x="446" y="202" type="curve" smooth="yes"/>
      <point x="421" y="101"/>
      <point x="373" y="6"/>
    </contour>
  </outline>
</glyph>
<glyph name="c" format="1">
  <advance width="472"/>
  <unicode hex="0063"/>
  <outline>
    <contour>
      <point x="461" y="59" type="curve"/>
      <point x="441" y="77" type="line"/>
      <point x="411" y="55"/>
      <point x="360" y="19"/>
      <point x="290" y="36" type="curve" smooth="yes"/>
      <point x="228" y="51"/>
      <point x="152" y="112"/>
      <point x="189" y="259" type="curve" smooth="yes"/>
      <point x="226" y="406"/>
      <point x="302" y="445"/>
      <point x="364" y="430" type="curve" smooth="yes"/>
      <point x="389" y="424"/>
      <point x="433" y="407"/>
      <point x="443" y="377" type="curve"/>
      <point x="425" y="371"/>
      <point x="412" y="357"/>
      <point x="407" y="337" type="curve" smooth="yes"/>
      <point x="399" y="306"/>
      <point x="416" y="277"/>
      <point x="447" y="269" type="curve" smooth="yes"/>
      <point x="478" y="261"/>
      <point x="507" y="279"/>
      <point x="515" y="310" type="curve" smooth="yes"/>
      <point x="535" y="387"/>
      <point x="453" y="457"/>
      <point x="375" y="476" type="curve" smooth="yes"/>
      <point x="243" y="509"/>
      <point x="131" y="422"/>
      <point x="96" y="282" type="curve" smooth="yes"/>
      <point x="61" y="143"/>
      <point x="120" y="13"/>
      <point x="252" y="-20" type="curve" smooth="yes"/>
      <point x="368" y="-49"/>
      <point x="438" y="32"/>
    </contour>
  </outline>
</glyph>
<glyph name="d" format="1">
  <advance width="552"/>
  <unicode hex="0064"/>
  <outline>
    <contour>
      <point x="513" y="-59" type="line"/>
      <point x="519" y="-36" type="line"/>
      <point x="462" y="3" type="line"/>
      <point x="621" y="640" type="line"/>
      <point x="477" y="675" type="line"/>
      <point x="472" y="652" type="line"/>
      <point x="528" y="613" type="line"/>
      <point x="485" y="440" type="line"/>
      <point x="478" y="444" type="line" smooth="yes"/>
      <point x="456" y="458"/>
      <point x="408" y="478"/>
      <point x="377" y="486" type="curve" smooth="yes"/>
      <point x="245" y="519"/>
      <point x="132" y="432"/>
      <point x="97" y="292" type="curve" smooth="yes"/>
      <point x="62" y="152"/>
      <point x="121" y="22"/>
      <point x="253" y="-11" type="curve" smooth="yes"/>
      <point x="284" y="-18"/>
      <point x="333" y="-18"/>
      <point x="377" y="8" type="curve" smooth="yes"/>
      <point x="391" y="17" type="line"/>
      <point x="381" y="-26" type="line"/>
    </contour>
    <contour>
      <point x="264" y="36" type="curve" smooth="yes"/>
      <point x="202" y="51"/>
      <point x="154" y="121"/>
      <point x="190" y="269" type="curve" smooth="yes"/>
      <point x="227" y="416"/>
      <point x="303" y="455"/>
      <point x="365" y="440" type="curve" smooth="yes"/>
      <point x="412" y="428"/>
      <point x="432" y="410"/>
      <point x="458" y="367" type="curve" smooth="yes"/>
      <point x="464" y="357" type="line"/>
      <point x="389" y="54" type="line"/>
      <point x="345" y="28"/>
      <point x="303" y="26"/>
    </contour>
  </outline>
</glyph>
<glyph name="e" format="1">
  <advance width="497"/>
  <unicode hex="0065"/>
  <outline>
    <contour>
      <point x="434" y="267" type="curve"/>
      <point x="213" y="322" type="line"/>
      <point x="253" y="419"/>
      <point x="316" y="445"/>
      <point x="368" y="432" type="curve" smooth="yes"/>
      <point x="430" y="416"/>
      <point x="463" y="334"/>
    </contour>
    <contour>
      <point x="477" y="58" type="curve"/>
      <point x="457" y="76" type="line"/>
      <point x="424" y="51"/>
      <point x="368" y="20"/>
      <point x="302" y="36" type="curve" smooth="yes"/>
      <point x="240" y="52"/>
      <point x="157" y="114"/>
      <point x="194" y="261" type="curve" smooth="yes"/>
      <point x="195" y="266"/>
      <point x="196" y="272"/>
      <point x="198" y="277" type="curve"/>
      <point x="516" y="197" type="line"/>
      <point x="556" y="319"/>
      <point x="519" y="444"/>
      <point x="380" y="478" type="curve" smooth="yes"/>
      <point x="248" y="511"/>
      <point x="135" y="424"/>
      <point x="100" y="284" type="curve" smooth="yes"/>
      <point x="66" y="145"/>
      <point x="132" y="13"/>
      <point x="264" y="-20" type="curve" smooth="yes"/>
      <point x="380" y="-49"/>
      <point x="454" y="31"/>
    </contour>
  </outline>
</glyph>
<glyph name="f" format="1">
  <advance width="312"/>
  <unicode hex="0066"/>
  <outline>
    <contour>
      <point x="243" y="3" type="line"/>
      <point x="187" y="42" type="line"/>
      <point x="280" y="414" type="line"/>
      <point x="412" y="381" type="line"/>
      <point x="423" y="428" type="line"/>
      <point x="292" y="461" type="line"/>
      <point x="311" y="539" type="line" smooth="yes"/>
      <point x="327" y="603"/>
      <point x="375" y="661"/>
      <point x="424" y="651" type="curve"/>
      <point x="421" y="647"/>
      <point x="419" y="641"/>
      <point x="418" y="636" type="curve"/>
      <point x="410" y="605"/>
      <point x="427" y="575"/>
      <point x="458" y="568" type="curve" smooth="yes"/>
      <point x="489" y="560"/>
      <point x="518" y="577"/>
      <point x="526" y="609" type="curve"/>
      <point x="527" y="610"/>
      <point x="527" y="611"/>
      <point x="527" y="613" type="curve"/>
      <point x="527" y="611"/>
      <point x="527" y="613"/>
      <point x="528" y="616" type="curve"/>
      <point x="529" y="628"/>
      <point x="527" y="640"/>
      <point x="521" y="650" type="curve" smooth="yes"/>
      <point x="513" y="664"/>
      <point x="498" y="677"/>
      <point x="471" y="684" type="curve" smooth="yes"/>
      <point x="347" y="715"/>
      <point x="251" y="644"/>
      <point x="212" y="489" type="curve" smooth="yes"/>
      <point x="210" y="481" type="line"/>
      <point x="148" y="497" type="line"/>
      <point x="136" y="450" type="line"/>
      <point x="198" y="435" type="line"/>
      <point x="106" y="62" type="line"/>
      <point x="38" y="54" type="line"/>
      <point x="32" y="31" type="line"/>
      <point x="238" y="-20" type="line"/>
    </contour>
  </outline>
</glyph>
<glyph name="g" format="1">
  <advance width="512"/>
  <unicode hex="0067"/>
  <outline>
    <contour>
      <point x="423" y="288" type="curve" smooth="yes"/>
      <point x="407" y="226"/>
      <point x="361" y="188"/>
      <point x="306" y="202" type="curve" smooth="yes"/>
      <point x="256" y="214"/>
      <point x="229" y="271"/>
      <point x="244" y="333" type="curve" smooth="yes"/>
      <point x="262" y="403"/>
      <point x="310" y="432"/>
      <point x="361" y="419" type="curve" smooth="yes"/>
      <point x="415" y="406"/>
      <point x="440" y="358"/>
    </contour>
    <contour>
      <point x="458" y="-116" type="curve" smooth="yes"/>
      <point x="481" y="-23"/>
      <point x="427" y="40"/>
      <point x="322" y="66" type="curve" smooth="yes"/>
      <point x="174" y="103" type="line" smooth="yes"/>
      <point x="155" y="108"/>
      <point x="140" y="128"/>
      <point x="145" y="151" type="curve" smooth="yes"/>
      <point x="151" y="175"/>
      <point x="171" y="186"/>
      <point x="194" y="180" type="curve" smooth="yes"/>
      <point x="295" y="155" type="line" smooth="yes"/>
      <point x="419" y="124"/>
      <point x="491" y="181"/>
      <point x="512" y="266" type="curve" smooth="yes"/>
      <point x="520" y="300"/>
      <point x="520" y="334"/>
      <point x="508" y="364" type="curve"/>
      <point x="599" y="384" type="line"/>
      <point x="605" y="408" type="line"/>
      <point x="372" y="466" type="line" smooth="yes"/>
      <point x="252" y="496"/>
      <point x="176" y="440"/>
      <point x="155" y="355" type="curve" smooth="yes"/>
      <point x="142" y="304"/>
      <point x="153" y="254"/>
      <point x="188" y="215" type="curve"/>
      <point x="138" y="224"/>
      <point x="90" y="194"/>
      <point x="77" y="143" type="curve" smooth="yes"/>
      <point x="64" y="91"/>
      <point x="85" y="43"/>
      <point x="147" y="27" type="curve" smooth="yes"/>
      <point x="248" y="2" type="line" smooth="yes"/>
      <point x="341" y="-21"/>
      <point x="398" y="-60"/>
      <point x="384" y="-114" type="curve" smooth="yes"/>
      <point x="371" y="-169"/>
      <point x="293" y="-182"/>
      <point x="208" y="-161" type="curve" smooth="yes"/>
      <point x="155" y="-148"/>
      <point x="110" y="-121"/>
      <point x="94" y="-97" type="curve"/>
      <point x="110" y="-90"/>
      <point x="122" y="-76"/>
      <point x="126" y="-58" type="curve" smooth="yes"/>
      <point x="134" y="-27"/>
      <point x="116" y="2"/>
      <point x="85" y="10" type="curve" smooth="yes"/>
      <point x="54" y="17"/>
      <point x="25" y="0"/>
      <point x="17" y="-31" type="curve" smooth="yes"/>
      <point x="2" y="-93"/>
      <point x="70" y="-168"/>
      <point x="198" y="-200" type="curve" smooth="yes"/>
      <point x="334" y="-234"/>
      <point x="435" y="-209"/>
    </contour>
  </outline>
</glyph>
<glyph name="h" format="1">
  <advance width="544"/>
  <unicode hex="0068"/>
  <outline>
    <contour>
      <point x="513" y="-60" type="line"/>
      <point x="518" y="-37" type="line"/>
      <point x="462" y="2" type="line"/>
      <point x="524" y="250" type="line" smooth="yes"/>
      <point x="551" y="359"/>
      <point x="547" y="443"/>
      <point x="439" y="470" type="curve" smooth="yes"/>
      <point x="400" y="479"/>
      <point x="345" y="476"/>
      <point x="287" y="441" type="curve" smooth="yes"/>
      <point x="278" y="436" type="line"/>
      <point x="345" y="707" type="line"/>
      <point x="202" y="743" type="line"/>
      <point x="196" y="720" type="line"/>
      <point x="252" y="681" type="line"/>
      <point x="105" y="91" type="line"/>
      <point x="37" y="83" type="line"/>
      <point x="31" y="60" type="line"/>
      <point x="237" y="9" type="line"/>
      <point x="243" y="32" type="line"/>
      <point x="187" y="71" type="line"/>
      <point x="266" y="389" type="line"/>
      <point x="276" y="395" type="line" smooth="yes"/>
      <point x="319" y="421"/>
      <point x="363" y="431"/>
      <point x="394" y="423" type="curve" smooth="yes"/>
      <point x="441" y="411"/>
      <point x="466" y="364"/>
      <point x="446" y="286" type="curve" smooth="yes"/>
      <point x="381" y="22" type="line"/>
      <point x="313" y="15" type="line"/>
      <point x="307" y="-9" type="line"/>
    </contour>
  </outline>
</glyph>
<glyph name="i" format="1">
  <advance width="268"/>
  <unicode hex="0069"/>
  <outline>
    <contour>
      <point x="314" y="697" type="curve" smooth="yes"/>
      <point x="283" y="705"/>
      <point x="254" y="687"/>
      <point x="246" y="656" type="curve" smooth="yes"/>
      <point x="238" y="625"/>
      <point x="256" y="596"/>
      <point x="287" y="588" type="curve" smooth="yes"/>
      <point x="318" y="581"/>
      <point x="347" y="598"/>
      <point x="355" y="629" type="curve" smooth="yes"/>
      <point x="363" y="660"/>
      <point x="345" y="689"/>
    </contour>
    <contour>
      <point x="247" y="-3" type="line"/>
      <point x="190" y="35" type="line"/>
      <point x="295" y="455" type="line"/>
      <point x="151" y="490" type="line"/>
      <point x="145" y="467" type="line"/>
      <point x="202" y="428" type="line"/>
      <point x="109" y="56" type="line"/>
      <point x="41" y="48" type="line"/>
      <point x="35" y="25" type="line"/>
      <point x="241" y="-27" type="line"/>
    </contour>
  </outline>
</glyph>
<glyph name="j" format="1">
  <advance width="256"/>
  <unicode hex="006A"/>
  <outline>
    <contour>
      <point x="302" y="699" type="curve" smooth="yes"/>
      <point x="267" y="707"/>
      <point x="233" y="687"/>
      <point x="225" y="652" type="curve" smooth="yes"/>
      <point x="216" y="617"/>
      <point x="236" y="583"/>
      <point x="271" y="574" type="curve" smooth="yes"/>
      <point x="306" y="566"/>
      <point x="340" y="586"/>
      <point x="349" y="621" type="curve" smooth="yes"/>
      <point x="358" y="656"/>
      <point x="337" y="690"/>
    </contour>
    <contour>
      <point x="182" y="-14" type="curve" smooth="yes"/>
      <point x="298" y="452" type="line"/>
      <point x="155" y="488" type="line"/>
      <point x="149" y="465" type="line"/>
      <point x="203" y="418" type="line"/>
      <point x="93" y="-24" type="line" smooth="yes"/>
      <point x="70" y="-117"/>
      <point x="39" y="-150"/>
      <point x="-8" y="-137" type="curve"/>
      <point x="-5" y="-132"/>
      <point x="-2" y="-126"/>
      <point x="-1" y="-120" type="curve"/>
      <point x="7" y="-89"/>
      <point x="-11" y="-60"/>
      <point x="-42" y="-52" type="curve" smooth="yes"/>
      <point x="-73" y="-45"/>
      <point x="-102" y="-62"/>
      <point x="-110" y="-93" type="curve"/>
      <point x="-110" y="-95"/>
      <point x="-110" y="-96"/>
      <point x="-111" y="-98" type="curve"/>
      <point x="-110" y="-96"/>
      <point x="-111" y="-98"/>
      <point x="-111" y="-101" type="curve"/>
      <point x="-113" y="-113"/>
      <point x="-110" y="-125"/>
      <point x="-105" y="-135" type="curve"/>
      <point x="-97" y="-149"/>
      <point x="-82" y="-162"/>
      <point x="-54" y="-169" type="curve" smooth="yes"/>
      <point x="70" y="-200"/>
      <point x="151" y="-138"/>
    </contour>
  </outline>
</glyph>
<glyph name="k" format="1">
  <advance width="512"/>
  <unicode hex="006B"/>
  <outline>
    <contour>
      <point x="489" y="-58" type="line"/>
      <point x="495" y="-35" type="line"/>
      <point x="438" y="4" type="line"/>
      <point x="376" y="285" type="line"/>
      <point x="558" y="395" type="line"/>
      <point x="564" y="418" type="line"/>
      <point x="415" y="455" type="line"/>
      <point x="409" y="432" type="line"/>
      <point x="460" y="388" type="line"/>
      <point x="222" y="245" type="line"/>
      <point x="337" y="705" type="line"/>
      <point x="193" y="741" type="line"/>
      <point x="190" y="726" type="line"/>
      <point x="244" y="679" type="line"/>
      <point x="97" y="89" type="line"/>
      <point x="29" y="81" type="line"/>
      <point x="23" y="58" type="line"/>
      <point x="229" y="7" type="line"/>
      <point x="235" y="30" type="line"/>
      <point x="178" y="69" type="line"/>
      <point x="207" y="183" type="line"/>
      <point x="301" y="240" type="line"/>
      <point x="349" y="26" type="line"/>
      <point x="281" y="18" type="line"/>
      <point x="275" y="-5" type="line"/>
    </contour>
  </outline>
</glyph>
<glyph name="l" format="1">
  <advance width="260"/>
  <unicode hex="006C"/>
  <outline>
    <contour>
      <point x="239" y="-2" type="line"/>
      <point x="182" y="36" type="line"/>
      <point x="341" y="673" type="line"/>
      <point x="197" y="709" type="line"/>
      <point x="192" y="685" type="line"/>
      <point x="248" y="647" type="line"/>
      <point x="101" y="57" type="line"/>
      <point x="33" y="49" type="line"/>
      <point x="27" y="26" type="line"/>
      <point x="233" y="-26" type="line"/>
    </contour>
  </outline>
</glyph>
<glyph name="m" format="1">
  <advance width="780"/>
  <unicode hex="006D"/>
  <outline>
    <contour>
      <point x="745" y="-89" type="line"/>
      <point x="751" y="-65" type="line"/>
      <point x="695" y="-26" type="line"/>
      <point x="764" y="253" type="line" smooth="yes"/>
      <point x="784" y="331"/>
      <point x="799" y="409"/>
      <point x="696" y="435" type="curve" smooth="yes"/>
      <point x="659" y="444"/>
      <point x="601" y="442"/>
      <point x="543" y="407" type="curve" smooth="yes"/>
      <point x="530" y="399" type="line"/>
      <point x="531" y="443"/>
      <point x="513" y="481"/>
      <point x="448" y="497" type="curve" smooth="yes"/>
      <point x="411" y="506"/>
      <point x="353" y="504"/>
      <point x="295" y="469" type="curve" smooth="yes"/>
      <point x="275" y="457" type="line"/>
      <point x="291" y="519" type="line"/>
      <point x="159" y="552" type="line"/>
      <point x="153" y="529" type="line"/>
      <point x="209" y="490" type="line"/>
      <point x="116" y="118" type="line"/>
      <point x="48" y="110" type="line"/>
      <point x="43" y="87" type="line"/>
      <point x="248" y="35" type="line"/>
      <point x="254" y="59" type="line"/>
      <point x="198" y="97" type="line"/>
      <point x="278" y="420" type="line"/>
      <point x="283" y="422" type="line"/>
      <point x="332" y="452"/>
      <point x="374" y="457"/>
      <point x="403" y="450" type="curve" smooth="yes"/>
      <point x="444" y="440"/>
      <point x="450" y="397"/>
      <point x="438" y="351" type="curve" smooth="yes"/>
      <point x="353" y="9" type="line"/>
      <point x="497" y="-27" type="line"/>
      <point x="503" y="-3" type="line"/>
      <point x="446" y="35" type="line"/>
      <point x="516" y="315" type="line" smooth="yes"/>
      <point x="519" y="329"/>
      <point x="523" y="343"/>
      <point x="525" y="357" type="curve"/>
      <point x="531" y="360" type="line"/>
      <point x="580" y="390"/>
      <point x="623" y="395"/>
      <point x="652" y="388" type="curve" smooth="yes"/>
      <point x="692" y="378"/>
      <point x="698" y="335"/>
      <point x="687" y="289" type="curve" smooth="yes"/>
      <point x="602" y="-53" type="line"/>
    </contour>
  </outline>
</glyph>
<glyph name="n" format="1">
  <advance width="536"/>
  <unicode hex="006E"/>
  <outline>
    <contour>
      <point x="520" y="-63" type="line"/>
      <point x="526" y="-40" type="line"/>
      <point x="470" y="-1" type="line"/>
      <point x="532" y="248" type="line" smooth="yes"/>
      <point x="559" y="356"/>
      <point x="555" y="440"/>
      <point x="446" y="467" type="curve" smooth="yes"/>
      <point x="407" y="476"/>
      <point x="349" y="474"/>
      <point x="291" y="439" type="curve" smooth="yes"/>
      <point x="272" y="428" type="line"/>
      <point x="287" y="490" type="line"/>
      <point x="155" y="523" type="line"/>
      <point x="149" y="500" type="line"/>
      <point x="206" y="461" type="line"/>
      <point x="113" y="88" type="line"/>
      <point x="45" y="80" type="line"/>
      <point x="39" y="57" type="line"/>
      <point x="245" y="6" type="line"/>
      <point x="251" y="29" type="line"/>
      <point x="194" y="68" type="line"/>
      <point x="275" y="390" type="line"/>
      <point x="279" y="393" type="line"/>
      <point x="323" y="419"/>
      <point x="371" y="428"/>
      <point x="402" y="420" type="curve" smooth="yes"/>
      <point x="448" y="409"/>
      <point x="473" y="361"/>
      <point x="454" y="283" type="curve" smooth="yes"/>
      <point x="388" y="19" type="line"/>
      <point x="320" y="12" type="line"/>
      <point x="315" y="-12" type="line"/>
    </contour>
  </outline>
</glyph>
<glyph name="o" format="1">
  <advance width="520"/>
  <unicode hex="006F"/>
  <outline>
    <contour>
      <point x="535" y="179" type="curve" smooth="yes"/>
      <point x="570" y="318"/>
      <point x="512" y="448"/>
      <point x="380" y="481" type="curve" smooth="yes"/>
      <point x="248" y="514"/>
      <point x="136" y="427"/>
      <point x="101" y="287" type="curve" smooth="yes"/>
      <point x="66" y="147"/>
      <point x="124" y="17"/>
      <point x="256" y="-16" type="curve" smooth="yes"/>
      <point x="388" y="-48"/>
      <point x="501" y="39"/>
    </contour>
    <contour>
      <point x="442" y="202" type="curve" smooth="yes"/>
      <point x="405" y="54"/>
      <point x="330" y="16"/>
      <point x="268" y="31" type="curve" smooth="yes"/>
      <point x="206" y="47"/>
      <point x="157" y="116"/>
      <point x="194" y="264" type="curve" smooth="yes"/>
      <point x="231" y="411"/>
      <point x="306" y="450"/>
      <point x="368" y="435" type="curve" smooth="yes"/>
      <point x="430" y="419"/>
      <point x="479" y="349"/>
    </contour>
  </outline>
</glyph>
<glyph name="p" format="1">
  <advance width="542"/>
  <unicode hex="0070"/>
  <outline>
    <contour>
      <point x="287" y="29" type="curve" smooth="yes"/>
      <point x="241" y="40"/>
      <point x="221" y="58"/>
      <point x="194" y="102" type="curve" smooth="yes"/>
      <point x="188" y="111" type="line"/>
      <point x="264" y="414" type="line"/>
      <point x="308" y="440"/>
      <point x="349" y="442"/>
      <point x="388" y="433" type="curve" smooth="yes"/>
      <point x="450" y="417"/>
      <point x="499" y="347"/>
      <point x="462" y="200" type="curve" smooth="yes"/>
      <point x="425" y="52"/>
      <point x="350" y="13"/>
    </contour>
    <contour>
      <point x="189" y="-153" type="line"/>
      <point x="132" y="-114" type="line"/>
      <point x="168" y="29" type="line"/>
      <point x="175" y="24" type="line" smooth="yes"/>
      <point x="196" y="10"/>
      <point x="245" y="-10"/>
      <point x="276" y="-18" type="curve" smooth="yes"/>
      <point x="408" y="-51"/>
      <point x="520" y="37"/>
      <point x="555" y="177" type="curve" smooth="yes"/>
      <point x="590" y="316"/>
      <point x="532" y="446"/>
      <point x="400" y="479" type="curve" smooth="yes"/>
      <point x="369" y="487"/>
      <point x="319" y="487"/>
      <point x="276" y="461" type="curve" smooth="yes"/>
      <point x="261" y="452" type="line"/>
      <point x="272" y="495" type="line"/>
      <point x="140" y="527" type="line"/>
      <point x="134" y="504" type="line"/>
      <point x="190" y="465" type="line"/>
      <point x="51" y="-94" type="line"/>
      <point x="-17" y="-101" type="line"/>
      <point x="-23" y="-125" type="line"/>
      <point x="183" y="-176" type="line"/>
    </contour>
  </outline>
</glyph>
<glyph name="q" format="1">
  <advance width="528"/>
  <unicode hex="0071"/>
  <outline>
    <contour>
      <point x="458" y="-246" type="line"/>
      <point x="464" y="-223" type="line"/>
      <point x="408" y="-184" type="line"/>
      <point x="539" y="344" type="line"/>
      <point x="607" y="351" type="line"/>
      <point x="613" y="375" type="line"/>
      <point x="551" y="390" type="line"/>
      <point x="466" y="444" type="line" smooth="yes"/>
      <point x="444" y="458"/>
      <point x="392" y="479"/>
      <point x="361" y="487" type="curve" smooth="yes"/>
      <point x="221" y="522"/>
      <point x="130" y="421"/>
      <point x="97" y="289" type="curve" smooth="yes"/>
      <point x="64" y="157"/>
      <point x="97" y="25"/>
      <point x="237" y="-10" type="curve" smooth="yes"/>
      <point x="276" y="-19"/>
      <point x="318" y="-14"/>
      <point x="362" y="13" type="curve" smooth="yes"/>
      <point x="372" y="19" type="line"/>
      <point x="326" y="-164" type="line"/>
      <point x="258" y="-172" type="line"/>
      <point x="252" y="-195" type="line"/>
    </contour>
    <contour>
      <point x="248" y="37" type="curve" smooth="yes"/>
      <point x="171" y="56"/>
      <point x="173" y="163"/>
      <point x="198" y="264" type="curve" smooth="yes"/>
      <point x="223" y="365"/>
      <point x="271" y="460"/>
      <point x="349" y="440" type="curve" smooth="yes"/>
      <point x="396" y="429"/>
      <point x="436" y="394"/>
      <point x="451" y="370" type="curve" smooth="yes"/>
      <point x="457" y="360" type="line"/>
      <point x="383" y="65" type="line"/>
      <point x="374" y="59" type="line"/>
      <point x="330" y="33"/>
      <point x="295" y="25"/>
    </contour>
  </outline>
</glyph>
<glyph name="r" format="1">
  <advance width="384"/>
  <unicode hex="0072"/>
  <outline>
    <contour>
      <point x="248" y="11" type="line"/>
      <point x="192" y="49" type="line"/>
      <point x="246" y="267" type="line" smooth="yes"/>
      <point x="270" y="361"/>
      <point x="337" y="395"/>
      <point x="374" y="397" type="curve"/>
      <point x="372" y="370"/>
      <point x="389" y="347"/>
      <point x="417" y="340" type="curve" smooth="yes"/>
      <point x="448" y="332"/>
      <point x="477" y="349"/>
      <point x="485" y="380" type="curve" smooth="yes"/>
      <point x="492" y="412"/>
      <point x="475" y="441"/>
      <point x="444" y="448" type="curve" smooth="yes"/>
      <point x="391" y="462"/>
      <point x="313" y="452"/>
      <point x="260" y="372" type="curve"/>
      <point x="285" y="472" type="line"/>
      <point x="153" y="504" type="line"/>
      <point x="147" y="481" type="line"/>
      <point x="203" y="442" type="line"/>
      <point x="110" y="70" type="line"/>
      <point x="43" y="62" type="line"/>
      <point x="37" y="39" type="line"/>
      <point x="242" y="-13" type="line"/>
    </contour>
  </outline>
</glyph>
<glyph name="s" format="1">
  <advance width="384"/>
  <unicode hex="0073"/>
  <outline>
    <contour>
      <point x="386" y="84" type="curve" smooth="yes"/>
      <point x="400" y="138"/>
      <point x="384" y="199"/>
      <point x="313" y="254" type="curve" smooth="yes"/>
      <point x="251" y="303" type="line" smooth="yes"/>
      <point x="212" y="333"/>
      <point x="198" y="355"/>
      <point x="207" y="392" type="curve" smooth="yes"/>
      <point x="215" y="423"/>
      <point x="246" y="448"/>
      <point x="285" y="439" type="curve" smooth="yes"/>
      <point x="331" y="427"/>
      <point x="386" y="380"/>
      <point x="378" y="283" type="curve"/>
      <point x="401" y="278" type="line"/>
      <point x="409" y="276" type="line"/>
      <point x="448" y="431" type="line"/>
      <point x="425" y="437" type="line"/>
      <point x="392" y="417" type="line"/>
      <point x="365" y="458"/>
      <point x="330" y="477"/>
      <point x="296" y="485" type="curve" smooth="yes"/>
      <point x="234" y="501"/>
      <point x="153" y="471"/>
      <point x="130" y="378" type="curve" smooth="yes"/>
      <point x="116" y="324"/>
      <point x="144" y="270"/>
      <point x="199" y="227" type="curve" smooth="yes"/>
      <point x="261" y="179" type="line" smooth="yes"/>
      <point x="303" y="145"/>
      <point x="321" y="120"/>
      <point x="310" y="78" type="curve" smooth="yes"/>
      <point x="303" y="47"/>
      <point x="262" y="16"/>
      <point x="215" y="27" type="curve" smooth="yes"/>
      <point x="153" y="43"/>
      <point x="110" y="119"/>
      <point x="114" y="217" type="curve"/>
      <point x="91" y="223" type="line"/>
      <point x="83" y="225" type="line"/>
      <point x="37" y="39" type="line"/>
      <point x="60" y="33" type="line"/>
      <point x="104" y="59" type="line"/>
      <point x="133" y="13"/>
      <point x="172" y="-12"/>
      <point x="204" y="-19" type="curve" smooth="yes"/>
      <point x="305" y="-45"/>
      <point x="372" y="29"/>
    </contour>
  </outline>
</glyph>
<glyph name="t" format="1">
  <advance width="284"/>
  <unicode hex="0074"/>
  <outline>
    <contour>
      <point x="171" y="-24" type="curve" smooth="yes"/>
      <point x="233" y="-39"/>
      <point x="291" y="-4"/>
      <point x="307" y="58" type="curve"/>
      <point x="276" y="66" type="line"/>
      <point x="270" y="42"/>
      <point x="241" y="25"/>
      <point x="214" y="32" type="curve" smooth="yes"/>
      <point x="187" y="38"/>
      <point x="173" y="66"/>
      <point x="179" y="90" type="curve" smooth="yes"/>
      <point x="260" y="416" type="line"/>
      <point x="369" y="389" type="line"/>
      <point x="380" y="435" type="line"/>
      <point x="272" y="462" type="line"/>
      <point x="308" y="610" type="line"/>
      <point x="266" y="620" type="line"/>
      <point x="248" y="551"/>
      <point x="198" y="481"/>
      <point x="120" y="500" type="curve"/>
      <point x="109" y="454" type="line"/>
      <point x="179" y="436" type="line"/>
      <point x="97" y="110" type="line" smooth="yes"/>
      <point x="82" y="48"/>
      <point x="113" y="-9"/>
    </contour>
  </outline>
</glyph>
<glyph name="u" format="1">
  <advance width="512"/>
  <unicode hex="0075"/>
  <outline>
    <contour>
      <point x="489" y="-58" type="line"/>
      <point x="495" y="-35" type="line"/>
      <point x="438" y="4" type="line"/>
      <point x="543" y="423" type="line"/>
      <point x="399" y="459" type="line"/>
      <point x="393" y="436" type="line"/>
      <point x="450" y="397" type="line"/>
      <point x="369" y="75" type="line"/>
      <point x="326" y="49"/>
      <point x="273" y="37"/>
      <point x="242" y="45" type="curve" smooth="yes"/>
      <point x="196" y="56"/>
      <point x="171" y="104"/>
      <point x="190" y="181" type="curve" smooth="yes"/>
      <point x="267" y="492" type="line"/>
      <point x="124" y="528" type="line"/>
      <point x="118" y="504" type="line"/>
      <point x="174" y="466" type="line"/>
      <point x="112" y="217" type="line" smooth="yes"/>
      <point x="85" y="109"/>
      <point x="89" y="25"/>
      <point x="198" y="-2" type="curve" smooth="yes"/>
      <point x="237" y="-12"/>
      <point x="300" y="-7"/>
      <point x="353" y="25" type="curve" smooth="yes"/>
      <point x="372" y="37" type="line"/>
      <point x="357" y="-25" type="line"/>
    </contour>
  </outline>
</glyph>
<glyph name="v" format="1">
  <advance width="504"/>
  <unicode hex="0076"/>
  <outline>
    <contour>
      <point x="287" y="-9" type="line"/>
      <point x="562" y="368" type="line"/>
      <point x="630" y="376" type="line"/>
      <point x="636" y="399" type="line"/>
      <point x="463" y="442" type="line"/>
      <point x="457" y="419" type="line"/>
      <point x="514" y="380" type="line"/>
      <point x="313" y="110" type="line"/>
      <point x="267" y="441" type="line"/>
      <point x="335" y="449" type="line"/>
      <point x="341" y="473" type="line"/>
      <point x="131" y="525" type="line"/>
      <point x="126" y="501" type="line"/>
      <point x="182" y="463" type="line"/>
      <point x="248" y="1" type="line"/>
      <point x="271" y="-5" type="line"/>
    </contour>
  </outline>
</glyph>
<glyph name="w" format="1">
  <advance width="608"/>
  <unicode hex="0077"/>
  <outline>
    <contour>
      <point x="428" y="-31" type="line"/>
      <point x="703" y="346" type="line"/>
      <point x="771" y="353" type="line"/>
      <point x="777" y="377" type="line"/>
      <point x="604" y="420" type="line"/>
      <point x="599" y="396" type="line"/>
      <point x="655" y="358" type="line"/>
      <point x="456" y="89" type="line"/>
      <point x="440" y="411" type="line"/>
      <point x="507" y="419" type="line"/>
      <point x="513" y="443" type="line"/>
      <point x="304" y="495" type="line"/>
      <point x="298" y="471" type="line"/>
      <point x="354" y="433" type="line"/>
      <point x="362" y="332" type="line"/>
      <point x="245" y="142" type="line"/>
      <point x="199" y="471" type="line"/>
      <point x="267" y="479" type="line"/>
      <point x="273" y="503" type="line"/>
      <point x="63" y="555" type="line"/>
      <point x="57" y="531" type="line"/>
      <point x="114" y="493" type="line"/>
      <point x="180" y="31" type="line"/>
      <point x="211" y="23" type="line"/>
      <point x="219" y="21" type="line"/>
      <point x="368" y="257" type="line"/>
      <point x="389" y="-21" type="line"/>
      <point x="420" y="-29" type="line"/>
    </contour>
  </outline>
</glyph>
<glyph name="x" format="1">
  <advance width="504"/>
  <unicode hex="0078"/>
  <outline>
    <contour>
      <point x="489" y="-59" type="line"/>
      <point x="495" y="-36" type="line"/>
      <point x="440" y="11" type="line"/>
      <point x="353" y="239" type="line"/>
      <point x="506" y="374" type="line"/>
      <point x="576" y="389" type="line"/>
      <point x="582" y="413" type="line"/>
      <point x="403" y="457" type="line"/>
      <point x="397" y="434" type="line"/>
      <point x="452" y="387" type="line"/>
      <point x="336" y="285" type="line"/>
      <point x="281" y="430" type="line"/>
      <point x="351" y="445" type="line"/>
      <point x="356" y="469" type="line"/>
      <point x="139" y="523" type="line"/>
      <point x="133" y="500" type="line"/>
      <point x="188" y="453" type="line"/>
      <point x="265" y="249" type="line"/>
      <point x="91" y="98" type="line"/>
      <point x="21" y="82" type="line"/>
      <point x="15" y="59" type="line"/>
      <point x="194" y="15" type="line"/>
      <point x="200" y="38" type="line"/>
      <point x="145" y="84" type="line"/>
      <point x="283" y="204" type="line"/>
      <point x="347" y="34" type="line"/>
      <point x="277" y="18" type="line"/>
      <point x="271" y="-5" type="line"/>
    </contour>
  </outline>
</glyph>
<glyph name="y" format="1">
  <advance width="504"/>
  <unicode hex="0079"/>
  <outline>
    <contour>
      <point x="204" y="-103" type="curve" smooth="yes"/>
      <point x="531" y="376" type="line"/>
      <point x="599" y="383" type="line"/>
      <point x="605" y="407" type="line"/>
      <point x="432" y="450" type="line"/>
      <point x="426" y="426" type="line"/>
      <point x="483" y="388" type="line"/>
      <point x="302" y="123" type="line"/>
      <point x="267" y="441" type="line"/>
      <point x="335" y="449" type="line"/>
      <point x="341" y="473" type="line"/>
      <point x="131" y="525" type="line"/>
      <point x="126" y="501" type="line"/>
      <point x="182" y="463" type="line"/>
      <point x="231" y="20" type="line"/>
      <point x="155" y="-91" type="line" smooth="yes"/>
      <point x="136" y="-119"/>
      <point x="116" y="-131"/>
      <point x="101" y="-127" type="curve" smooth="yes"/>
      <point x="94" y="-125"/>
      <point x="88" y="-123"/>
      <point x="82" y="-119" type="curve"/>
      <point x="86" y="-114"/>
      <point x="89" y="-107"/>
      <point x="91" y="-100" type="curve" smooth="yes"/>
      <point x="99" y="-69"/>
      <point x="81" y="-40"/>
      <point x="50" y="-32" type="curve" smooth="yes"/>
      <point x="19" y="-24"/>
      <point x="-10" y="-42"/>
      <point x="-18" y="-73" type="curve" smooth="yes"/>
      <point x="-29" y="-120"/>
      <point x="12" y="-154"/>
      <point x="54" y="-165" type="curve" smooth="yes"/>
      <point x="112" y="-180"/>
      <point x="149" y="-182"/>
    </contour>
  </outline>
</glyph>
<glyph name="z" format="1">
  <advance width="408"/>
  <unicode hex="007A"/>
  <outline>
    <contour>
      <point x="363" y="-40" type="line"/>
      <point x="437" y="123" type="line"/>
      <point x="406" y="131" type="line"/>
      <point x="301" y="25" type="line"/>
      <point x="133" y="67" type="line"/>
      <point x="481" y="401" type="line"/>
      <point x="487" y="424" type="line"/>
      <point x="169" y="503" type="line"/>
      <point x="95" y="340" type="line"/>
      <point x="126" y="333" type="line"/>
      <point x="231" y="439" type="line"/>
      <point x="368" y="404" type="line"/>
      <point x="20" y="71" type="line"/>
      <point x="14" y="47" type="line"/>
    </contour>
  </outline>
</glyph>
<glyph name="braceleft" format="1">
  <advance width="272"/>
  <unicode hex="007B"/>
  <outline>
    <contour>
      <point x="268" y="693" type="line"/>
      <point x="423" y="654" type="line"/>
      <point x="430" y="685" type="line"/>
      <point x="213" y="739" type="line"/>
      <point x="27" y="-6" type="line"/>
      <point x="245" y="-60" type="line"/>
      <point x="252" y="-29" type="line"/>
      <point x="97" y="10" type="line"/>
    </contour>
  </outline>
</glyph>
<glyph name="bar" format="1">
  <advance width="192"/>
  <unicode hex="007C"/>
  <outline>
    <contour>
      <point x="313" y="737" type="line"/>
      <point x="251" y="753" type="line"/>
      <point x="19" y="-179" type="line"/>
      <point x="81" y="-194" type="line"/>
    </contour>
  </outline>
</glyph>
<glyph name="asciitilde" format="1">
  <advance width="608"/>
  <unicode hex="007E"/>
  <outline>
    <contour>
      <point x="164" y="299" type="line"/>
      <point x="201" y="314"/>
      <point x="238" y="330"/>
      <point x="284" y="318" type="curve" smooth="yes"/>
      <point x="331" y="307"/>
      <point x="389" y="210"/>
      <point x="451" y="194" type="curve" smooth="yes"/>
      <point x="513" y="179"/>
      <point x="570" y="206"/>
      <point x="607" y="221" type="curve"/>
      <point x="591" y="291" type="line"/>
      <point x="554" y="276"/>
      <point x="517" y="260"/>
      <point x="471" y="272" type="curve" smooth="yes"/>
      <point x="424" y="283"/>
      <point x="366" y="380"/>
      <point x="304" y="396" type="curve" smooth="yes"/>
      <point x="242" y="411"/>
      <point x="185" y="384"/>
      <point x="149" y="369" type="curve"/>
    </contour>
  </outline>
</glyph>
<glyph name="exclamdown" format="1">
  <advance width="192"/>
  <unicode hex="00A1"/>
  <outline>
    <contour>
      <point x="317" y="621" type="curve" smooth="yes"/>
      <point x="326" y="656"/>
      <point x="305" y="690"/>
      <point x="270" y="699" type="curve" smooth="yes"/>
      <point x="235" y="707"/>
      <point x="201" y="687"/>
      <point x="193" y="652" type="curve" smooth="yes"/>
      <point x="184" y="617"/>
      <point x="204" y="583"/>
      <point x="239" y="574" type="curve" smooth="yes"/>
      <point x="274" y="566"/>
      <point x="308" y="586"/>
    </contour>
    <contour>
      <point x="160" y="25" type="curve"/>
      <point x="161" y="28"/>
      <point x="161" y="30"/>
      <point x="161" y="33" type="curve"/>
      <point x="243" y="491" type="line"/>
      <point x="197" y="503" type="line"/>
      <point x="54" y="60" type="line" smooth="yes"/>
      <point x="53" y="57"/>
      <point x="52" y="55"/>
      <point x="51" y="52" type="curve"/>
      <point x="44" y="21"/>
      <point x="61" y="-8"/>
      <point x="92" y="-16" type="curve" smooth="yes"/>
      <point x="123" y="-23"/>
      <point x="152" y="-6"/>
    </contour>
  </outline>
</glyph>
<glyph name="cent" format="1">
  <advance width="440"/>
  <unicode hex="00A2"/>
  <outline>
    <contour>
      <point x="189" y="255" type="curve" smooth="yes"/>
      <point x="221" y="383"/>
      <point x="269" y="438"/>
      <point x="324" y="434" type="curve"/>
      <point x="229" y="54" type="line"/>
      <point x="187" y="83"/>
      <point x="161" y="145"/>
    </contour>
    <contour>
      <point x="422" y="65" type="curve"/>
      <point x="395" y="88" type="line"/>
      <point x="371" y="61"/>
      <point x="336" y="20"/>
      <point x="267" y="38" type="curve"/>
      <point x="264" y="39"/>
      <point x="261" y="39"/>
      <point x="259" y="40" type="curve"/>
      <point x="355" y="427" type="line"/>
      <point x="411" y="407"/>
      <point x="426" y="360"/>
      <point x="396" y="325" type="curve"/>
      <point x="395" y="324"/>
      <point x="394" y="323"/>
      <point x="393" y="322" type="curve"/>
      <point x="387" y="315"/>
      <point x="383" y="307"/>
      <point x="381" y="298" type="curve" smooth="yes"/>
      <point x="373" y="267"/>
      <point x="391" y="238"/>
      <point x="422" y="230" type="curve" smooth="yes"/>
      <point x="453" y="222"/>
      <point x="482" y="240"/>
      <point x="490" y="271" type="curve" smooth="yes"/>
      <point x="510" y="352"/>
      <point x="458" y="443"/>
      <point x="367" y="474" type="curve"/>
      <point x="387" y="552" type="line"/>
      <point x="355" y="560" type="line"/>
      <point x="336" y="482" type="line"/>
      <point x="212" y="503"/>
      <point x="119" y="407"/>
      <point x="88" y="280" type="curve" smooth="yes"/>
      <point x="56" y="154"/>
      <point x="93" y="25"/>
      <point x="212" y="-14" type="curve"/>
      <point x="193" y="-92" type="line"/>
      <point x="224" y="-100" type="line"/>
      <point x="243" y="-22" type="line"/>
      <point x="356" y="-42"/>
      <point x="399" y="39"/>
    </contour>
  </outline>
</glyph>
<glyph name="sterling" format="1">
  <advance width="602"/>
  <unicode hex="00A3"/>
  <outline>
    <contour>
      <point x="630" y="182" type="line"/>
      <point x="606" y="188" type="line"/>
      <point x="461" y="18" type="line"/>
      <point x="271" y="65" type="line"/>
      <point x="339" y="337" type="line"/>
      <point x="488" y="300" type="line"/>
      <point x="500" y="346" type="line"/>
      <point x="350" y="383" type="line"/>
      <point x="397" y="570" type="line" smooth="yes"/>
      <point x="412" y="632"/>
      <point x="449" y="656"/>
      <point x="480" y="648" type="curve" smooth="yes"/>
      <point x="496" y="644"/>
      <point x="511" y="640"/>
      <point x="501" y="601" type="curve" smooth="yes"/>
      <point x="494" y="570"/>
      <point x="511" y="541"/>
      <point x="542" y="533" type="curve" smooth="yes"/>
      <point x="573" y="526"/>
      <point x="602" y="543"/>
      <point x="610" y="574" type="curve" smooth="yes"/>
      <point x="628" y="644"/>
      <point x="546" y="679"/>
      <point x="507" y="691" type="curve"/>
      <point x="395" y="719"/>
      <point x="320" y="657"/>
      <point x="296" y="562" type="curve" smooth="yes"/>
      <point x="257" y="407" type="line"/>
      <point x="195" y="422" type="line"/>
      <point x="181" y="368" type="line"/>
      <point x="244" y="352" type="line"/>
      <point x="178" y="88" type="line"/>
      <point x="108" y="73" type="line"/>
      <point x="102" y="50" type="line"/>
      <point x="537" y="-59" type="line"/>
    </contour>
  </outline>
</glyph>
<glyph name="currency" format="1">
  <advance width="608"/>
  <unicode hex="00A4"/>
  <outline>
    <contour>
      <point x="599" y="190" type="curve"/>
      <point x="568" y="198" type="line"/>
      <point x="529" y="76"/>
      <point x="459" y="27"/>
      <point x="366" y="50" type="curve" smooth="yes"/>
      <point x="301" y="67"/>
      <point x="255" y="159"/>
      <point x="267" y="290" type="curve"/>
      <point x="463" y="241" type="line"/>
      <point x="506" y="280" type="line"/>
      <point x="274" y="337" type="line"/>
      <point x="276" y="348"/>
      <point x="278" y="358"/>
      <point x="280" y="369" type="curve"/>
      <point x="282" y="374"/>
      <point x="283" y="379"/>
      <point x="284" y="384" type="curve"/>
      <point x="548" y="318" type="line"/>
      <point x="591" y="357" type="line"/>
      <point x="298" y="430" type="line"/>
      <point x="341" y="566"/>
      <point x="406" y="651"/>
      <point x="494" y="629" type="curve" smooth="yes"/>
      <point x="569" y="610"/>
      <point x="620" y="540"/>
      <point x="606" y="419" type="curve"/>
      <point x="637" y="412" type="line"/>
      <point x="692" y="629" type="line"/>
      <point x="661" y="637" type="line"/>
      <point x="617" y="610" type="line"/>
      <point x="596" y="650"/>
      <point x="561" y="678"/>
      <point x="509" y="691" type="curve" smooth="yes"/>
      <point x="377" y="724"/>
      <point x="252" y="623"/>
      <point x="191" y="457" type="curve"/>
      <point x="172" y="462" type="line"/>
      <point x="129" y="423" type="line"/>
      <point x="176" y="411" type="line"/>
      <point x="174" y="406"/>
      <point x="173" y="401"/>
      <point x="172" y="396" type="curve"/>
      <point x="169" y="385"/>
      <point x="167" y="375"/>
      <point x="165" y="364" type="curve"/>
      <point x="149" y="369" type="line"/>
      <point x="106" y="330" type="line"/>
      <point x="158" y="317" type="line"/>
      <point x="139" y="149"/>
      <point x="203" y="9"/>
      <point x="331" y="-23" type="curve" smooth="yes"/>
      <point x="455" y="-54"/>
      <point x="560" y="35"/>
    </contour>
  </outline>
</glyph>
<glyph name="yen" format="1">
  <advance width="608"/>
  <unicode hex="00A5"/>
  <outline>
    <contour>
      <point x="418" y="-4" type="line"/>
      <point x="364" y="43" type="line"/>
      <point x="413" y="237" type="line"/>
      <point x="661" y="175" type="line"/>
      <point x="676" y="237" type="line"/>
      <point x="428" y="299" type="line"/>
      <point x="430" y="307" type="line"/>
      <point x="494" y="381" type="line"/>
      <point x="700" y="330" type="line"/>
      <point x="715" y="392" type="line"/>
      <point x="540" y="436" type="line"/>
      <point x="663" y="578" type="line"/>
      <point x="732" y="594" type="line"/>
      <point x="738" y="617" type="line"/>
      <point x="552" y="664" type="line"/>
      <point x="546" y="640" type="line"/>
      <point x="600" y="594" type="line"/>
      <point x="420" y="383" type="line"/>
      <point x="360" y="654" type="line"/>
      <point x="430" y="669" type="line"/>
      <point x="436" y="693" type="line"/>
      <point x="210" y="749" type="line"/>
      <point x="205" y="726" type="line"/>
      <point x="259" y="679" type="line"/>
      <point x="300" y="496" type="line"/>
      <point x="125" y="539" type="line"/>
      <point x="110" y="477" type="line"/>
      <point x="315" y="426" type="line"/>
      <point x="337" y="330" type="line"/>
      <point x="335" y="322" type="line"/>
      <point x="86" y="384" type="line"/>
      <point x="71" y="322" type="line"/>
      <point x="319" y="260" type="line"/>
      <point x="271" y="66" type="line"/>
      <point x="201" y="50" type="line"/>
      <point x="195" y="27" type="line"/>
      <point x="413" y="-27" type="line"/>
    </contour>
  </outline>
</glyph>
<glyph name="brokenbar" format="1">
  <advance width="608"/>
  <unicode hex="00A6"/>
  <outline>
    <contour>
      <point x="354" y="334" type="line"/>
      <point x="416" y="318" type="line"/>
      <point x="505" y="675" type="line"/>
      <point x="443" y="691" type="line"/>
    </contour>
    <contour>
      <point x="227" y="-179" type="line"/>
      <point x="289" y="-194" type="line"/>
      <point x="381" y="179" type="line"/>
      <point x="319" y="194" type="line"/>
    </contour>
  </outline>
</glyph>
<glyph name="section" format="1">
  <advance width="602"/>
  <unicode hex="00A7"/>
  <outline>
    <contour>
      <point x="271" y="399" type="curve" smooth="yes"/>
      <point x="278" y="430"/>
      <point x="316" y="453"/>
      <point x="355" y="443" type="curve" smooth="yes"/>
      <point x="389" y="435"/>
      <point x="411" y="404"/>
      <point x="444" y="356" type="curve" smooth="yes"/>
      <point x="480" y="304"/>
      <point x="495" y="264"/>
      <point x="486" y="230" type="curve" smooth="yes"/>
      <point x="477" y="192"/>
      <point x="441" y="173"/>
      <point x="402" y="183" type="curve" smooth="yes"/>
      <point x="369" y="191"/>
      <point x="344" y="221"/>
      <point x="311" y="273" type="curve" smooth="yes"/>
      <point x="278" y="324"/>
      <point x="260" y="357"/>
    </contour>
    <contour>
      <point x="247" y="224" type="curve" smooth="yes"/>
      <point x="314" y="129" type="line" smooth="yes"/>
      <point x="358" y="66"/>
      <point x="380" y="25"/>
      <point x="371" y="-12" type="curve" smooth="yes"/>
      <point x="361" y="-52"/>
      <point x="321" y="-76"/>
      <point x="269" y="-63" type="curve" smooth="yes"/>
      <point x="225" y="-52"/>
      <point x="204" y="-31"/>
      <point x="208" y="-15" type="curve" smooth="yes"/>
      <point x="212" y="1"/>
      <point x="244" y="2"/>
      <point x="252" y="34" type="curve" smooth="yes"/>
      <point x="259" y="61"/>
      <point x="243" y="86"/>
      <point x="215" y="93" type="curve" smooth="yes"/>
      <point x="183" y="101"/>
      <point x="155" y="83"/>
      <point x="146" y="47" type="curve" smooth="yes"/>
      <point x="133" y="-4"/>
      <point x="178" y="-65"/>
      <point x="256" y="-85" type="curve" smooth="yes"/>
      <point x="359" y="-110"/>
      <point x="433" y="-73"/>
      <point x="450" y="-5" type="curve" smooth="yes"/>
      <point x="462" y="41"/>
      <point x="442" y="94"/>
      <point x="394" y="158" type="curve"/>
      <point x="478" y="139"/>
      <point x="543" y="175"/>
      <point x="561" y="243" type="curve" smooth="yes"/>
      <point x="572" y="290"/>
      <point x="556" y="341"/>
      <point x="512" y="402" type="curve" smooth="yes"/>
      <point x="446" y="494" type="line" smooth="yes"/>
      <point x="401" y="555"/>
      <point x="376" y="598"/>
      <point x="387" y="642" type="curve" smooth="yes"/>
      <point x="397" y="683"/>
      <point x="432" y="703"/>
      <point x="481" y="691" type="curve" smooth="yes"/>
      <point x="518" y="682"/>
      <point x="537" y="657"/>
      <point x="534" y="644" type="curve" smooth="yes"/>
      <point x="530" y="627"/>
      <point x="495" y="621"/>
      <point x="488" y="593" type="curve" smooth="yes"/>
      <point x="482" y="570"/>
      <point x="498" y="546"/>
      <point x="526" y="539" type="curve" smooth="yes"/>
      <point x="558" y="531"/>
      <point x="588" y="550"/>
      <point x="596" y="582" type="curve" smooth="yes"/>
      <point x="609" y="637"/>
      <point x="569" y="696"/>
      <point x="488" y="716" type="curve" smooth="yes"/>
      <point x="397" y="739"/>
      <point x="325" y="697"/>
      <point x="308" y="628" type="curve" smooth="yes"/>
      <point x="295" y="577"/>
      <point x="318" y="532"/>
      <point x="363" y="467" type="curve"/>
      <point x="281" y="486"/>
      <point x="214" y="447"/>
      <point x="197" y="381" type="curve" smooth="yes"/>
      <point x="185" y="334"/>
      <point x="203" y="285"/>
    </contour>
  </outline>
</glyph>
<glyph name="dieresis" format="1">
  <advance width="608"/>
  <unicode hex="00A8"/>
  <outline>
    <contour>
      <point x="366" y="710" type="curve" smooth="yes"/>
      <point x="331" y="719"/>
      <point x="297" y="698"/>
      <point x="288" y="664" type="curve" smooth="yes"/>
      <point x="279" y="629"/>
      <point x="300" y="595"/>
      <point x="335" y="586" type="curve" smooth="yes"/>
      <point x="370" y="577"/>
      <point x="404" y="598"/>
      <point x="412" y="633" type="curve" smooth="yes"/>
      <point x="421" y="668"/>
      <point x="401" y="701"/>
    </contour>
    <contour>
      <point x="583" y="656" type="curve" smooth="yes"/>
      <point x="548" y="665"/>
      <point x="514" y="644"/>
      <point x="505" y="609" type="curve" smooth="yes"/>
      <point x="497" y="574"/>
      <point x="517" y="541"/>
      <point x="552" y="532" type="curve" smooth="yes"/>
      <point x="587" y="523"/>
      <point x="621" y="543"/>
      <point x="630" y="578" type="curve" smooth="yes"/>
      <point x="638" y="613"/>
      <point x="618" y="647"/>
    </contour>
  </outline>
</glyph>
<glyph name="copyright" format="1">
  <advance width="608"/>
  <unicode hex="00A9"/>
  <outline>
    <contour>
      <point x="102" y="397" type="curve" smooth="yes"/>
      <point x="78" y="300"/>
      <point x="103" y="203"/>
      <point x="170" y="130" type="curve" smooth="yes"/>
      <point x="208" y="88"/>
      <point x="257" y="59"/>
      <point x="313" y="45" type="curve" smooth="yes"/>
      <point x="389" y="26"/>
      <point x="464" y="38"/>
      <point x="530" y="78" type="curve" smooth="yes"/>
      <point x="597" y="119"/>
      <point x="644" y="183"/>
      <point x="663" y="257" type="curve" smooth="yes"/>
      <point x="681" y="331"/>
      <point x="669" y="412"/>
      <point x="631" y="475" type="curve" smooth="yes"/>
      <point x="591" y="541"/>
      <point x="525" y="588"/>
      <point x="453" y="606" type="curve" smooth="yes"/>
      <point x="377" y="625"/>
      <point x="300" y="613"/>
      <point x="233" y="574" type="curve" smooth="yes"/>
      <point x="167" y="533"/>
      <point x="120" y="470"/>
    </contour>
    <contour>
      <point x="441" y="559" type="curve" smooth="yes"/>
      <point x="504" y="544"/>
      <point x="556" y="506"/>
      <point x="589" y="450" type="curve" smooth="yes"/>
      <point x="621" y="397"/>
      <point x="632" y="331"/>
      <point x="616" y="268" type="curve" smooth="yes"/>
      <point x="601" y="206"/>
      <point x="563" y="154"/>
      <point x="507" y="120" type="curve" smooth="yes"/>
      <point x="451" y="87"/>
      <point x="385" y="77"/>
      <point x="325" y="92" type="curve" smooth="yes"/>
      <point x="263" y="107"/>
      <point x="211" y="147"/>
      <point x="177" y="203" type="curve" smooth="yes"/>
      <point x="145" y="256"/>
      <point x="133" y="323"/>
      <point x="149" y="385" type="curve" smooth="yes"/>
      <point x="164" y="445"/>
      <point x="204" y="499"/>
      <point x="260" y="533" type="curve" smooth="yes"/>
      <point x="315" y="566"/>
      <point x="379" y="575"/>
    </contour>
    <contour>
      <point x="444" y="223" type="line"/>
      <point x="417" y="207"/>
      <point x="383" y="201"/>
      <point x="354" y="208" type="curve" smooth="yes"/>
      <point x="323" y="216"/>
      <point x="297" y="237"/>
      <point x="279" y="264" type="curve"/>
      <point x="263" y="291"/>
      <point x="257" y="325"/>
      <point x="265" y="356" type="curve" smooth="yes"/>
      <point x="272" y="385"/>
      <point x="294" y="413"/>
      <point x="320" y="429" type="curve" smooth="yes"/>
      <point x="349" y="446"/>
      <point x="381" y="451"/>
      <point x="412" y="443" type="curve" smooth="yes"/>
      <point x="443" y="435"/>
      <point x="470" y="416"/>
      <point x="485" y="388" type="curve"/>
      <point x="539" y="420" type="line"/>
      <point x="511" y="459"/>
      <point x="472" y="490"/>
      <point x="427" y="501" type="curve" smooth="yes"/>
      <point x="378" y="513"/>
      <point x="331" y="504"/>
      <point x="288" y="482" type="curve"/>
      <point x="248" y="455"/>
      <point x="218" y="417"/>
      <point x="207" y="371" type="curve" smooth="yes"/>
      <point x="192" y="310"/>
      <point x="207" y="249"/>
      <point x="250" y="203" type="curve" smooth="yes"/>
      <point x="274" y="177"/>
      <point x="302" y="159"/>
      <point x="339" y="150" type="curve" smooth="yes"/>
      <point x="386" y="138"/>
      <point x="433" y="147"/>
      <point x="474" y="170" type="curve"/>
    </contour>
  </outline>
</glyph>
<glyph name="ordfeminine" format="1">
  <advance width="608"/>
  <unicode hex="00AA"/>
  <outline>
    <contour>
      <point x="543" y="237" type="line"/>
      <point x="547" y="257" type="line"/>
      <point x="503" y="293" type="line"/>
      <point x="554" y="500" type="line" smooth="yes"/>
      <point x="576" y="588"/>
      <point x="552" y="649"/>
      <point x="446" y="676" type="curve" smooth="yes"/>
      <point x="366" y="696"/>
      <point x="301" y="656"/>
      <point x="289" y="608" type="curve" smooth="yes"/>
      <point x="282" y="583"/>
      <point x="297" y="558"/>
      <point x="320" y="553" type="curve"/>
      <point x="345" y="546"/>
      <point x="370" y="561"/>
      <point x="376" y="586" type="curve" smooth="yes"/>
      <point x="379" y="598"/>
      <point x="377" y="610"/>
      <point x="372" y="619" type="curve"/>
      <point x="372" y="620" type="line"/>
      <point x="368" y="635"/>
      <point x="392" y="650"/>
      <point x="437" y="639" type="curve" smooth="yes"/>
      <point x="493" y="625"/>
      <point x="499" y="582"/>
      <point x="489" y="543" type="curve" smooth="yes"/>
      <point x="477" y="495" type="line"/>
      <point x="450" y="502" type="line" smooth="yes"/>
      <point x="331" y="531"/>
      <point x="245" y="499"/>
      <point x="226" y="423" type="curve" smooth="yes"/>
      <point x="212" y="365"/>
      <point x="237" y="301"/>
      <point x="326" y="279" type="curve" smooth="yes"/>
      <point x="359" y="271"/>
      <point x="383" y="277"/>
      <point x="432" y="306" type="curve" smooth="yes"/>
      <point x="442" y="312" type="line"/>
      <point x="430" y="265" type="line"/>
    </contour>
    <contour>
      <point x="350" y="316" type="curve" smooth="yes"/>
      <point x="299" y="329"/>
      <point x="301" y="378"/>
      <point x="308" y="403" type="curve" smooth="yes"/>
      <point x="320" y="452"/>
      <point x="355" y="484"/>
      <point x="440" y="463" type="curve" smooth="yes"/>
      <point x="467" y="456" type="line"/>
      <point x="441" y="349" type="line"/>
      <point x="407" y="329"/>
      <point x="371" y="311"/>
    </contour>
    <contour>
      <point x="529" y="175" type="line"/>
      <point x="187" y="260" type="line"/>
      <point x="172" y="198" type="line"/>
      <point x="513" y="113" type="line"/>
    </contour>
  </outline>
</glyph>
<glyph name="guillemotleft" format="1">
  <advance width="608"/>
  <unicode hex="00AB"/>
  <outline>
    <contour>
      <point x="312" y="97" type="line"/>
      <point x="207" y="272" type="line"/>
      <point x="381" y="376" type="line"/>
      <point x="358" y="415" type="line"/>
      <point x="137" y="322" type="line"/>
      <point x="121" y="260" type="line"/>
      <point x="273" y="74" type="line"/>
    </contour>
    <contour>
      <point x="560" y="35" type="line"/>
      <point x="455" y="210" type="line"/>
      <point x="630" y="315" type="line"/>
      <point x="606" y="353" type="line"/>
      <point x="385" y="260" type="line"/>
      <point x="370" y="198" type="line"/>
      <point x="521" y="12" type="line"/>
    </contour>
  </outline>
</glyph>
<glyph name="logicalnot" format="1">
  <advance width="602"/>
  <unicode hex="00AC"/>
  <outline>
    <contour>
      <point x="579" y="112" type="line"/>
      <point x="645" y="376" type="line"/>
      <point x="179" y="492" type="line"/>
      <point x="164" y="430" type="line"/>
      <point x="568" y="329" type="line"/>
      <point x="517" y="127" type="line"/>
    </contour>
  </outline>
</glyph>
<glyph name="registered" format="1">
  <advance width="602"/>
  <unicode hex="00AE"/>
  <outline>
    <contour>
      <point x="102" y="395" type="curve" smooth="yes"/>
      <point x="78" y="299"/>
      <point x="102" y="202"/>
      <point x="169" y="129" type="curve" smooth="yes"/>
      <point x="207" y="87"/>
      <point x="257" y="57"/>
      <point x="312" y="44" type="curve" smooth="yes"/>
      <point x="388" y="25"/>
      <point x="464" y="37"/>
      <point x="529" y="77" type="curve" smooth="yes"/>
      <point x="597" y="118"/>
      <point x="644" y="181"/>
      <point x="662" y="255" type="curve" smooth="yes"/>
      <point x="681" y="329"/>
      <point x="668" y="410"/>
      <point x="630" y="475" type="curve" smooth="yes"/>
      <point x="590" y="540"/>
      <point x="525" y="587"/>
      <point x="452" y="605" type="curve" smooth="yes"/>
      <point x="377" y="624"/>
      <point x="299" y="613"/>
      <point x="232" y="573" type="curve" smooth="yes"/>
      <point x="166" y="533"/>
      <point x="120" y="470"/>
    </contour>
    <contour>
      <point x="440" y="559" type="curve" smooth="yes"/>
      <point x="502" y="543"/>
      <point x="555" y="505"/>
      <point x="588" y="450" type="curve" smooth="yes"/>
      <point x="621" y="395"/>
      <point x="631" y="329"/>
      <point x="616" y="267" type="curve" smooth="yes"/>
      <point x="601" y="206"/>
      <point x="562" y="153"/>
      <point x="506" y="119" type="curve" smooth="yes"/>
      <point x="451" y="86"/>
      <point x="385" y="76"/>
      <point x="324" y="91" type="curve" smooth="yes"/>
      <point x="262" y="107"/>
      <point x="210" y="145"/>
      <point x="177" y="201" type="curve" smooth="yes"/>
      <point x="144" y="256"/>
      <point x="133" y="322"/>
      <point x="148" y="383" type="curve" smooth="yes"/>
      <point x="163" y="444"/>
      <point x="203" y="497"/>
      <point x="258" y="531" type="curve" smooth="yes"/>
      <point x="314" y="565"/>
      <point x="379" y="574"/>
    </contour>
    <contour>
      <point x="371" y="448" type="line"/>
      <point x="399" y="441" type="line" smooth="yes"/>
      <point x="440" y="431"/>
      <point x="458" y="413"/>
      <point x="450" y="383" type="curve" smooth="yes"/>
      <point x="443" y="354"/>
      <point x="418" y="345"/>
      <point x="376" y="355" type="curve" smooth="yes"/>
      <point x="349" y="362" type="line"/>
    </contour>
    <contour>
      <point x="317" y="233" type="line"/>
      <point x="337" y="313" type="line"/>
      <point x="345" y="310" type="line"/>
      <point x="367" y="305"/>
      <point x="370" y="297"/>
      <point x="381" y="267" type="curve" smooth="yes"/>
      <point x="412" y="180" type="line" smooth="yes"/>
      <point x="418" y="162"/>
      <point x="423" y="151"/>
      <point x="440" y="147" type="curve" smooth="yes"/>
      <point x="469" y="140" type="line"/>
      <point x="480" y="192" type="line"/>
      <point x="470" y="195" type="line"/>
      <point x="439" y="282" type="line" smooth="yes"/>
      <point x="436" y="290"/>
      <point x="433" y="296"/>
      <point x="431" y="299" type="curve"/>
      <point x="471" y="303"/>
      <point x="501" y="328"/>
      <point x="511" y="366" type="curve" smooth="yes"/>
      <point x="527" y="433"/>
      <point x="489" y="474"/>
      <point x="399" y="496" type="curve" smooth="yes"/>
      <point x="322" y="516" type="line"/>
      <point x="308" y="464" type="line"/>
      <point x="315" y="462" type="line"/>
      <point x="262" y="247" type="line"/>
      <point x="255" y="249" type="line"/>
      <point x="242" y="196" type="line"/>
      <point x="313" y="178" type="line"/>
      <point x="327" y="231" type="line"/>
    </contour>
  </outline>
</glyph>
<glyph name="macron" format="1">
  <advance width="608"/>
  <unicode hex="00AF"/>
  <outline>
    <contour>
      <point x="599" y="586" type="line"/>
      <point x="319" y="656" type="line"/>
      <point x="304" y="594" type="line"/>
      <point x="583" y="524" type="line"/>
    </contour>
  </outline>
</glyph>
<glyph name="degree" format="1">
  <advance width="602"/>
  <unicode hex="00B0"/>
  <outline>
    <contour>
      <point x="304" y="593" type="curve" smooth="yes"/>
      <point x="285" y="517"/>
      <point x="333" y="437"/>
      <point x="408" y="418" type="curve" smooth="yes"/>
      <point x="486" y="399"/>
      <point x="564" y="448"/>
      <point x="583" y="523" type="curve" smooth="yes"/>
      <point x="602" y="599"/>
      <point x="556" y="679"/>
      <point x="478" y="698" type="curve" smooth="yes"/>
      <point x="402" y="717"/>
      <point x="322" y="669"/>
    </contour>
    <contour>
      <point x="366" y="578" type="curve" smooth="yes"/>
      <point x="376" y="620"/>
      <point x="420" y="646"/>
      <point x="463" y="636" type="curve" smooth="yes"/>
      <point x="505" y="625"/>
      <point x="532" y="582"/>
      <point x="521" y="539" type="curve" smooth="yes"/>
      <point x="510" y="496"/>
      <point x="467" y="470"/>
      <point x="424" y="481" type="curve" smooth="yes"/>
      <point x="381" y="491"/>
      <point x="355" y="535"/>
    </contour>
  </outline>
</glyph>
<glyph name="plusminus" format="1">
  <advance width="544"/>
  <unicode hex="00B1"/>
  <outline>
    <contour>
      <point x="353" y="260" type="line"/>
      <point x="380" y="369" type="line"/>
      <point x="318" y="384" type="line"/>
      <point x="291" y="276" type="line"/>
      <point x="105" y="322" type="line"/>
      <point x="89" y="260" type="line"/>
      <point x="276" y="213" type="line"/>
      <point x="249" y="105" type="line"/>
      <point x="311" y="89" type="line"/>
      <point x="338" y="198" type="line"/>
      <point x="524" y="152" type="line"/>
      <point x="540" y="214" type="line"/>
    </contour>
    <contour>
      <point x="505" y="-58" type="line"/>
      <point x="520" y="4" type="line"/>
      <point x="55" y="120" type="line"/>
      <point x="39" y="58" type="line"/>
    </contour>
  </outline>
</glyph>
<glyph name="twosuperior" format="1">
  <advance width="602"/>
  <unicode hex="00B2"/>
  <outline>
    <contour>
      <point x="282" y="315" type="line"/>
      <point x="459" y="397"/>
      <point x="580" y="398"/>
      <point x="604" y="497" type="curve" smooth="yes"/>
      <point x="622" y="570"/>
      <point x="574" y="634"/>
      <point x="474" y="659" type="curve" smooth="yes"/>
      <point x="357" y="688"/>
      <point x="282" y="652"/>
      <point x="265" y="583" type="curve" smooth="yes"/>
      <point x="256" y="547"/>
      <point x="274" y="515"/>
      <point x="313" y="505" type="curve" smooth="yes"/>
      <point x="345" y="497"/>
      <point x="368" y="512"/>
      <point x="373" y="532" type="curve" smooth="yes"/>
      <point x="384" y="578"/>
      <point x="321" y="580"/>
      <point x="326" y="601" type="curve" smooth="yes"/>
      <point x="332" y="624"/>
      <point x="375" y="646"/>
      <point x="443" y="629" type="curve" smooth="yes"/>
      <point x="505" y="614"/>
      <point x="531" y="579"/>
      <point x="519" y="532" type="curve" smooth="yes"/>
      <point x="496" y="441"/>
      <point x="371" y="418"/>
      <point x="180" y="298" type="curve"/>
      <point x="173" y="273" type="line"/>
      <point x="517" y="187" type="line"/>
      <point x="567" y="324" type="line"/>
      <point x="530" y="334" type="line"/>
      <point x="497" y="274"/>
      <point x="495" y="262"/>
      <point x="459" y="271" type="curve" smooth="yes"/>
    </contour>
  </outline>
</glyph>
<glyph name="threesuperior" format="1">
  <advance width="602"/>
  <unicode hex="00B3"/>
  <outline>
    <contour>
      <point x="484" y="439" type="curve"/>
      <point x="550" y="446"/>
      <point x="584" y="467"/>
      <point x="597" y="517" type="curve" smooth="yes"/>
      <point x="612" y="579"/>
      <point x="567" y="639"/>
      <point x="469" y="663" type="curve" smooth="yes"/>
      <point x="367" y="689"/>
      <point x="300" y="656"/>
      <point x="286" y="602" type="curve" smooth="yes"/>
      <point x="279" y="571"/>
      <point x="294" y="548"/>
      <point x="324" y="540" type="curve" smooth="yes"/>
      <point x="355" y="533"/>
      <point x="377" y="544"/>
      <point x="382" y="566" type="curve" smooth="yes"/>
      <point x="390" y="597"/>
      <point x="360" y="610"/>
      <point x="363" y="620" type="curve"/>
      <point x="365" y="630"/>
      <point x="395" y="643"/>
      <point x="447" y="630" type="curve" smooth="yes"/>
      <point x="504" y="616"/>
      <point x="527" y="584"/>
      <point x="515" y="537" type="curve" smooth="yes"/>
      <point x="500" y="477"/>
      <point x="468" y="460"/>
      <point x="409" y="475" type="curve" smooth="yes"/>
      <point x="387" y="481"/>
      <point x="373" y="486"/>
      <point x="367" y="488" type="curve"/>
      <point x="348" y="492"/>
      <point x="338" y="487"/>
      <point x="334" y="473" type="curve"/>
      <point x="332" y="461"/>
      <point x="340" y="452"/>
      <point x="356" y="448" type="curve" smooth="yes"/>
      <point x="367" y="445"/>
      <point x="382" y="445"/>
      <point x="401" y="440" type="curve" smooth="yes"/>
      <point x="465" y="424"/>
      <point x="489" y="391"/>
      <point x="474" y="329" type="curve" smooth="yes"/>
      <point x="457" y="260"/>
      <point x="417" y="238"/>
      <point x="338" y="258" type="curve" smooth="yes"/>
      <point x="288" y="270"/>
      <point x="260" y="297"/>
      <point x="263" y="310" type="curve" smooth="yes"/>
      <point x="268" y="329"/>
      <point x="305" y="317"/>
      <point x="314" y="352" type="curve" smooth="yes"/>
      <point x="321" y="381"/>
      <point x="305" y="402"/>
      <point x="276" y="409" type="curve" smooth="yes"/>
      <point x="241" y="418"/>
      <point x="211" y="401"/>
      <point x="202" y="363" type="curve" smooth="yes"/>
      <point x="189" y="310"/>
      <point x="236" y="246"/>
      <point x="343" y="219" type="curve" smooth="yes"/>
      <point x="458" y="191"/>
      <point x="543" y="227"/>
      <point x="561" y="298" type="curve" smooth="yes"/>
      <point x="576" y="357"/>
      <point x="550" y="403"/>
    </contour>
  </outline>
</glyph>
<glyph name="acute" format="1">
  <advance width="602"/>
  <unicode hex="00B4"/>
  <outline>
    <contour>
      <point x="362" y="529" type="line"/>
      <point x="560" y="567" type="line" smooth="yes"/>
      <point x="581" y="570"/>
      <point x="599" y="586"/>
      <point x="604" y="609" type="curve" smooth="yes"/>
      <point x="612" y="640"/>
      <point x="595" y="669"/>
      <point x="563" y="677" type="curve" smooth="yes"/>
      <point x="548" y="680"/>
      <point x="533" y="678"/>
      <point x="521" y="671" type="curve" smooth="yes"/>
      <point x="346" y="566" type="line"/>
    </contour>
  </outline>
</glyph>
<glyph name="mu" format="1">
  <advance width="602"/>
  <unicode hex="00B5"/>
  <outline>
    <contour>
      <point x="469" y="27" type="line"/>
      <point x="626" y="348" type="line"/>
      <point x="553" y="367" type="line"/>
      <point x="454" y="158" type="line" smooth="yes"/>
      <point x="421" y="90"/>
      <point x="335" y="51"/>
      <point x="258" y="71" type="curve" smooth="yes"/>
      <point x="207" y="83"/>
      <point x="187" y="111"/>
      <point x="198" y="152" type="curve"/>
      <point x="200" y="162"/>
      <point x="207" y="176"/>
      <point x="216" y="194" type="curve" smooth="yes"/>
      <point x="334" y="433" type="line"/>
      <point x="335" y="436"/>
      <point x="336" y="438"/>
      <point x="337" y="440" type="curve"/>
      <point x="339" y="451"/>
      <point x="332" y="457"/>
      <point x="317" y="461" type="curve" smooth="yes"/>
      <point x="234" y="481" type="line"/>
      <point x="205" y="420" type="line"/>
      <point x="243" y="410" type="line"/>
      <point x="15" y="-63" type="line"/>
      <point x="79" y="-93" type="line"/>
      <point x="146" y="58" type="line"/>
      <point x="162" y="33"/>
      <point x="185" y="18"/>
      <point x="219" y="9" type="curve" smooth="yes"/>
      <point x="278" y="-6"/>
      <point x="335" y="4"/>
      <point x="396" y="37" type="curve"/>
      <point x="378" y="6" type="line"/>
      <point x="376" y="2"/>
      <point x="374" y="-1"/>
      <point x="374" y="-3" type="curve"/>
      <point x="371" y="-13"/>
      <point x="378" y="-19"/>
      <point x="393" y="-23" type="curve" smooth="yes"/>
      <point x="468" y="-42" type="line"/>
      <point x="499" y="20" type="line"/>
    </contour>
  </outline>
</glyph>
<glyph name="paragraph" format="1">
  <advance width="602"/>
  <unicode hex="00B6"/>
  <outline>
    <contour>
      <point x="680" y="582" type="line"/>
      <point x="692" y="628" type="line"/>
      <point x="443" y="690" type="line" smooth="yes"/>
      <point x="327" y="719"/>
      <point x="241" y="674"/>
      <point x="216" y="574" type="curve" smooth="yes"/>
      <point x="191" y="473"/>
      <point x="253" y="391"/>
      <point x="362" y="364" type="curve"/>
      <point x="273" y="7" type="line"/>
      <point x="335" y="-8" type="line"/>
      <point x="494" y="628" type="line"/>
      <point x="571" y="609" type="line"/>
      <point x="413" y="-28" type="line"/>
      <point x="475" y="-43" type="line"/>
      <point x="633" y="593" type="line"/>
    </contour>
  </outline>
</glyph>
<glyph name="periodcentered" format="1">
  <advance width="256"/>
  <unicode hex="00B7"/>
  <outline>
    <contour>
      <point x="229" y="404" type="curve" smooth="yes"/>
      <point x="194" y="412"/>
      <point x="160" y="392"/>
      <point x="151" y="357" type="curve" smooth="yes"/>
      <point x="142" y="322"/>
      <point x="163" y="288"/>
      <point x="198" y="279" type="curve" smooth="yes"/>
      <point x="233" y="271"/>
      <point x="267" y="291"/>
      <point x="275" y="326" type="curve" smooth="yes"/>
      <point x="284" y="361"/>
      <point x="264" y="395"/>
    </contour>
  </outline>
</glyph>
<glyph name="cedilla" format="1">
  <advance width="608"/>
  <unicode hex="00B8"/>
  <outline>
    <contour>
      <point x="263" y="-89" type="line"/>
      <point x="279" y="-91"/>
      <point x="289" y="-93"/>
      <point x="295" y="-95" type="curve"/>
      <point x="326" y="-102"/>
      <point x="339" y="-122"/>
      <point x="333" y="-147" type="curve" smooth="yes"/>
      <point x="326" y="-175"/>
      <point x="307" y="-186"/>
      <point x="270" y="-177" type="curve" smooth="yes"/>
      <point x="241" y="-170"/>
      <point x="203" y="-148"/>
      <point x="169" y="-113" type="curve"/>
      <point x="141" y="-151" type="line"/>
      <point x="192" y="-186"/>
      <point x="235" y="-212"/>
      <point x="274" y="-221" type="curve" smooth="yes"/>
      <point x="343" y="-239"/>
      <point x="389" y="-215"/>
      <point x="401" y="-164" type="curve" smooth="yes"/>
      <point x="413" y="-118"/>
      <point x="388" y="-77"/>
      <point x="338" y="-64" type="curve" smooth="yes"/>
      <point x="330" y="-62"/>
      <point x="318" y="-59"/>
      <point x="302" y="-57" type="curve"/>
      <point x="316" y="-3" type="line"/>
      <point x="287" y="4" type="line"/>
    </contour>
  </outline>
</glyph>
<glyph name="onesuperior" format="1">
  <advance width="602"/>
  <unicode hex="00B9"/>
  <outline>
    <contour>
      <point x="493" y="655" type="line"/>
      <point x="447" y="636"/>
      <point x="391" y="636"/>
      <point x="319" y="651" type="curve"/>
      <point x="311" y="617" type="line"/>
      <point x="387" y="598" type="line" smooth="yes"/>
      <point x="410" y="592"/>
      <point x="418" y="588"/>
      <point x="414" y="575" type="curve"/>
      <point x="345" y="296" type="line" smooth="yes"/>
      <point x="340" y="277"/>
      <point x="329" y="273"/>
      <point x="301" y="280" type="curve" smooth="yes"/>
      <point x="236" y="297" type="line"/>
      <point x="227" y="260" type="line"/>
      <point x="518" y="187" type="line"/>
      <point x="527" y="224" type="line"/>
      <point x="467" y="239" type="line" smooth="yes"/>
      <point x="431" y="248"/>
      <point x="419" y="253"/>
      <point x="425" y="276" type="curve" smooth="yes"/>
      <point x="517" y="649" type="line"/>
    </contour>
  </outline>
</glyph>
<glyph name="ordmasculine" format="1">
  <advance width="448"/>
  <unicode hex="00BA"/>
  <outline>
    <contour>
      <point x="154" y="512" type="curve" smooth="yes"/>
      <point x="129" y="411"/>
      <point x="185" y="307"/>
      <point x="294" y="279" type="curve" smooth="yes"/>
      <point x="402" y="252"/>
      <point x="501" y="318"/>
      <point x="526" y="419" type="curve" smooth="yes"/>
      <point x="552" y="520"/>
      <point x="495" y="625"/>
      <point x="387" y="652" type="curve" smooth="yes"/>
      <point x="278" y="679"/>
      <point x="179" y="613"/>
    </contour>
    <contour>
      <point x="375" y="605" type="curve" smooth="yes"/>
      <point x="437" y="590"/>
      <point x="443" y="514"/>
      <point x="426" y="444" type="curve" smooth="yes"/>
      <point x="408" y="375"/>
      <point x="367" y="311"/>
      <point x="305" y="326" type="curve" smooth="yes"/>
      <point x="243" y="342"/>
      <point x="237" y="417"/>
      <point x="255" y="487" type="curve" smooth="yes"/>
      <point x="272" y="557"/>
      <point x="313" y="621"/>
    </contour>
    <contour>
      <point x="449" y="175" type="line"/>
      <point x="107" y="260" type="line"/>
      <point x="92" y="198" type="line"/>
      <point x="433" y="113" type="line"/>
    </contour>
  </outline>
</glyph>
<glyph name="guillemotright" format="1">
  <advance width="608"/>
  <unicode hex="00BB"/>
  <outline>
    <contour>
      <point x="94" y="151" type="line"/>
      <point x="118" y="112" type="line"/>
      <point x="339" y="206" type="line"/>
      <point x="354" y="268" type="line"/>
      <point x="203" y="454" type="line"/>
      <point x="164" y="431" type="line"/>
      <point x="269" y="256" type="line"/>
    </contour>
    <contour>
      <point x="343" y="89" type="line"/>
      <point x="366" y="50" type="line"/>
      <point x="587" y="144" type="line"/>
      <point x="603" y="206" type="line"/>
      <point x="451" y="392" type="line"/>
      <point x="412" y="369" type="line"/>
      <point x="517" y="194" type="line"/>
    </contour>
  </outline>
</glyph>
<glyph name="onequarter" format="1">
  <advance width="602"/>
  <unicode hex="00BC"/>
  <outline>
    <contour>
      <point x="382" y="757" type="line"/>
      <point x="343" y="741"/>
      <point x="295" y="741"/>
      <point x="235" y="754" type="curve"/>
      <point x="228" y="726" type="line"/>
      <point x="293" y="710" type="line" smooth="yes"/>
      <point x="312" y="705"/>
      <point x="319" y="702"/>
      <point x="317" y="691" type="curve"/>
      <point x="259" y="459" type="line" smooth="yes"/>
      <point x="255" y="442"/>
      <point x="244" y="441"/>
      <point x="220" y="447" type="curve" smooth="yes"/>
      <point x="165" y="460" type="line"/>
      <point x="158" y="429" type="line"/>
      <point x="396" y="370" type="line"/>
      <point x="404" y="401" type="line"/>
      <point x="362" y="411" type="line" smooth="yes"/>
      <point x="332" y="419"/>
      <point x="321" y="423"/>
      <point x="326" y="442" type="curve" smooth="yes"/>
      <point x="403" y="752" type="line"/>
    </contour>
    <contour>
      <point x="688" y="453" type="line"/>
      <point x="62" y="238" type="line"/>
      <point x="76" y="198" type="line"/>
      <point x="701" y="414" type="line"/>
    </contour>
    <contour>
      <point x="491" y="158" type="line"/>
      <point x="456" y="17" type="line"/>
      <point x="324" y="50" type="line"/>
    </contour>
    <contour>
      <point x="553" y="244" type="line"/>
      <point x="276" y="61" type="line"/>
      <point x="268" y="27" type="line"/>
      <point x="446" y="-18" type="line"/>
      <point x="436" y="-59" type="line"/>
      <point x="432" y="-72"/>
      <point x="427" y="-76"/>
      <point x="407" y="-71" type="curve" smooth="yes"/>
      <point x="366" y="-61" type="line"/>
      <point x="359" y="-91" type="line"/>
      <point x="556" y="-140" type="line"/>
      <point x="563" y="-110" type="line"/>
      <point x="522" y="-100" type="line" smooth="yes"/>
      <point x="503" y="-95"/>
      <point x="499" y="-89"/>
      <point x="503" y="-76" type="curve"/>
      <point x="513" y="-33" type="line"/>
      <point x="590" y="-52" type="line"/>
      <point x="598" y="-18" type="line"/>
      <point x="522" y="1" type="line"/>
      <point x="581" y="237" type="line"/>
    </contour>
  </outline>
</glyph>
<glyph name="onehalf" format="1">
  <advance width="602"/>
  <unicode hex="00BD"/>
  <outline>
    <contour>
      <point x="382" y="757" type="line"/>
      <point x="343" y="741"/>
      <point x="295" y="741"/>
      <point x="235" y="754" type="curve"/>
      <point x="228" y="726" type="line"/>
      <point x="293" y="710" type="line" smooth="yes"/>
      <point x="312" y="705"/>
      <point x="319" y="702"/>
      <point x="317" y="691" type="curve"/>
      <point x="259" y="459" type="line" smooth="yes"/>
      <point x="255" y="442"/>
      <point x="244" y="441"/>
      <point x="220" y="447" type="curve" smooth="yes"/>
      <point x="165" y="460" type="line"/>
      <point x="158" y="429" type="line"/>
      <point x="396" y="370" type="line"/>
      <point x="404" y="401" type="line"/>
      <point x="362" y="411" type="line" smooth="yes"/>
      <point x="332" y="419"/>
      <point x="321" y="423"/>
      <point x="326" y="442" type="curve" smooth="yes"/>
      <point x="403" y="752" type="line"/>
    </contour>
    <contour>
      <point x="688" y="453" type="line"/>
      <point x="62" y="238" type="line"/>
      <point x="76" y="198" type="line"/>
      <point x="701" y="414" type="line"/>
    </contour>
    <contour>
      <point x="342" y="-29" type="line"/>
      <point x="497" y="41"/>
      <point x="593" y="36"/>
      <point x="615" y="125" type="curve" smooth="yes"/>
      <point x="629" y="180"/>
      <point x="588" y="234"/>
      <point x="503" y="256" type="curve" smooth="yes"/>
      <point x="405" y="280"/>
      <point x="341" y="252"/>
      <point x="327" y="194" type="curve" smooth="yes"/>
      <point x="319" y="163"/>
      <point x="335" y="137"/>
      <point x="367" y="129" type="curve" smooth="yes"/>
      <point x="394" y="122"/>
      <point x="414" y="136"/>
      <point x="418" y="152" type="curve" smooth="yes"/>
      <point x="428" y="190"/>
      <point x="373" y="191"/>
      <point x="378" y="209" type="curve"/>
      <point x="382" y="227"/>
      <point x="418" y="246"/>
      <point x="477" y="231" type="curve" smooth="yes"/>
      <point x="530" y="218"/>
      <point x="552" y="190"/>
      <point x="543" y="151" type="curve" smooth="yes"/>
      <point x="524" y="75"/>
      <point x="417" y="57"/>
      <point x="255" y="-43" type="curve"/>
      <point x="250" y="-64" type="line"/>
      <point x="541" y="-136" type="line"/>
      <point x="583" y="-22" type="line"/>
      <point x="552" y="-14" type="line"/>
      <point x="525" y="-64"/>
      <point x="523" y="-74"/>
      <point x="493" y="-66" type="curve" smooth="yes"/>
    </contour>
  </outline>
</glyph>
<glyph name="threequarters" format="1">
  <advance width="602"/>
  <unicode hex="00BE"/>
  <outline>
    <contour>
      <point x="376" y="577" type="curve"/>
      <point x="432" y="583"/>
      <point x="460" y="600"/>
      <point x="470" y="641" type="curve" smooth="yes"/>
      <point x="483" y="692"/>
      <point x="444" y="742"/>
      <point x="368" y="761" type="curve" smooth="yes"/>
      <point x="274" y="785"/>
      <point x="218" y="760"/>
      <point x="207" y="714" type="curve" smooth="yes"/>
      <point x="201" y="689"/>
      <point x="213" y="669"/>
      <point x="239" y="663" type="curve" smooth="yes"/>
      <point x="266" y="656"/>
      <point x="284" y="665"/>
      <point x="289" y="683" type="curve" smooth="yes"/>
      <point x="295" y="709"/>
      <point x="269" y="720"/>
      <point x="271" y="729" type="curve"/>
      <point x="274" y="738"/>
      <point x="301" y="747"/>
      <point x="343" y="737" type="curve" smooth="yes"/>
      <point x="392" y="725"/>
      <point x="411" y="698"/>
      <point x="401" y="658" type="curve" smooth="yes"/>
      <point x="388" y="605"/>
      <point x="360" y="595"/>
      <point x="306" y="609" type="curve" smooth="yes"/>
      <point x="293" y="612"/>
      <point x="285" y="616"/>
      <point x="280" y="617" type="curve"/>
      <point x="262" y="622"/>
      <point x="253" y="620"/>
      <point x="249" y="607" type="curve"/>
      <point x="247" y="597"/>
      <point x="252" y="589"/>
      <point x="266" y="586" type="curve"/>
      <point x="277" y="583"/>
      <point x="291" y="583"/>
      <point x="305" y="579" type="curve" smooth="yes"/>
      <point x="360" y="566"/>
      <point x="379" y="538"/>
      <point x="367" y="487" type="curve" smooth="yes"/>
      <point x="353" y="430"/>
      <point x="319" y="411"/>
      <point x="256" y="427" type="curve" smooth="yes"/>
      <point x="210" y="438"/>
      <point x="186" y="461"/>
      <point x="189" y="471" type="curve" smooth="yes"/>
      <point x="193" y="487"/>
      <point x="224" y="478"/>
      <point x="232" y="507" type="curve"/>
      <point x="237" y="530"/>
      <point x="225" y="547"/>
      <point x="200" y="553" type="curve" smooth="yes"/>
      <point x="170" y="560"/>
      <point x="144" y="546"/>
      <point x="137" y="517" type="curve" smooth="yes"/>
      <point x="125" y="469"/>
      <point x="166" y="418"/>
      <point x="256" y="396" type="curve" smooth="yes"/>
      <point x="355" y="371"/>
      <point x="427" y="401"/>
      <point x="441" y="460" type="curve" smooth="yes"/>
      <point x="455" y="513"/>
      <point x="428" y="548"/>
    </contour>
    <contour>
      <point x="688" y="453" type="line"/>
      <point x="62" y="238" type="line"/>
      <point x="76" y="198" type="line"/>
      <point x="701" y="414" type="line"/>
    </contour>
    <contour>
      <point x="491" y="158" type="line"/>
      <point x="456" y="17" type="line"/>
      <point x="324" y="50" type="line"/>
    </contour>
    <contour>
      <point x="553" y="244" type="line"/>
      <point x="276" y="61" type="line"/>
      <point x="268" y="27" type="line"/>
      <point x="446" y="-18" type="line"/>
      <point x="436" y="-59" type="line"/>
      <point x="432" y="-72"/>
      <point x="427" y="-76"/>
      <point x="407" y="-71" type="curve" smooth="yes"/>
      <point x="366" y="-61" type="line"/>
      <point x="359" y="-91" type="line"/>
      <point x="556" y="-140" type="line"/>
      <point x="563" y="-110" type="line"/>
      <point x="522" y="-100" type="line" smooth="yes"/>
      <point x="503" y="-95"/>
      <point x="499" y="-89"/>
      <point x="503" y="-76" type="curve"/>
      <point x="513" y="-33" type="line"/>
      <point x="590" y="-52" type="line"/>
      <point x="598" y="-18" type="line"/>
      <point x="522" y="1" type="line"/>
      <point x="581" y="237" type="line"/>
    </contour>
  </outline>
</glyph>
<glyph name="questiondown" format="1">
  <advance width="440"/>
  <unicode hex="00BF"/>
  <outline>
    <contour>
      <point x="421" y="626" type="curve" smooth="yes"/>
      <point x="430" y="661"/>
      <point x="410" y="695"/>
      <point x="375" y="703" type="curve" smooth="yes"/>
      <point x="340" y="712"/>
      <point x="306" y="692"/>
      <point x="297" y="657" type="curve" smooth="yes"/>
      <point x="288" y="622"/>
      <point x="309" y="588"/>
      <point x="344" y="579" type="curve" smooth="yes"/>
      <point x="379" y="571"/>
      <point x="413" y="591"/>
    </contour>
    <contour>
      <point x="437" y="94" type="curve" smooth="yes"/>
      <point x="478" y="257"/>
      <point x="294" y="278"/>
      <point x="348" y="496" type="curve"/>
      <point x="301" y="507" type="line"/>
      <point x="239" y="259"/>
      <point x="375" y="242"/>
      <point x="344" y="117" type="curve" smooth="yes"/>
      <point x="329" y="55"/>
      <point x="286" y="17"/>
      <point x="224" y="32" type="curve" smooth="yes"/>
      <point x="167" y="46"/>
      <point x="138" y="88"/>
      <point x="141" y="124" type="curve"/>
      <point x="161" y="128"/>
      <point x="177" y="144"/>
      <point x="183" y="166" type="curve" smooth="yes"/>
      <point x="191" y="197"/>
      <point x="173" y="226"/>
      <point x="142" y="234" type="curve" smooth="yes"/>
      <point x="111" y="241"/>
      <point x="82" y="224"/>
      <point x="74" y="193" type="curve" smooth="yes"/>
      <point x="57" y="123"/>
      <point x="96" y="14"/>
      <point x="212" y="-15" type="curve" smooth="yes"/>
      <point x="321" y="-42"/>
      <point x="410" y="-14"/>
    </contour>
  </outline>
</glyph>
<glyph name="Agrave" format="1">
  <advance width="608"/>
  <unicode hex="00C0"/>
  <outline>
    <contour>
      <point x="560" y="695" type="line"/>
      <point x="591" y="720" type="line"/>
      <point x="486" y="895" type="line" smooth="yes"/>
      <point x="478" y="907"/>
      <point x="466" y="916"/>
      <point x="451" y="920" type="curve" smooth="yes"/>
      <point x="420" y="928"/>
      <point x="391" y="910"/>
      <point x="383" y="879" type="curve" smooth="yes"/>
      <point x="378" y="857"/>
      <point x="385" y="836"/>
      <point x="400" y="823" type="curve"/>
      <point x="401" y="822"/>
      <point x="402" y="822"/>
      <point x="402" y="821" type="curve"/>
    </contour>
    <contour>
      <point x="583" y="-70" type="line"/>
      <point x="589" y="-46" type="line"/>
      <point x="535" y="0" type="line"/>
      <point x="490" y="679" type="line"/>
      <point x="451" y="689" type="line"/>
      <point x="393" y="654" type="line"/>
      <point x="396" y="596" type="line"/>
      <point x="100" y="109" type="line"/>
      <point x="30" y="93" type="line"/>
      <point x="25" y="70" type="line"/>
      <point x="226" y="19" type="line"/>
      <point x="232" y="43" type="line"/>
      <point x="178" y="89" type="line"/>
      <point x="250" y="211" type="line"/>
      <point x="419" y="169" type="line"/>
      <point x="426" y="27" type="line"/>
      <point x="356" y="12" type="line"/>
      <point x="351" y="-12" type="line"/>
    </contour>
    <contour>
      <point x="416" y="228" type="line"/>
      <point x="279" y="262" type="line"/>
      <point x="403" y="472" type="line"/>
    </contour>
  </outline>
</glyph>
<glyph name="Aacute" format="1">
  <advance width="608"/>
  <unicode hex="00C1"/>
  <outline>
    <contour>
      <point x="412" y="732" type="line"/>
      <point x="611" y="769" type="line" smooth="yes"/>
      <point x="632" y="773"/>
      <point x="649" y="788"/>
      <point x="655" y="811" type="curve" smooth="yes"/>
      <point x="662" y="842"/>
      <point x="645" y="871"/>
      <point x="614" y="879" type="curve" smooth="yes"/>
      <point x="598" y="883"/>
      <point x="583" y="881"/>
      <point x="571" y="873" type="curve" smooth="yes"/>
      <point x="397" y="768" type="line"/>
    </contour>
    <contour>
      <point x="583" y="-70" type="line"/>
      <point x="589" y="-46" type="line"/>
      <point x="535" y="0" type="line"/>
      <point x="490" y="679" type="line"/>
      <point x="451" y="689" type="line"/>
      <point x="393" y="654" type="line"/>
      <point x="396" y="596" type="line"/>
      <point x="100" y="109" type="line"/>
      <point x="30" y="93" type="line"/>
      <point x="25" y="70" type="line"/>
      <point x="226" y="19" type="line"/>
      <point x="232" y="43" type="line"/>
      <point x="178" y="89" type="line"/>
      <point x="250" y="211" type="line"/>
      <point x="419" y="169" type="line"/>
      <point x="426" y="27" type="line"/>
      <point x="356" y="12" type="line"/>
      <point x="351" y="-12" type="line"/>
    </contour>
    <contour>
      <point x="416" y="228" type="line"/>
      <point x="279" y="262" type="line"/>
      <point x="403" y="472" type="line"/>
    </contour>
  </outline>
</glyph>
<glyph name="Acircumflex" format="1">
  <advance width="608"/>
  <unicode hex="00C2"/>
  <outline>
    <contour>
      <point x="342" y="749" type="line"/>
      <point x="517" y="854" type="line"/>
      <point x="622" y="679" type="line"/>
      <point x="661" y="703" type="line"/>
      <point x="567" y="924" type="line"/>
      <point x="505" y="939" type="line"/>
      <point x="319" y="788" type="line"/>
    </contour>
    <contour>
      <point x="583" y="-70" type="line"/>
      <point x="589" y="-46" type="line"/>
      <point x="535" y="0" type="line"/>
      <point x="490" y="679" type="line"/>
      <point x="451" y="689" type="line"/>
      <point x="393" y="654" type="line"/>
      <point x="396" y="596" type="line"/>
      <point x="100" y="109" type="line"/>
      <point x="30" y="93" type="line"/>
      <point x="25" y="70" type="line"/>
      <point x="226" y="19" type="line"/>
      <point x="232" y="43" type="line"/>
      <point x="178" y="89" type="line"/>
      <point x="250" y="211" type="line"/>
      <point x="419" y="169" type="line"/>
      <point x="426" y="27" type="line"/>
      <point x="356" y="12" type="line"/>
      <point x="351" y="-12" type="line"/>
    </contour>
    <contour>
      <point x="416" y="228" type="line"/>
      <point x="279" y="262" type="line"/>
      <point x="403" y="472" type="line"/>
    </contour>
  </outline>
</glyph>
<glyph name="Atilde" format="1">
  <advance width="608"/>
  <unicode hex="00C3"/>
  <outline>
    <contour>
      <point x="288" y="796" type="line"/>
      <point x="325" y="811"/>
      <point x="362" y="827"/>
      <point x="408" y="815" type="curve" smooth="yes"/>
      <point x="455" y="803"/>
      <point x="513" y="706"/>
      <point x="575" y="691" type="curve" smooth="yes"/>
      <point x="637" y="675"/>
      <point x="694" y="703"/>
      <point x="730" y="718" type="curve"/>
      <point x="715" y="788" type="line"/>
      <point x="678" y="772"/>
      <point x="641" y="757"/>
      <point x="595" y="769" type="curve" smooth="yes"/>
      <point x="548" y="780"/>
      <point x="490" y="877"/>
      <point x="428" y="893" type="curve" smooth="yes"/>
      <point x="366" y="908"/>
      <point x="309" y="881"/>
      <point x="272" y="865" type="curve"/>
    </contour>
    <contour>
      <point x="583" y="-70" type="line"/>
      <point x="589" y="-46" type="line"/>
      <point x="535" y="0" type="line"/>
      <point x="490" y="679" type="line"/>
      <point x="451" y="689" type="line"/>
      <point x="393" y="654" type="line"/>
      <point x="396" y="596" type="line"/>
      <point x="100" y="109" type="line"/>
      <point x="30" y="93" type="line"/>
      <point x="25" y="70" type="line"/>
      <point x="226" y="19" type="line"/>
      <point x="232" y="43" type="line"/>
      <point x="178" y="89" type="line"/>
      <point x="250" y="211" type="line"/>
      <point x="419" y="169" type="line"/>
      <point x="426" y="27" type="line"/>
      <point x="356" y="12" type="line"/>
      <point x="351" y="-12" type="line"/>
    </contour>
    <contour>
      <point x="416" y="228" type="line"/>
      <point x="279" y="262" type="line"/>
      <point x="403" y="472" type="line"/>
    </contour>
  </outline>
</glyph>
<glyph name="Adieresis" format="1">
  <advance width="608"/>
  <unicode hex="00C4"/>
  <outline>
    <contour>
      <point x="404" y="865" type="curve" smooth="yes"/>
      <point x="369" y="874"/>
      <point x="335" y="854"/>
      <point x="327" y="819" type="curve" smooth="yes"/>
      <point x="318" y="784"/>
      <point x="338" y="750"/>
      <point x="373" y="741" type="curve" smooth="yes"/>
      <point x="408" y="733"/>
      <point x="442" y="753"/>
      <point x="451" y="788" type="curve" smooth="yes"/>
      <point x="460" y="823"/>
      <point x="439" y="857"/>
    </contour>
    <contour>
      <point x="622" y="811" type="curve" smooth="yes"/>
      <point x="587" y="820"/>
      <point x="553" y="800"/>
      <point x="544" y="765" type="curve" smooth="yes"/>
      <point x="535" y="730"/>
      <point x="556" y="696"/>
      <point x="591" y="687" type="curve" smooth="yes"/>
      <point x="626" y="678"/>
      <point x="660" y="699"/>
      <point x="668" y="734" type="curve" smooth="yes"/>
      <point x="677" y="769"/>
      <point x="657" y="803"/>
    </contour>
    <contour>
      <point x="583" y="-70" type="line"/>
      <point x="589" y="-46" type="line"/>
      <point x="535" y="0" type="line"/>
      <point x="490" y="679" type="line"/>
      <point x="451" y="689" type="line"/>
      <point x="393" y="654" type="line"/>
      <point x="396" y="596" type="line"/>
      <point x="100" y="109" type="line"/>
      <point x="30" y="93" type="line"/>
      <point x="25" y="70" type="line"/>
      <point x="226" y="19" type="line"/>
      <point x="232" y="43" type="line"/>
      <point x="178" y="89" type="line"/>
      <point x="250" y="211" type="line"/>
      <point x="419" y="169" type="line"/>
      <point x="426" y="27" type="line"/>
      <point x="356" y="12" type="line"/>
      <point x="351" y="-12" type="line"/>
    </contour>
    <contour>
      <point x="416" y="228" type="line"/>
      <point x="279" y="262" type="line"/>
      <point x="403" y="472" type="line"/>
    </contour>
  </outline>
</glyph>
<glyph name="Aring" format="1">
  <advance width="608"/>
  <unicode hex="00C5"/>
  <outline>
    <contour>
      <point x="377" y="889" type="curve" smooth="yes"/>
      <point x="358" y="813"/>
      <point x="406" y="733"/>
      <point x="482" y="714" type="curve" smooth="yes"/>
      <point x="560" y="695"/>
      <point x="638" y="743"/>
      <point x="657" y="819" type="curve" smooth="yes"/>
      <point x="675" y="895"/>
      <point x="629" y="974"/>
      <point x="552" y="994" type="curve" smooth="yes"/>
      <point x="476" y="1012"/>
      <point x="396" y="964"/>
    </contour>
    <contour>
      <point x="439" y="873" type="curve" smooth="yes"/>
      <point x="450" y="916"/>
      <point x="494" y="942"/>
      <point x="536" y="931" type="curve" smooth="yes"/>
      <point x="579" y="921"/>
      <point x="605" y="877"/>
      <point x="595" y="835" type="curve" smooth="yes"/>
      <point x="584" y="792"/>
      <point x="540" y="766"/>
      <point x="498" y="776" type="curve" smooth="yes"/>
      <point x="455" y="787"/>
      <point x="429" y="831"/>
    </contour>
    <contour>
      <point x="583" y="-70" type="line"/>
      <point x="589" y="-46" type="line"/>
      <point x="535" y="0" type="line"/>
      <point x="490" y="679" type="line"/>
      <point x="451" y="689" type="line"/>
      <point x="393" y="654" type="line"/>
      <point x="396" y="596" type="line"/>
      <point x="100" y="109" type="line"/>
      <point x="30" y="93" type="line"/>
      <point x="25" y="70" type="line"/>
      <point x="226" y="19" type="line"/>
      <point x="232" y="43" type="line"/>
      <point x="178" y="89" type="line"/>
      <point x="250" y="211" type="line"/>
      <point x="419" y="169" type="line"/>
      <point x="426" y="27" type="line"/>
      <point x="356" y="12" type="line"/>
      <point x="351" y="-12" type="line"/>
    </contour>
    <contour>
      <point x="416" y="228" type="line"/>
      <point x="279" y="262" type="line"/>
      <point x="403" y="472" type="line"/>
    </contour>
  </outline>
</glyph>
<glyph name="AE" format="1">
  <advance width="608"/>
  <unicode hex="00C6"/>
  <outline>
    <contour>
      <point x="418" y="639" type="line"/>
      <point x="321" y="251" type="line"/>
      <point x="244" y="270" type="line"/>
      <point x="413" y="645" type="line"/>
    </contour>
    <contour>
      <point x="645" y="179" type="line"/>
      <point x="620" y="185" type="line"/>
      <point x="494" y="10" type="line"/>
      <point x="349" y="47" type="line"/>
      <point x="420" y="334" type="line"/>
      <point x="502" y="313" type="line"/>
      <point x="513" y="228" type="line"/>
      <point x="537" y="222" type="line"/>
      <point x="589" y="432" type="line"/>
      <point x="566" y="438" type="line"/>
      <point x="515" y="368" type="line"/>
      <point x="434" y="388" type="line"/>
      <point x="492" y="621" type="line"/>
      <point x="637" y="585" type="line"/>
      <point x="657" y="440" type="line"/>
      <point x="682" y="433" type="line"/>
      <point x="703" y="626" type="line"/>
      <point x="410" y="699" type="line"/>
      <point x="381" y="706" type="line"/>
      <point x="102" y="108" type="line"/>
      <point x="46" y="89" type="line"/>
      <point x="40" y="66" type="line"/>
      <point x="201" y="26" type="line"/>
      <point x="207" y="49" type="line"/>
      <point x="164" y="93" type="line"/>
      <point x="221" y="219" type="line"/>
      <point x="308" y="197" type="line"/>
      <point x="275" y="65" type="line"/>
      <point x="267" y="34" type="line"/>
      <point x="261" y="11" type="line"/>
      <point x="558" y="-63" type="line"/>
    </contour>
  </outline>
</glyph>
<glyph name="Ccedilla" format="1">
  <advance width="608"/>
  <unicode hex="00C7"/>
  <outline>
    <contour>
      <point x="401" y="-164" type="curve" smooth="yes"/>
      <point x="413" y="-118"/>
      <point x="388" y="-77"/>
      <point x="338" y="-64" type="curve" smooth="yes"/>
      <point x="330" y="-62"/>
      <point x="318" y="-59"/>
      <point x="302" y="-57" type="curve"/>
      <point x="312" y="-18" type="line"/>
      <point x="428" y="-35"/>
      <point x="523" y="53"/>
      <point x="560" y="200" type="curve"/>
      <point x="529" y="208" type="line"/>
      <point x="490" y="85"/>
      <point x="420" y="37"/>
      <point x="327" y="60" type="curve" smooth="yes"/>
      <point x="250" y="80"/>
      <point x="184" y="211"/>
      <point x="226" y="382" type="curve" smooth="yes"/>
      <point x="269" y="553"/>
      <point x="354" y="664"/>
      <point x="455" y="638" type="curve" smooth="yes"/>
      <point x="531" y="620"/>
      <point x="581" y="549"/>
      <point x="568" y="429" type="curve"/>
      <point x="599" y="421" type="line"/>
      <point x="653" y="639" type="line"/>
      <point x="622" y="646" type="line"/>
      <point x="578" y="620" type="line"/>
      <point x="557" y="660"/>
      <point x="522" y="688"/>
      <point x="470" y="701" type="curve" smooth="yes"/>
      <point x="323" y="737"/>
      <point x="168" y="611"/>
      <point x="117" y="409" type="curve" smooth="yes"/>
      <point x="68" y="212"/>
      <point x="142" y="31"/>
      <point x="283" y="-11" type="curve"/>
      <point x="263" y="-89" type="line"/>
      <point x="279" y="-91"/>
      <point x="289" y="-93"/>
      <point x="295" y="-95" type="curve"/>
      <point x="326" y="-102"/>
      <point x="339" y="-122"/>
      <point x="333" y="-147" type="curve" smooth="yes"/>
      <point x="326" y="-175"/>
      <point x="307" y="-186"/>
      <point x="270" y="-177" type="curve" smooth="yes"/>
      <point x="241" y="-170"/>
      <point x="203" y="-148"/>
      <point x="169" y="-113" type="curve"/>
      <point x="141" y="-151" type="line"/>
      <point x="192" y="-186"/>
      <point x="235" y="-212"/>
      <point x="274" y="-221" type="curve" smooth="yes"/>
      <point x="343" y="-239"/>
      <point x="389" y="-215"/>
    </contour>
  </outline>
</glyph>
<glyph name="Egrave" format="1">
  <advance width="608"/>
  <unicode hex="00C8"/>
  <outline>
    <contour>
      <point x="560" y="695" type="line"/>
      <point x="591" y="720" type="line"/>
      <point x="486" y="895" type="line" smooth="yes"/>
      <point x="478" y="907"/>
      <point x="466" y="916"/>
      <point x="451" y="920" type="curve" smooth="yes"/>
      <point x="420" y="928"/>
      <point x="391" y="910"/>
      <point x="383" y="879" type="curve" smooth="yes"/>
      <point x="378" y="857"/>
      <point x="385" y="836"/>
      <point x="400" y="823" type="curve"/>
      <point x="401" y="822"/>
      <point x="402" y="822"/>
      <point x="402" y="821" type="curve"/>
    </contour>
    <contour>
      <point x="614" y="186" type="line"/>
      <point x="583" y="194" type="line"/>
      <point x="438" y="24" type="line"/>
      <point x="255" y="70" type="line"/>
      <point x="327" y="357" type="line"/>
      <point x="428" y="332" type="line"/>
      <point x="447" y="245" type="line"/>
      <point x="478" y="237" type="line"/>
      <point x="531" y="446" type="line"/>
      <point x="500" y="454" type="line"/>
      <point x="442" y="386" type="line"/>
      <point x="341" y="411" type="line"/>
      <point x="399" y="644" type="line"/>
      <point x="581" y="599" type="line"/>
      <point x="614" y="450" type="line"/>
      <point x="645" y="443" type="line"/>
      <point x="661" y="637" type="line"/>
      <point x="257" y="737" type="line"/>
      <point x="251" y="714" type="line"/>
      <point x="306" y="667" type="line"/>
      <point x="162" y="93" type="line"/>
      <point x="92" y="77" type="line"/>
      <point x="87" y="54" type="line"/>
      <point x="521" y="-54" type="line"/>
    </contour>
  </outline>
</glyph>
<glyph name="Eacute" format="1">
  <advance width="608"/>
  <unicode hex="00C9"/>
  <outline>
    <contour>
      <point x="373" y="741" type="line"/>
      <point x="572" y="779" type="line" smooth="yes"/>
      <point x="593" y="783"/>
      <point x="610" y="798"/>
      <point x="616" y="821" type="curve" smooth="yes"/>
      <point x="624" y="852"/>
      <point x="606" y="881"/>
      <point x="575" y="889" type="curve" smooth="yes"/>
      <point x="560" y="893"/>
      <point x="545" y="890"/>
      <point x="532" y="883" type="curve" smooth="yes"/>
      <point x="358" y="778" type="line"/>
    </contour>
    <contour>
      <point x="614" y="186" type="line"/>
      <point x="583" y="194" type="line"/>
      <point x="438" y="24" type="line"/>
      <point x="255" y="70" type="line"/>
      <point x="327" y="357" type="line"/>
      <point x="428" y="332" type="line"/>
      <point x="447" y="245" type="line"/>
      <point x="478" y="237" type="line"/>
      <point x="531" y="446" type="line"/>
      <point x="500" y="454" type="line"/>
      <point x="442" y="386" type="line"/>
      <point x="341" y="411" type="line"/>
      <point x="399" y="644" type="line"/>
      <point x="581" y="599" type="line"/>
      <point x="614" y="450" type="line"/>
      <point x="645" y="443" type="line"/>
      <point x="661" y="637" type="line"/>
      <point x="257" y="737" type="line"/>
      <point x="251" y="714" type="line"/>
      <point x="306" y="667" type="line"/>
      <point x="162" y="93" type="line"/>
      <point x="92" y="77" type="line"/>
      <point x="87" y="54" type="line"/>
      <point x="521" y="-54" type="line"/>
    </contour>
  </outline>
</glyph>
<glyph name="Ecircumflex" format="1">
  <advance width="608"/>
  <unicode hex="00CA"/>
  <outline>
    <contour>
      <point x="342" y="749" type="line"/>
      <point x="517" y="854" type="line"/>
      <point x="622" y="679" type="line"/>
      <point x="661" y="703" type="line"/>
      <point x="567" y="924" type="line"/>
      <point x="505" y="939" type="line"/>
      <point x="319" y="788" type="line"/>
    </contour>
    <contour>
      <point x="630" y="183" type="line"/>
      <point x="599" y="190" type="line"/>
      <point x="453" y="20" type="line"/>
      <point x="271" y="66" type="line"/>
      <point x="343" y="353" type="line"/>
      <point x="443" y="328" type="line"/>
      <point x="463" y="241" type="line"/>
      <point x="494" y="233" type="line"/>
      <point x="546" y="443" type="line"/>
      <point x="515" y="450" type="line"/>
      <point x="457" y="382" type="line"/>
      <point x="356" y="407" type="line"/>
      <point x="414" y="640" type="line"/>
      <point x="597" y="595" type="line"/>
      <point x="630" y="446" type="line"/>
      <point x="661" y="439" type="line"/>
      <point x="676" y="633" type="line"/>
      <point x="272" y="733" type="line"/>
      <point x="267" y="710" type="line"/>
      <point x="321" y="664" type="line"/>
      <point x="178" y="89" type="line"/>
      <point x="108" y="74" type="line"/>
      <point x="102" y="50" type="line"/>
      <point x="537" y="-58" type="line"/>
    </contour>
  </outline>
</glyph>
<glyph name="Edieresis" format="1">
  <advance width="608"/>
  <unicode hex="00CB"/>
  <outline>
    <contour>
      <point x="404" y="865" type="curve" smooth="yes"/>
      <point x="369" y="874"/>
      <point x="335" y="854"/>
      <point x="327" y="819" type="curve" smooth="yes"/>
      <point x="318" y="784"/>
      <point x="338" y="750"/>
      <point x="373" y="741" type="curve" smooth="yes"/>
      <point x="408" y="733"/>
      <point x="442" y="753"/>
      <point x="451" y="788" type="curve" smooth="yes"/>
      <point x="460" y="823"/>
      <point x="439" y="857"/>
    </contour>
    <contour>
      <point x="622" y="811" type="curve" smooth="yes"/>
      <point x="587" y="820"/>
      <point x="553" y="800"/>
      <point x="544" y="765" type="curve" smooth="yes"/>
      <point x="535" y="730"/>
      <point x="556" y="696"/>
      <point x="591" y="687" type="curve" smooth="yes"/>
      <point x="626" y="678"/>
      <point x="660" y="699"/>
      <point x="668" y="734" type="curve" smooth="yes"/>
      <point x="677" y="769"/>
      <point x="657" y="803"/>
    </contour>
    <contour>
      <point x="614" y="186" type="line"/>
      <point x="583" y="194" type="line"/>
      <point x="438" y="24" type="line"/>
      <point x="255" y="70" type="line"/>
      <point x="327" y="357" type="line"/>
      <point x="428" y="332" type="line"/>
      <point x="447" y="245" type="line"/>
      <point x="478" y="237" type="line"/>
      <point x="531" y="446" type="line"/>
      <point x="500" y="454" type="line"/>
      <point x="442" y="386" type="line"/>
      <point x="341" y="411" type="line"/>
      <point x="399" y="644" type="line"/>
      <point x="581" y="599" type="line"/>
      <point x="614" y="450" type="line"/>
      <point x="645" y="443" type="line"/>
      <point x="661" y="637" type="line"/>
      <point x="257" y="737" type="line"/>
      <point x="251" y="714" type="line"/>
      <point x="306" y="667" type="line"/>
      <point x="162" y="93" type="line"/>
      <point x="92" y="77" type="line"/>
      <point x="87" y="54" type="line"/>
      <point x="521" y="-54" type="line"/>
    </contour>
  </outline>
</glyph>
<glyph name="Igrave" format="1">
  <advance width="608"/>
  <unicode hex="00CC"/>
  <outline>
    <contour>
      <point x="560" y="695" type="line"/>
      <point x="591" y="720" type="line"/>
      <point x="486" y="895" type="line" smooth="yes"/>
      <point x="478" y="907"/>
      <point x="466" y="916"/>
      <point x="451" y="920" type="curve" smooth="yes"/>
      <point x="420" y="928"/>
      <point x="391" y="910"/>
      <point x="383" y="879" type="curve" smooth="yes"/>
      <point x="378" y="857"/>
      <point x="385" y="836"/>
      <point x="400" y="823" type="curve"/>
      <point x="401" y="822"/>
      <point x="402" y="822"/>
      <point x="402" y="821" type="curve"/>
    </contour>
    <contour>
      <point x="450" y="-12" type="line"/>
      <point x="364" y="43" type="line"/>
      <point x="507" y="617" type="line"/>
      <point x="608" y="625" type="line"/>
      <point x="614" y="648" type="line"/>
      <point x="335" y="718" type="line"/>
      <point x="329" y="695" type="line"/>
      <point x="414" y="640" type="line"/>
      <point x="271" y="66" type="line"/>
      <point x="170" y="58" type="line"/>
      <point x="164" y="35" type="line"/>
      <point x="444" y="-35" type="line"/>
    </contour>
  </outline>
</glyph>
<glyph name="Iacute" format="1">
  <advance width="608"/>
  <unicode hex="00CD"/>
  <outline>
    <contour>
      <point x="412" y="732" type="line"/>
      <point x="611" y="769" type="line" smooth="yes"/>
      <point x="632" y="773"/>
      <point x="649" y="788"/>
      <point x="655" y="811" type="curve" smooth="yes"/>
      <point x="662" y="842"/>
      <point x="645" y="871"/>
      <point x="614" y="879" type="curve" smooth="yes"/>
      <point x="598" y="883"/>
      <point x="583" y="881"/>
      <point x="571" y="873" type="curve" smooth="yes"/>
      <point x="397" y="768" type="line"/>
    </contour>
    <contour>
      <point x="450" y="-12" type="line"/>
      <point x="364" y="43" type="line"/>
      <point x="507" y="617" type="line"/>
      <point x="608" y="625" type="line"/>
      <point x="614" y="648" type="line"/>
      <point x="335" y="718" type="line"/>
      <point x="329" y="695" type="line"/>
      <point x="414" y="640" type="line"/>
      <point x="271" y="66" type="line"/>
      <point x="170" y="58" type="line"/>
      <point x="164" y="35" type="line"/>
      <point x="444" y="-35" type="line"/>
    </contour>
  </outline>
</glyph>
<glyph name="Icircumflex" format="1">
  <advance width="608"/>
  <unicode hex="00CE"/>
  <outline>
    <contour>
      <point x="342" y="749" type="line"/>
      <point x="517" y="854" type="line"/>
      <point x="622" y="679" type="line"/>
      <point x="661" y="703" type="line"/>
      <point x="567" y="924" type="line"/>
      <point x="505" y="939" type="line"/>
      <point x="319" y="788" type="line"/>
    </contour>
    <contour>
      <point x="450" y="-12" type="line"/>
      <point x="364" y="43" type="line"/>
      <point x="507" y="617" type="line"/>
      <point x="608" y="625" type="line"/>
      <point x="614" y="648" type="line"/>
      <point x="335" y="718" type="line"/>
      <point x="329" y="695" type="line"/>
      <point x="414" y="640" type="line"/>
      <point x="271" y="66" type="line"/>
      <point x="170" y="58" type="line"/>
      <point x="164" y="35" type="line"/>
      <point x="444" y="-35" type="line"/>
    </contour>
  </outline>
</glyph>
<glyph name="Idieresis" format="1">
  <advance width="608"/>
  <unicode hex="00CF"/>
  <outline>
    <contour>
      <point x="404" y="865" type="curve" smooth="yes"/>
      <point x="369" y="874"/>
      <point x="335" y="854"/>
      <point x="327" y="819" type="curve" smooth="yes"/>
      <point x="318" y="784"/>
      <point x="338" y="750"/>
      <point x="373" y="741" type="curve" smooth="yes"/>
      <point x="408" y="733"/>
      <point x="442" y="753"/>
      <point x="451" y="788" type="curve" smooth="yes"/>
      <point x="460" y="823"/>
      <point x="439" y="857"/>
    </contour>
    <contour>
      <point x="622" y="811" type="curve" smooth="yes"/>
      <point x="587" y="820"/>
      <point x="553" y="800"/>
      <point x="544" y="765" type="curve" smooth="yes"/>
      <point x="535" y="730"/>
      <point x="556" y="696"/>
      <point x="591" y="687" type="curve" smooth="yes"/>
      <point x="626" y="678"/>
      <point x="660" y="699"/>
      <point x="668" y="734" type="curve" smooth="yes"/>
      <point x="677" y="769"/>
      <point x="657" y="803"/>
    </contour>
    <contour>
      <point x="450" y="-12" type="line"/>
      <point x="364" y="43" type="line"/>
      <point x="507" y="617" type="line"/>
      <point x="608" y="625" type="line"/>
      <point x="614" y="648" type="line"/>
      <point x="335" y="718" type="line"/>
      <point x="329" y="695" type="line"/>
      <point x="414" y="640" type="line"/>
      <point x="271" y="66" type="line"/>
      <point x="170" y="58" type="line"/>
      <point x="164" y="35" type="line"/>
      <point x="444" y="-35" type="line"/>
    </contour>
  </outline>
</glyph>
<glyph name="Eth" format="1">
  <advance width="608"/>
  <unicode hex="00D0"/>
  <outline>
    <contour>
      <point x="622" y="283" type="curve" smooth="yes"/>
      <point x="680" y="516"/>
      <point x="599" y="652"/>
      <point x="412" y="699" type="curve" smooth="yes"/>
      <point x="241" y="741" type="line"/>
      <point x="236" y="718" type="line"/>
      <point x="290" y="671" type="line"/>
      <point x="226" y="415" type="line"/>
      <point x="133" y="438" type="line"/>
      <point x="117" y="376" type="line"/>
      <point x="211" y="353" type="line"/>
      <point x="147" y="97" type="line"/>
      <point x="77" y="81" type="line"/>
      <point x="71" y="58" type="line"/>
      <point x="242" y="15" type="line" smooth="yes"/>
      <point x="428" y="-31"/>
      <point x="564" y="51"/>
    </contour>
    <contour>
      <point x="255" y="70" type="curve" smooth="yes"/>
      <point x="240" y="74" type="line"/>
      <point x="304" y="330" type="line"/>
      <point x="397" y="307" type="line"/>
      <point x="412" y="369" type="line"/>
      <point x="319" y="392" type="line"/>
      <point x="383" y="648" type="line"/>
      <point x="399" y="644" type="line" smooth="yes"/>
      <point x="523" y="613"/>
      <point x="564" y="512"/>
      <point x="513" y="311" type="curve" smooth="yes"/>
      <point x="463" y="109"/>
      <point x="380" y="39"/>
    </contour>
  </outline>
</glyph>
<glyph name="Ntilde" format="1">
  <advance width="608"/>
  <unicode hex="00D1"/>
  <outline>
    <contour>
      <point x="288" y="796" type="line"/>
      <point x="325" y="811"/>
      <point x="362" y="827"/>
      <point x="408" y="815" type="curve" smooth="yes"/>
      <point x="455" y="803"/>
      <point x="513" y="706"/>
      <point x="575" y="691" type="curve" smooth="yes"/>
      <point x="637" y="675"/>
      <point x="694" y="703"/>
      <point x="730" y="718" type="curve"/>
      <point x="715" y="788" type="line"/>
      <point x="678" y="772"/>
      <point x="641" y="757"/>
      <point x="595" y="769" type="curve" smooth="yes"/>
      <point x="548" y="780"/>
      <point x="490" y="877"/>
      <point x="428" y="893" type="curve" smooth="yes"/>
      <point x="366" y="908"/>
      <point x="309" y="881"/>
      <point x="272" y="865" type="curve"/>
    </contour>
    <contour>
      <point x="506" y="-50" type="line"/>
      <point x="663" y="578" type="line"/>
      <point x="732" y="594" type="line"/>
      <point x="738" y="617" type="line"/>
      <point x="552" y="664" type="line"/>
      <point x="546" y="640" type="line"/>
      <point x="600" y="594" type="line"/>
      <point x="489" y="146" type="line"/>
      <point x="304" y="726" type="line"/>
      <point x="210" y="749" type="line"/>
      <point x="205" y="726" type="line"/>
      <point x="241" y="606" type="line"/>
      <point x="116" y="105" type="line"/>
      <point x="46" y="89" type="line"/>
      <point x="40" y="66" type="line"/>
      <point x="226" y="19" type="line"/>
      <point x="232" y="43" type="line"/>
      <point x="178" y="89" type="line"/>
      <point x="277" y="486" type="line"/>
      <point x="432" y="-32" type="line"/>
      <point x="434" y="-32" type="line"/>
    </contour>
  </outline>
</glyph>
<glyph name="Ograve" format="1">
  <advance width="608"/>
  <unicode hex="00D2"/>
  <outline>
    <contour>
      <point x="560" y="695" type="line"/>
      <point x="591" y="720" type="line"/>
      <point x="486" y="895" type="line" smooth="yes"/>
      <point x="478" y="907"/>
      <point x="466" y="916"/>
      <point x="451" y="920" type="curve" smooth="yes"/>
      <point x="420" y="928"/>
      <point x="391" y="910"/>
      <point x="383" y="879" type="curve" smooth="yes"/>
      <point x="378" y="857"/>
      <point x="385" y="836"/>
      <point x="400" y="823" type="curve"/>
      <point x="401" y="822"/>
      <point x="402" y="822"/>
      <point x="402" y="821" type="curve"/>
    </contour>
    <contour>
      <point x="156" y="400" type="curve" smooth="yes"/>
      <point x="102" y="182"/>
      <point x="153" y="21"/>
      <point x="300" y="-16" type="curve" smooth="yes"/>
      <point x="448" y="-52"/>
      <point x="568" y="66"/>
      <point x="622" y="283" type="curve" smooth="yes"/>
      <point x="676" y="501"/>
      <point x="626" y="662"/>
      <point x="478" y="699" type="curve" smooth="yes"/>
      <point x="331" y="735"/>
      <point x="210" y="617"/>
    </contour>
    <contour>
      <point x="465" y="644" type="curve" smooth="yes"/>
      <point x="566" y="619"/>
      <point x="560" y="497"/>
      <point x="513" y="311" type="curve" smooth="yes"/>
      <point x="467" y="124"/>
      <point x="415" y="14"/>
      <point x="314" y="39" type="curve" smooth="yes"/>
      <point x="213" y="64"/>
      <point x="219" y="186"/>
      <point x="265" y="373" type="curve" smooth="yes"/>
      <point x="311" y="559"/>
      <point x="364" y="669"/>
    </contour>
  </outline>
</glyph>
<glyph name="Oacute" format="1">
  <advance width="608"/>
  <unicode hex="00D3"/>
  <outline>
    <contour>
      <point x="373" y="741" type="line"/>
      <point x="572" y="779" type="line" smooth="yes"/>
      <point x="593" y="783"/>
      <point x="610" y="798"/>
      <point x="616" y="821" type="curve" smooth="yes"/>
      <point x="624" y="852"/>
      <point x="606" y="881"/>
      <point x="575" y="889" type="curve" smooth="yes"/>
      <point x="560" y="893"/>
      <point x="545" y="890"/>
      <point x="532" y="883" type="curve" smooth="yes"/>
      <point x="358" y="778" type="line"/>
    </contour>
    <contour>
      <point x="156" y="400" type="curve" smooth="yes"/>
      <point x="102" y="182"/>
      <point x="153" y="21"/>
      <point x="300" y="-16" type="curve" smooth="yes"/>
      <point x="448" y="-52"/>
      <point x="568" y="66"/>
      <point x="622" y="283" type="curve" smooth="yes"/>
      <point x="676" y="501"/>
      <point x="626" y="662"/>
      <point x="478" y="699" type="curve" smooth="yes"/>
      <point x="331" y="735"/>
      <point x="210" y="617"/>
    </contour>
    <contour>
      <point x="465" y="644" type="curve" smooth="yes"/>
      <point x="566" y="619"/>
      <point x="560" y="497"/>
      <point x="513" y="311" type="curve" smooth="yes"/>
      <point x="467" y="124"/>
      <point x="415" y="14"/>
      <point x="314" y="39" type="curve" smooth="yes"/>
      <point x="213" y="64"/>
      <point x="219" y="186"/>
      <point x="265" y="373" type="curve" smooth="yes"/>
      <point x="311" y="559"/>
      <point x="364" y="669"/>
    </contour>
  </outline>
</glyph>
